<?xml version="1.0" encoding="utf-8"?>
<!-- Generator: Adobe Illustrator 21.0.2, SVG Export Plug-In . SVG Version: 6.00 Build 0)  -->
<svg version="1.1" id="Layer_1" xmlns="http://www.w3.org/2000/svg" xmlns:xlink="http://www.w3.org/1999/xlink" x="0px" y="0px"
	 viewBox="0 0 255.1 91.2" style="enable-background:new 0 0 255.1 91.2;" xml:space="preserve">
<style type="text/css">
	.st0{fill:#E75300;}
	.st1{fill:#AD441D;}
	.st2{fill:#FFD26C;}
	.st3{fill:#FFFFFF;}
	.st4{fill:#FFC656;}
	.st5{fill:#00758D;}
	.st6{fill:#231F20;}
</style>
<title>concord-logo</title>
<path class="st0" d="M62.5,29.9c4.3,3.2,8.4,7.9,8.2,10.5c-0.1,1.5-5.4,6.9-11.2,9c1.4,5.3,1.5,11.6-0.2,13.5
	c-0.9,1-7.7,1.7-13.4-0.2c0.4-1.4,0.6-2.8,0.6-4.3c0.2-7,8.9-11.6,8.9-23.9c0-11.6-11-20-20.1-20s-20.1,8.4-20.1,20
	c0,12.3,8.7,16.9,8.9,23.9c0,1.6,0.3,3.2,0.8,4.8c-4.5,2-9.9,3-11.8,1.7c-1.2-0.8-3.1-8.3-1.9-14.6c-5-1.4-10.4-4.4-11.2-6.9
	C-0.4,42,2.7,35,7.6,30.9c-3-4.5-5.3-10.4-4.3-12.7c0.6-1.4,7.3-4.6,13.6-4.6c0.4-5.3,2.4-11.4,4.6-12.6c1.3-0.7,8.5,1.3,13.2,5.6
	c3.7-3.9,8.9-7.2,11.3-6.6c1.4,0.3,5.7,6.7,6.7,13.1c5.2-0.5,11.3,0.5,12.8,2.5C66.4,16.6,65.7,24.4,62.5,29.9z"/>
<path class="st1" d="M42.5,42.8c4.3,0.5,8.7-3.2,13.2-0.5c1.6,1,3,3.9,3.8,7.1c-1.9,0.8-4,1-6.1,0.7C49.7,49.5,45.4,46,42.5,42.8z
	 M25.3,38.1c-2.5,3.7-1.7,9.4-6.2,12.1c-1.6,1-4.7,0.8-7.9-0.1c0.3-2.1,1.2-4.2,2.5-5.9C16.1,41.3,21.2,39.2,25.3,38.1z M25.9,30.9
	c-4.2,1.1-7.2,6.1-12.2,5.2c-1.9-0.3-4.1-2.5-5.9-5.4c1.6-1.4,3.5-2.4,5.5-2.8C16.9,27.2,22.1,28.9,25.9,30.9z M30.8,25.7
	c-3.9-1.9-9.2-0.1-12.5-4.2c-1.2-1.5-1.5-4.7-1.3-8c2.1-0.1,4.2,0.5,6,1.5C26.2,16.8,29.1,21.7,30.8,25.7z M37.8,25
	c-1.8-4.2-7-6.3-7-11.6c0-1.9,1.7-4.6,4-7c1.7,1.4,2.9,3.2,3.7,5.2C39.8,15.2,39,20.8,37.8,25L37.8,25z M45.4,36.1
	c3.6-2.5,4.7-8.2,9.8-9.1c1.9-0.3,4.7,0.9,7.3,2.9c-1,1.9-2.5,3.5-4.2,4.7C55.1,36.5,49.6,36.7,45.4,36.1z M52.8,12.9
	c0.4,2.1,0.2,4.3-0.4,6.4c-1.2,3.7-5.3,7.4-8.9,9.9c1.2-4.4-1.5-9.4,1.8-13.5C46.6,14.1,49.5,13.2,52.8,12.9z"/>
<path class="st2" d="M27.9,66c-0.9-0.3-1.6-0.8-2.1-1.6c-1-1.8-1.5-3.9-1.5-6c-0.2-7-8.9-11.6-8.9-23.9c0-11.6,11-20,20.1-20
	s20.1,8.4,20.1,20c0,12.3-8.7,16.9-8.9,23.9c0.1,2.2-0.5,4.3-1.6,6.2c-0.5,0.7-1.1,1.2-1.9,1.5H43L27.9,66L27.9,66z"/>
<path class="st3" d="M39.4,37.5c0.3-0.4,2.5,0.1,4.5-0.5c0.6-0.2,1.1-0.5,1.6-0.8c-3.2-0.4-5.6-1.2-5.7-1.9c0-0.5,2-1.5,3.1-3.5
	c0.3-0.6,0.5-1.1,0.7-1.7c-2.7,1.8-5,2.8-5.5,2.3s0.6-2.5,0.3-4.7c-0.1-0.6-0.3-1.2-0.5-1.7c-0.9,3.1-2.1,5.5-2.8,5.5
	c-0.5,0-1.1-2.3-2.7-3.8c-0.5-0.4-1-0.7-1.5-1c1.3,3,1.8,5.6,1.2,6.1c-0.4,0.3-2.3-1-4.4-1.1c-0.6,0-1.2,0.1-1.8,0.2
	c2.8,1.5,4.8,3,4.7,3.9c-0.1,0.5-2.4,0.7-4,2.1c-0.5,0.4-0.9,0.8-1.2,1.3c3.1-0.7,5.6-0.9,6-0.2c0.2,0.5-1.4,2.1-1.8,4.3
	c-0.1,0.6-0.1,1.2-0.1,1.8c1.9-2.6,3.8-4.4,4.4-4.2s0.3,2.5,1.3,4.5c0.3,0.5,0.7,1.1,1.1,1.5c-0.2-3.2,0.2-5.9,0.8-6.1
	s1.8,1.7,3.8,2.5c0.5,0.2,1.1,0.4,1.7,0.4C40.4,40.4,39,38.1,39.4,37.5z"/>
<path class="st4" d="M44.1,61.9c-0.6-0.3-1.1-0.6-1.6-0.9c-0.9-0.6-1.8-1.4-2.5-2.2c-2.4-2.9-3.5-8.5-3.8-12.9
	c3,3.2,8.6,3.3,10.4,8.4c0.1,0.2,0.1,0.3,0.1,0.5l0.3,1.1c-0.2,0.8-0.4,1.6-0.4,2.5c-0.1,1.5-0.3,2.9-0.6,4.4
	C45.4,62.5,44.8,62.2,44.1,61.9z M29.4,44.1c0.3,4.5,4.5,8.3,2.8,13.4c-0.5,1.4-2,2.8-4,4.1c-0.7,0.5-1.4,0.8-2.1,1.1
	c-0.3,0.1-0.7,0.3-1,0.5c-0.5-1.5-0.7-3.2-0.8-4.8v-1.9c0-0.4,0-0.9,0.1-1.3C24.9,51.6,27.1,47.2,29.4,44.1z M50.8,22.3
	c-2,2.7-4.5,5.1-7.3,6.9c1.1-3.9-0.9-8.3,0.9-12.1C46.9,18.4,49.1,20.1,50.8,22.3z M45.4,36.1c3.3-2.3,4.5-7.3,8.6-8.8
	c1,2.3,1.5,4.7,1.5,7.2v1.2C52.2,36.5,48.8,36.6,45.4,36.1z M37.8,25.1c-1.6-3.7-5.8-5.7-6.8-9.8c1.5-0.4,3-0.6,4.5-0.6
	c1.2,0,2.5,0.1,3.7,0.4C39.3,18.4,38.8,21.8,37.8,25.1z M30.8,25.7c-3.4-1.7-7.9-0.5-11.2-2.9c1.7-2.2,3.8-4,6.2-5.4
	C27.9,19.9,29.6,22.7,30.8,25.7L30.8,25.7z M25.9,31c-3.7,1-6.4,4.9-10.4,5.3c0-0.5-0.1-1.1-0.1-1.6c0-2.3,0.5-4.6,1.3-6.7
	C20,28.4,23.1,29.4,25.9,31L25.9,31z M25.3,38.2c-2.3,3.2-1.8,8.3-5,11.2c-1.6-2.3-2.8-4.9-3.8-7.5C19.3,40.2,22.2,38.9,25.3,38.2
	L25.3,38.2z M42.5,42.8c3.9,0.4,7.9-2.5,11.9-1.1c-0.9,2.7-2.2,5.2-3.8,7.5C47.6,47.6,44.9,45.4,42.5,42.8z"/>
<path class="st5" d="M42.9,73v1c0.8,0.1,1.3,0.7,1.3,1.5c0.1,0.7-0.5,1.3-1.2,1.4c0,0-0.1,0-0.1,0L38,78.2c0.3,0.3,0.5,0.8,0.5,1.2
	c0,0.8-0.5,1.4-1.3,1.5h-3.6c-0.8-0.1-1.4-0.9-1.3-1.8c0.1-0.4,0.3-0.8,0.7-1l-5.1-1.2c-0.8-0.2-1.3-1-1.2-1.8
	c0.1-0.6,0.6-1,1.2-1.2H40v-0.3l-12.1-0.7c-0.8-0.2-1.3-1-1.2-1.8c0.1-0.6,0.6-1,1.2-1.2h12v-0.3l-12-0.7c-0.8-0.2-1.3-1-1.2-1.8
	c0.1-0.6,0.6-1,1.2-1.2h15c0.8,0.2,1.3,1,1.2,1.8c-0.1,0.6-0.6,1-1.2,1.2h-0.1v1h0.1c0.8,0.1,1.3,0.7,1.3,1.5
	C44.2,72.3,43.7,73,42.9,73z"/>
<path class="st6" d="M228.6,25.5c0.5-1.3,2.6-3.5,4.6-3.5c0.5,0,0.9,0.1,1.4,0.2v4.5c-0.5-0.2-1-0.3-1.5-0.3c-2.9,0-4.4,3.1-4.4,6.4
	v7.5h-4.2V25.9h-2.4v-3.7h3.8c1.4,0,2.7,0.7,2.7,2.2V25.5z M168.3,24.4c1.4-1.7,3.5-2.7,5.7-2.6c4.1,0,6,2.5,6,7v7.6h2.2V40h-3.8
	c-1.4,0-2.6-0.7-2.6-2.2v-8.4c0-2.3-0.4-3.7-2.5-3.7c-2.9,0-4.9,2.7-4.9,5.9V40h-4.3V25.8h-2.2v-3.7h3.8c1.2-0.2,2.3,0.5,2.6,1.7
	C168.3,24,168.3,24.2,168.3,24.4z M86.2,20.1c0.7,0,1.4,0.5,1.4,1.3c0,0.1,0,0.2,0,0.2v2.5h-2.5v-1.8h-2.2v13h-2.7V22.5H78v1.6h-2.4
	v-2.4c0-0.9,0.4-1.7,1.4-1.7h9.2V20.1z M92,25.6c0.9-1,2.1-1.5,3.4-1.5c2.6,0,3.8,1.5,3.8,4.4v4.8h1.6v2.3h-4.2v-6.6
	c0-1.4-0.3-2.2-1.6-2.2c-1.7,0-3,1.5-3,3.7v5.3h-2.6V22.5h-0.9v-2.4h3.6L92,25.6L92,25.6z M107.1,35.7c-3.1,0.1-5.6-2.4-5.7-5.5
	c0-0.1,0-0.3,0-0.4c0-3.5,2.3-5.9,5.4-5.9s4.7,2.4,4.7,5.3c0,0.3-0.1,1.1-0.1,1.1h-7.3c0.1,1.6,1.5,2.8,3.1,2.8
	c1.2,0,2.3-0.6,3.1-1.4l1.2,2.1c-0.1,0.2-0.3,0.3-0.5,0.4C109.9,35.2,108.6,35.7,107.1,35.7z M106.8,26.3c-1.2,0-2.3,0.8-2.5,2h4.6
	C108.9,27.2,107.9,26.3,106.8,26.3L106.8,26.3z M129.7,40.2c-7.2,0-12.4-5.8-12.4-13s5.3-12.7,12.2-12.7c2.9,0,9.3,1.1,9.3,5.3v3.5
	h-4.1v-2.4c0-1.8-3.8-2.2-5-2.2c-4.6,0-7.9,3.5-7.9,8.5c0,5.3,3.5,9,8.1,9c2.8,0.1,5.6-1.2,7.3-3.5l2.1,3
	C137.1,38.6,133.5,40.3,129.7,40.2z M150.8,40.6c-5.1,0.1-9.3-4-9.4-9.1c0-0.1,0-0.3,0-0.4c0-5.2,4.2-9.4,9.4-9.4
	c5.2,0,9.4,4.2,9.4,9.4c0.1,5.2-4,9.4-9.1,9.5C151,40.6,150.9,40.6,150.8,40.6L150.8,40.6z M150.8,25.6c-2.9,0-5.1,2.4-5.1,5.3
	c0,0.1,0,0.2,0,0.2c-0.2,2.9,2,5.3,4.9,5.5c0.1,0,0.2,0,0.2,0c2.9-0.1,5.2-2.5,5.1-5.4c0,0,0-0.1,0-0.1c0.2-2.9-2-5.3-4.8-5.5
	C151,25.6,150.9,25.6,150.8,25.6L150.8,25.6z M193.2,40.6c-5,0.2-9.2-3.8-9.4-8.8c0-0.2,0-0.4,0-0.6c0-5.6,4-9.5,9.2-9.5
	c2.5,0,7,1,7,4.5V28h-3.9v-1c0-1-2.3-1.3-3-1.3c-3,0-5,2.1-5,5.5c0,3.6,2.3,5.5,5.2,5.5c2.4,0,3.7-1.1,5.4-2.5l1.7,3.5
	C198.5,39.5,195.9,40.5,193.2,40.6L193.2,40.6z M211,40.6c-5.1,0.1-9.3-4-9.4-9.1c0-0.1,0-0.3,0-0.4c0-5.2,4.2-9.4,9.4-9.4
	c5.2,0,9.4,4.2,9.4,9.4c0.1,5.2-4,9.4-9.1,9.5C211.2,40.6,211.1,40.6,211,40.6L211,40.6z M211,25.6c-2.9,0-5.1,2.4-5.1,5.3
	c0,0.1,0,0.2,0,0.2c-0.2,2.9,2,5.3,4.9,5.5c0.1,0,0.2,0,0.2,0c2.9-0.1,5.2-2.5,5.1-5.4c0,0,0-0.1,0-0.1c0.2-2.9-2-5.3-4.8-5.5
	C211.2,25.6,211.1,25.6,211,25.6L211,25.6z M248.5,23.4v-4.3h-2v-3.7h6.2v21h2.3V40h-3.8c-1.1,0.1-2.2-0.6-2.5-1.7
	c-1.3,1.4-3.1,2.2-5,2.1c-4.8,0-7.7-4-7.7-9.4c0-5.7,3.2-9.4,8-9.4C245.7,21.7,247.3,22.3,248.5,23.4L248.5,23.4z M244.5,25.7
	c-2.2,0-4.2,1.8-4.2,5.5c0,3.5,1.8,5.5,4.1,5.5c2.1,0,4.2-1.5,4.2-5.5C248.6,28.1,247.1,25.7,244.5,25.7L244.5,25.7z M122.2,51
	c1.3-1.6,3.3-2.6,5.4-2.5c3.9,0,5.6,2.3,5.6,6.6v7.2h2.4v3.5h-4c-1.4,0-2.5-0.7-2.5-2v-8c0-2.2-0.4-3.5-2.3-3.5
	c-2.7,0-4.6,2.5-4.6,5.6v8h-4V52.4h-2.1v-3.5h3.6C121.3,48.9,122.2,49.6,122.2,51z M106.6,66.3c-4.9,0-8.9-3.9-9-8.8
	c0-4.9,3.9-8.9,8.8-9c4.9,0,8.9,3.9,9,8.8c0,0,0,0.1,0,0.1c0.1,4.8-3.8,8.8-8.6,8.9C106.8,66.3,106.7,66.3,106.6,66.3z M106.6,52.3
	c-2.7,0.1-4.8,2.3-4.7,4.9c0,0.1,0,0.1,0,0.2c0,3,2.1,5.2,4.7,5.2s4.7-2.2,4.7-5.2C111.5,54.7,109.4,52.4,106.6,52.3
	C106.7,52.3,106.7,52.3,106.6,52.3L106.6,52.3z M142.7,66.3c-2.4-0.1-4.7-1.3-6.3-3.2l2.2-2.7c1,1.4,2.5,2.2,4.2,2.3
	c1.7,0,2.6-0.7,2.6-1.5c0-1.4-2.5-2-3.5-2.3c-2.2-0.8-5.1-2-5.1-5.4c0-3.7,3.5-5,6.2-5c2.1,0,5.8,0.9,5.8,3.8V54h-3.6v-0.8
	c0-0.4-0.7-1.1-2.2-1.1s-2.2,0.6-2.2,1.3c0,1.3,2.3,1.9,3.2,2.2c2.3,0.8,5.4,1.9,5.4,5.3C149.4,64.6,146.3,66.3,142.7,66.3z
	 M160.4,66.3c-4.9,0-8.9-3.9-9-8.8c0-4.9,3.9-8.9,8.8-9c4.9,0,8.9,3.9,9,8.8c0,0,0,0.1,0,0.1c0.1,4.8-3.8,8.8-8.6,8.9
	C160.6,66.3,160.5,66.3,160.4,66.3z M160.4,52.3c-2.7,0.1-4.8,2.3-4.7,4.9c0,0.1,0,0.1,0,0.2c0,3,2.1,5.2,4.7,5.2s4.7-2.2,4.7-5.2
	c0.2-2.6-1.8-4.9-4.4-5.1C160.7,52.3,160.5,52.3,160.4,52.3L160.4,52.3z M176.9,52.1c0.5-1.2,2.5-3.3,4.3-3.3c0.4,0,1.3,0.1,1.3,0.1
	V53c-0.5-0.1-0.9-0.2-1.4-0.2c-2.8,0-4.1,2.9-4.1,6v7.1h-4V52.4h-2.5v-3.5h4c1.4,0,2.5,0.7,2.5,2C176.9,51.3,176.9,51.7,176.9,52.1
	L176.9,52.1z M192.1,66.1c-2,0-6.4-0.7-6.4-6.5v-7.2h-2.2v-3.5h2.2v-4.4h3.9v4.4h3.7v3.5h-3.7v6.9c0,2.7,1.7,3,2.7,3
	c0.4,0,1.2-0.1,1.2-0.1v3.7C193.1,66,192.6,66.1,192.1,66.1z M202.4,46.8h-4.1v-4.2h4.1V46.8z M204.3,65.9h-4.2
	c-1,0-1.8-0.8-1.8-2.5v-11h-2.5v-3.5h4.1c1.2-0.1,2.3,0.7,2.4,1.9c0,0.2,0,0.4,0,0.6v10.9h2V65.9z M218.7,63.9
	c-1.3,1.6-3.3,2.5-5.3,2.4c-3.7,0-5.6-2.2-5.6-6.6v-7.3h-2.1v-3.5h4.1c1.1,0,2,0.9,2,1.9V59c0,2.1,0.4,3.5,2.3,3.5
	c2.6,0,4.4-2.6,4.4-5.7v-7.9h4v13.4c0,0.1,0,0.1,0.1,0.1h1.9v3.4H221c-1.1,0.2-2.1-0.6-2.3-1.7C218.7,64,218.7,63.9,218.7,63.9
	L218.7,63.9z M232.7,51.1c1.2-1.5,3-2.5,4.9-2.5c2.3,0,3.9,0.9,4.7,2.9c1.2-1.8,3.2-2.9,5.4-2.9c3.8,0,5.5,2.3,5.5,6.6v7.2h1.9v3.4
	h-6v-10c0-2.2-0.4-3.5-2.2-3.5c-2.4,0-4,2.6-4,5.7v7.8h-4V55.8c0-2.1-0.3-3.5-2.1-3.5c-2.4,0-4.1,2.7-4.1,5.8v7.7h-4V52.4h-2.5v-3.5
	h4c1.2-0.2,2.3,0.6,2.5,1.8C232.7,50.9,232.7,51,232.7,51.1L232.7,51.1z M86.9,66.2c-6.7,0-11.6-5.4-11.6-12.2s5-11.9,11.5-11.9
	c2.7,0,8.7,1,8.7,5v3.2h-3.9v-2.3c0-1.7-3.6-2.1-4.7-2.1c-4.3,0-7.4,3.2-7.4,7.9c0,5,3.2,8.4,7.6,8.4c2.7,0.1,5.2-1.1,6.8-3.2l2,2.8
	C95.9,61.9,93.4,66.2,86.9,66.2z"/>
</svg>
