<svg id="Layer_1" data-name="Layer 1" xmlns="http://www.w3.org/2000/svg" viewBox="0 0 339.13 107.7"><defs><style>.cls-1,.cls-8{fill:#e75300;}.cls-2{fill:#ad441d;}.cls-10,.cls-2,.cls-3,.cls-5,.cls-7,.cls-8,.cls-9{fill-rule:evenodd;}.cls-3{fill:#ffd26c;}.cls-4{fill:#fff;}.cls-5{fill:#ffc656;}.cls-10,.cls-6{fill:#00758d;}.cls-7{fill:#231f20;}.cls-9{fill:none;stroke:#fff;stroke-miterlimit:3.86;}</style></defs><title>Artboard 1</title><path class="cls-1" d="M85.25,39.6C91.1,43.68,96.66,50,96.47,53.34c-.11,2-7.31,9.12-15.35,11.93C83,72.15,83.19,80.54,80.88,83c-1.28,1.36-10.51,2.21-18.27-.32A21.52,21.52,0,0,0,63.45,77c.27-9.17,12.16-15.19,12.16-31.34,0-15.19-15.06-26.28-27.37-26.28S20.86,30.49,20.86,45.68C20.86,61.83,32.75,67.86,33,77a19.88,19.88,0,0,0,1.05,6.25c-6.2,2.63-13.5,4-16.13,2.24-1.64-1.07-4.25-10.89-2.66-19.26C8.4,64.41,1,60.41.05,57.18-.52,55.3,3.8,46.1,10.4,40.71,6.3,34.88,3.22,27.07,4.55,24c.77-1.8,10-6.07,18.51-6,.61-7.11,3.28-15.06,6.29-16.59,1.75-.89,11.56,1.77,18,7.33C52.39,3.7,59.55-.68,62.84.09c1.91.45,7.72,8.78,9.08,17.19,7.1-.63,15.4.61,17.42,3.31C90.52,22.16,89.61,32.28,85.25,39.6Z"/><path class="cls-2" d="M57.92,56.58c5.9.6,11.91-4.17,18-.68,2.25,1.3,4.06,5,5.23,9.37a17,17,0,0,1-8.36,1C67.76,65.39,61.86,60.76,57.92,56.58ZM34.42,50.5c-3.47,4.81-2.34,12.4-8.4,15.9-2.25,1.3-6.39,1-10.73-.15a17,17,0,0,1,3.35-7.72C21.87,54.62,28.82,51.82,34.42,50.5Zm.75-9.56c-5.75,1.45-9.77,8-16.65,6.78-2.55-.45-5.54-3.34-8.12-7A17,17,0,0,1,17.92,37C22.91,36,30,38.36,35.17,40.95Zm6.72-6.84C36.55,31.52,29.27,34,24.77,28.6c-1.67-2-2.1-6.12-1.71-10.59a17,17,0,0,1,8.18,2C35.65,22.46,39.62,28.83,41.89,34.11Zm9.54-.92C49,27.78,41.86,25,41.86,18c0-2.59,2.33-6,5.5-9.21a17,17,0,0,1,5,6.76C54.14,20.26,53.09,27.69,51.43,33.19ZM61.89,47.86C66.8,44.53,68.34,37,75.22,35.79c2.55-.45,6.35,1.24,10,3.81a17,17,0,0,1-5.79,6.11C75.1,48.28,67.6,48.53,61.89,47.86Zm10-30.58a17,17,0,0,1-.51,8.4c-1.7,4.78-7.28,9.79-12.08,12.94,1.62-5.7-2-12.46,2.45-17.81C63.45,18.82,67.45,17.68,71.92,17.28Z"/><path class="cls-3" d="M38,87.08A5.54,5.54,0,0,1,35,84.9,15.36,15.36,0,0,1,33,77c-.27-9.17-12.16-15.19-12.16-31.34,0-15.19,15.06-26.28,27.37-26.28S75.61,30.49,75.61,45.68c0,16.15-11.89,22.17-12.16,31.34-.12,3.91-.95,6.43-2.12,8.12a5.54,5.54,0,0,1-2.58,2l-.28,0H38Z"/><path class="cls-4" d="M53.61,49.67c.41-.58,3.38.2,6.12-.73a9,9,0,0,0,2.16-1.08c-4.3-.51-7.59-1.55-7.74-2.53-.06-.71,2.72-2,4.22-4.49a9,9,0,0,0,1-2.22c-3.62,2.38-6.81,3.69-7.55,3-.5-.5.78-3.3.34-6.15a9,9,0,0,0-.69-2.32c-1.25,4.15-2.84,7.2-3.83,7.19-.71-.06-1.52-3-3.69-4.93a9,9,0,0,0-2-1.33c1.71,4,2.45,7.35,1.68,8-.58.41-3.11-1.34-6-1.41a9,9,0,0,0-2.4.28c3.87,2,6.6,4.05,6.41,5-.18.69-3.25,1-5.5,2.78a9,9,0,0,0-1.66,1.76c4.22-1,7.66-1.14,8.14-.27.3.64-1.86,2.83-2.43,5.66A9,9,0,0,0,40,58.31c2.59-3.47,5.14-5.8,6.06-5.44.64.3.39,3.37,1.78,5.9a9,9,0,0,0,1.44,1.94c-.24-4.33.21-7.74,1.14-8.06.69-.18,2.47,2.33,5.15,3.37a9,9,0,0,0,2.35.56C54.95,53.42,53.1,50.51,53.61,49.67Z"/><path class="cls-5" d="M60.07,81.7a19.56,19.56,0,0,1-2.23-1.18,14.46,14.46,0,0,1-3.41-2.88c-3.29-3.86-4.84-11.2-5.17-16.93,4.13,4.25,11.81,4.46,14.2,11a4.86,4.86,0,0,1,.19.66L64,73.8A11.67,11.67,0,0,0,63.45,77a21.41,21.41,0,0,1-.85,5.72A26.36,26.36,0,0,1,60.07,81.7ZM40,58.31c.43,5.91,6.18,11,3.79,17.58-.67,1.85-2.77,3.69-5.51,5.31-.88.52-1.82,1-2.81,1.47l-1.37.62A19.84,19.84,0,0,1,33,77c0-.2,0-.41,0-.61,0-.71,0-1.26.07-1.82a12.6,12.6,0,0,1,.11-1.73C33.79,68.1,36.92,62.4,40,58.31ZM69.27,29.58a39.8,39.8,0,0,1-9.94,9c1.43-5-1.27-10.92,1.21-15.92A31,31,0,0,1,69.27,29.58ZM61.89,47.86c4.49-3,6.16-9.6,11.68-11.63a23.05,23.05,0,0,1,2,9.45q0,.8,0,1.57A39.39,39.39,0,0,1,61.89,47.86ZM51.43,33.19c-2.14-4.78-8-7.54-9.3-12.95a23.79,23.79,0,0,1,6.11-.84,23.2,23.2,0,0,1,5,.57A40,40,0,0,1,51.43,33.19Zm-9.54.92c-4.66-2.26-10.81-.69-15.28-3.82a30.74,30.74,0,0,1,8.49-7.12A40.64,40.64,0,0,1,41.89,34.11Zm-6.72,6.84c-5,1.27-8.75,6.46-14.23,6.9q-.07-1.05-.07-2.16a23,23,0,0,1,1.76-8.79A40.18,40.18,0,0,1,35.17,40.95Zm-.75,9.56c-3.12,4.32-2.53,10.89-6.76,14.71a43.32,43.32,0,0,1-5.22-9.91A40.62,40.62,0,0,1,34.42,50.5Zm23.5,6.08c5.32.54,10.73-3.29,16.19-1.48A42.17,42.17,0,0,1,69,65,39.08,39.08,0,0,1,57.92,56.58Z"/><path class="cls-6" d="M58.47,96.25v1.38a2,2,0,0,1,0,3.89l-6.75,1.76a2,2,0,0,1,.72,1.57,1.87,1.87,0,0,1-1.77,1.95H45.81A1.87,1.87,0,0,1,44,104.85a2,2,0,0,1,1-1.76l-7-1.57a2,2,0,0,1,0-3.89H54.45v-.42L38,96.25a2,2,0,0,1,0-3.89H54.45v-.41L38,91a2,2,0,0,1,0-3.89H58.47a2,2,0,0,1,0,3.89H58.3v1.38h.18a2,2,0,0,1,0,3.89Z"/><path class="cls-7" d="M303.64,26.91c.67-1.67,3.46-4.51,6-4.51a15.13,15.13,0,0,1,1.79.2v5.6a12.46,12.46,0,0,0-1.92-.33c-3.87,0-5.75,3.92-5.75,8v9.54h-5.56v-18a.49.49,0,0,0,0-.17.55.55,0,0,0-.16,0h-2.9V22.65h5c1.89,0,3.49.95,3.49,2.79C303.67,25.63,303.63,26.71,303.64,26.91Zm-79.18-1.4A9.74,9.74,0,0,1,232,22.14c5.4,0,7.81,3.19,7.81,8.91v9.61a.49.49,0,0,0,0,.17.55.55,0,0,0,.16,0h2.76v4.63h-5c-1.89,0-3.46-.95-3.46-2.79V32c0-3-.56-4.61-3.27-4.61-3.76,0-6.38,3.45-6.38,7.44V45.44H219v-18a.5.5,0,0,0,0-.17.55.55,0,0,0-.16,0h-2.76V22.65H221C223.13,22.65,224.37,23.62,224.46,25.51ZM116.73,20.11a1.78,1.78,0,0,1,1.83,1.94v3.27h-3.21V23.19h-3v16.4h-3.55V23.19h-3v2.14H102.7V22.24c0-1.14.51-2.12,1.84-2.12ZM124.29,27a6,6,0,0,1,4.48-2c3.43,0,5,2,5,5.56V36.7h2.08v2.89h-5.54v-8.4c0-1.84-.37-2.88-2.06-2.88-2.29,0-4,1.94-4,4.59v6.69h-3.46l0-16.59H119.6V20.11h4.69Zm19.91,12.88a7.23,7.23,0,0,1-7.5-7.43c0-4.48,3.06-7.43,7.11-7.43S150,28.12,150,31.75c0,.36-.13,1.43-.13,1.43h-9.63a4,4,0,0,0,4.1,3.6A6,6,0,0,0,148.45,35L150,37.7s-.41.38-.67.57A8.73,8.73,0,0,1,144.21,39.91ZM143.76,28a3.37,3.37,0,0,0-3.32,2.63h6A2.68,2.68,0,0,0,143.76,28Zm30,17.54c-9.42,0-16.22-7.26-16.22-16.39a15.73,15.73,0,0,1,16-16c3.84,0,12.15,1.4,12.15,6.68v4.39h-5.43V21.1c0-2.27-5-2.86-6.55-2.86-6,0-10.37,4.36-10.37,10.75,0,6.71,4.54,11.39,10.62,11.39a11.64,11.64,0,0,0,9.53-4.42l2.78,3.86S182.88,45.54,173.78,45.54Zm27.76.49a12,12,0,0,1-12.32-12c0-6.93,5.54-11.94,12.32-11.94s12.32,5,12.32,11.94A12,12,0,0,1,201.54,46Zm0-18.91A6.62,6.62,0,0,0,194.9,34a6.65,6.65,0,1,0,13.27,0A6.65,6.65,0,0,0,201.54,27.12ZM257.13,46c-6.53,0-12.32-4.55-12.32-11.94a11.77,11.77,0,0,1,12.11-12c3.3,0,9.14,1.26,9.14,5.62v2.38h-5.13V28.84c0-1.28-3-1.72-3.88-1.72-3.89,0-6.55,2.69-6.55,6.89a6.56,6.56,0,0,0,6.81,7c3.1,0,4.89-1.42,7.12-3.14l2.24,4.3A13.74,13.74,0,0,1,257.13,46Zm23.45,0a12,12,0,0,1-12.32-12c0-6.93,5.54-11.94,12.32-11.94s12.32,5,12.32,11.94A12,12,0,0,1,280.58,46Zm0-18.91A6.62,6.62,0,0,0,273.94,34a6.65,6.65,0,1,0,13.27,0A6.65,6.65,0,0,0,280.58,27.12Zm49.15-2.92V18.77h-2.57V14.11h8.17V40.67a.5.5,0,0,0,0,.17.55.55,0,0,0,.17,0h2.9v4.66h-5c-1.9,0-3-.85-3.32-2.2a8.79,8.79,0,0,1-6.56,2.7c-6.31,0-10.11-5.05-10.11-12,0-7.14,4.23-12,10.49-12A9.13,9.13,0,0,1,329.73,24.21Zm-5.2,3c-2.93,0-5.45,2.32-5.45,6.89,0,4.42,2.31,6.93,5.32,6.93,2.72,0,5.45-1.9,5.45-6.89C329.85,30.31,328,27.16,324.53,27.16ZM164,59.29a9.18,9.18,0,0,1,7.1-3.18c5.09,0,7.37,3,7.37,8.4v9.06a.46.46,0,0,0,0,.16l.16,0h3.07v4.37h-5.22c-1.78,0-3.26-.89-3.26-2.63V65.39c0-2.8-.53-4.35-3.08-4.35-3.55,0-6,3.25-6,7v10h-5.24V61.14a.47.47,0,0,0,0-.16l-.16,0h-2.6V56.59h4.66C162.79,56.59,164,57.51,164,59.29ZM143.45,78.56A11.22,11.22,0,0,1,131.92,67.3c0-6.49,5.19-11.18,11.54-11.18S155,60.8,155,67.3A11.22,11.22,0,0,1,143.45,78.56Zm0-17.72a6.5,6.5,0,0,0,0,13,6.5,6.5,0,0,0,0-13Zm47.49,17.72c-5,0-8.28-4-8.28-4l2.93-3.52a7.24,7.24,0,0,0,5.47,3c2.24,0,3.36-.88,3.36-1.89,0-1.74-3.26-2.54-4.55-3-2.87-1.07-6.73-2.56-6.73-6.77,0-4.61,4.57-6.26,8.12-6.26,2.77,0,7.65,1.11,7.65,4.75V63h-4.76V62c0-.55-.88-1.37-2.84-1.37s-2.88.75-2.88,1.73c0,1.65,3,2.48,4.18,2.88,3,1,7.11,2.42,7.11,6.74S195.65,78.56,190.95,78.56Zm23.2,0A11.22,11.22,0,0,1,202.61,67.3c0-6.49,5.19-11.18,11.54-11.18s11.54,4.69,11.54,11.18A11.22,11.22,0,0,1,214.15,78.56Zm0-17.72a6.5,6.5,0,0,0,0,13,6.5,6.5,0,0,0,0-13Zm21.58-.23c.63-1.57,3.27-4.25,5.67-4.25a14.26,14.26,0,0,1,1.69.19v5.28a11.75,11.75,0,0,0-1.81-.31c-3.65,0-5.42,3.7-5.42,7.57v9h-5.24V61.14a.46.46,0,0,0,0-.16l-.15,0h-3.2V56.59h5.22c1.78,0,3.3.89,3.3,2.63C235.75,59.41,235.72,60.43,235.73,60.61Zm20,17.63c-2.63,0-8.36-.86-8.36-8.2V61H244.5V56.59h2.94V51.07h5.16v5.52h4.81V61H252.6v8.72c0,3.52,2.25,3.91,3.6,3.91.51,0,1.61-.12,1.61-.12v4.59A17.75,17.75,0,0,1,255.72,78.24ZM269.21,54h-5.44V48.65h5.44Zm2.52,24.11h-5.56c-1.31,0-2.32-1-2.32-3.27V61h-3.34V56.59H266c3,0,3.13,2.16,3.13,3.24V73.72h2.64Zm19-2.63a9,9,0,0,1-7,3.11c-4.8,0-7.29-2.78-7.29-8.4V61h-2.73V56.59h5.4A2.53,2.53,0,0,1,281.68,59V69.37c0,2.75.52,4.31,3.08,4.31,3.47,0,5.82-3.36,5.82-7.13v-10h5.25v17c0,.17,0,.18.18.18h2.5v4.33h-4.56C292,78.08,290.82,77.15,290.71,75.45ZM309,59.27a8.75,8.75,0,0,1,6.42-3.15c3,0,5.08,1.21,6.11,3.76a8.75,8.75,0,0,1,7-3.76c4.94,0,7.25,3,7.25,8.4v9.2h2.5v4.37h-7.74V65.35c0-2.84-.51-4.35-2.84-4.35-3.18,0-5.22,3.29-5.22,7.13v9.95H317.3V65.35c0-2.69-.42-4.35-2.8-4.35-3.21,0-5.34,3.48-5.34,7.29v9.79h-5.24v-17a.29.29,0,0,0,0-.12l-.16,0h-3.16V56.59h5.22C307.72,56.59,308.93,57.5,309,59.27ZM117.69,78.44A15,15,0,0,1,102.5,63.08a14.73,14.73,0,0,1,15-15c3.6,0,11.38,1.31,11.38,6.26v4.11h-5.08V55.54c0-2.13-4.7-2.68-6.14-2.68-5.6,0-9.71,4.08-9.71,10.07,0,6.29,4.26,10.67,10,10.67a10.9,10.9,0,0,0,8.93-4.14l2.6,3.61S126.22,78.44,117.69,78.44Z"/><path class="cls-8" d="M256.51,105.35a1.47,1.47,0,0,1-.35-2.22l.8-1.3c.56-.92,1.3-1,2.22-.41a6,6,0,0,0,3,.89c1.39,0,3-.72,3-2.46s-1.45-2.39-3.37-2.39a4.81,4.81,0,0,0-1.59.27,3.1,3.1,0,0,1-2.19,0l-.33-.12a1.72,1.72,0,0,1-1.21-1.92V87.64A1.39,1.39,0,0,1,258,86.07h9.22a1.42,1.42,0,0,1,1.61,1.35,2.41,2.41,0,0,1,0,.44v3.33a1.45,1.45,0,0,1-1.63,1.63H266a1.45,1.45,0,0,1-1.63-1.63V90.5h-3.17v2.78a8.05,8.05,0,0,1,1.6-.21c5,0,7.57,2.9,7.57,6.71,0,4.37-3.22,7.4-7.83,7.4A10.49,10.49,0,0,1,256.51,105.35Zm-7.26-2.58V102a1.45,1.45,0,0,1,1.63-1.63h1.18a1.45,1.45,0,0,1,1.63,1.63v3.53a1.45,1.45,0,0,1-1.63,1.63H241.49a1.57,1.57,0,0,1-1.74-1.63v-.65c0-7.8,9.13-9.19,9.13-12.24a2.09,2.09,0,0,0-2.28-2.1,3.16,3.16,0,0,0-2.25,1c-.74.71-1.51,1-2.31.35l-1.15-.92c-.83-.65-1-1.39-.41-2.19a8,8,0,0,1,6.59-3.16c3.46,0,7.21,2,7.21,6.47,0,6.59-8.54,7.86-8.81,10.58Z"/><path class="cls-9" d="M256.51,105.35a1.47,1.47,0,0,1-.35-2.22l.8-1.3c.56-.92,1.3-1,2.22-.41a6,6,0,0,0,3,.89c1.39,0,3-.72,3-2.46s-1.45-2.39-3.37-2.39a4.81,4.81,0,0,0-1.59.27,3.1,3.1,0,0,1-2.19,0l-.33-.12a1.72,1.72,0,0,1-1.21-1.92V87.64A1.39,1.39,0,0,1,258,86.07h9.22a1.42,1.42,0,0,1,1.61,1.35,2.41,2.41,0,0,1,0,.44v3.33a1.45,1.45,0,0,1-1.63,1.63H266a1.45,1.45,0,0,1-1.63-1.63V90.5h-3.17v2.78a8.05,8.05,0,0,1,1.6-.21c5,0,7.57,2.9,7.57,6.71,0,4.37-3.22,7.4-7.83,7.4A10.49,10.49,0,0,1,256.51,105.35Zm-7.26-2.58V102a1.45,1.45,0,0,1,1.63-1.63h1.18a1.45,1.45,0,0,1,1.63,1.63v3.53a1.45,1.45,0,0,1-1.63,1.63H241.49a1.57,1.57,0,0,1-1.74-1.63v-.65c0-7.8,9.13-9.19,9.13-12.24a2.09,2.09,0,0,0-2.28-2.1,3.16,3.16,0,0,0-2.25,1c-.74.71-1.51,1-2.31.35l-1.15-.92c-.83-.65-1-1.39-.41-2.19a8,8,0,0,1,6.59-3.16c3.46,0,7.21,2,7.21,6.47,0,6.59-8.54,7.86-8.81,10.58Z"/><path class="cls-10" d="M329.67,102.62a7.86,7.86,0,0,0,4.55,1.5c3.11,0,4.9-2,4.9-4.38,0-4.72-6.91-4-6.91-6.78,0-1,.88-1.67,2.25-1.67a4.85,4.85,0,0,1,2.57.81c.44.23.88.31,1.19-.29l.38-.69a.82.82,0,0,0-.27-1.19,6.89,6.89,0,0,0-3.82-1.13c-2.82,0-5,1.69-5,4.3,0,4.61,6.91,4,6.91,6.85,0,1-.83,1.69-2.21,1.69a5.2,5.2,0,0,1-3-1.09c-.52-.29-.88-.27-1.21.19l-.46.67A.78.78,0,0,0,329.67,102.62Zm-11-6.62V91.37h2a3.71,3.71,0,0,1,1.61.25,2,2,0,0,1,1.17,2A2.18,2.18,0,0,1,321.08,96ZM316,103a.77.77,0,0,0,.86.88h1a.77.77,0,0,0,.86-.88V98.34h2.59l2.61,4.92a1.06,1.06,0,0,0,1,.61H326c.69,0,1-.44.61-1l-2.44-4.47a5.35,5.35,0,0,0-.48-.77,4.39,4.39,0,0,0,2.46-4.09,4.12,4.12,0,0,0-2.48-4,6.78,6.78,0,0,0-2.82-.4h-4a.78.78,0,0,0-.86.88Zm-11.41-5.11,1.34-4c.25-.83.58-2.3.58-2.3s.38,1.46.63,2.3l1.31,4Zm-4.34,5c-.21.61.06,1,.71,1h1a.93.93,0,0,0,1-.73l1-3.07h5.2l1,3.09a.93.93,0,0,0,1,.71h1c.65,0,.92-.4.71-1l-4.63-13.11a.93.93,0,0,0-1-.71h-1.34a.94.94,0,0,0-1,.71Zm-11.39.13a.77.77,0,0,0,.86.88h7.47a.78.78,0,0,0,.88-.88v-.58a.78.78,0,0,0-.88-.86h-5.66v-4h4.13a.78.78,0,0,0,.88-.88V96.1a.78.78,0,0,0-.88-.86h-4.13V91.37h5.32a.78.78,0,0,0,.88-.86v-.58a.79.79,0,0,0-.88-.88h-7.14a.78.78,0,0,0-.86.88Zm-10.24,0a.77.77,0,0,0,.88.88h.94a.77.77,0,0,0,.86-.88V97.67l4.36-7.58c.33-.58.08-1-.61-1h-1.17a1,1,0,0,0-1,.65l-2,3.71c-.46.92-.9,2-.9,2s-.48-1.06-.94-2l-2-3.71a1,1,0,0,0-1-.65h-1.17c-.67,0-.94.46-.58,1l4.34,7.58Z"/><path class="cls-10" d="M220.48,96.52a7.3,7.3,0,0,0,7.28,7.6,6,6,0,0,0,4.34-1.67s0,.17,0,.35v.35c0,.42.29.71.86.71h.52a.77.77,0,0,0,.86-.88V96.94a.77.77,0,0,0-.86-.88h-3a.78.78,0,0,0-.88.88v.56a.79.79,0,0,0,.88.88H232V100a5,5,0,0,1-8.7-3.63,4.83,4.83,0,0,1,5-5.13,6.29,6.29,0,0,1,3.3.92c.52.29.9.25,1.21-.23l.38-.58a.79.79,0,0,0-.19-1.21,8.89,8.89,0,0,0-4.84-1.36A7.47,7.47,0,0,0,220.48,96.52ZM204.71,103a.77.77,0,0,0,.86.88h1a.77.77,0,0,0,.86-.88V95.33c0-.88-.15-2.3-.15-2.3s.73,1.42,1.27,2.3l5.28,8a1.06,1.06,0,0,0,1,.58h1.13a.78.78,0,0,0,.88-.88V89.93a.79.79,0,0,0-.88-.88H215a.79.79,0,0,0-.88.88v7.68c0,.88.15,2.3.15,2.3s-.71-1.42-1.27-2.3l-5.26-8a1.05,1.05,0,0,0-1-.58h-1.13a.78.78,0,0,0-.86.88Zm-7.24,0a.77.77,0,0,0,.86.88h1a.77.77,0,0,0,.86-.88V89.93a.78.78,0,0,0-.86-.88h-1a.78.78,0,0,0-.86.88ZM187,103a.77.77,0,0,0,.86.88h.94a.77.77,0,0,0,.88-.88V91.37h4a.76.76,0,0,0,.86-.86v-.58a.78.78,0,0,0-.86-.88H183a.78.78,0,0,0-.88.88v.58a.77.77,0,0,0,.88.86h4Zm-13.35-5.11,1.34-4c.25-.83.58-2.3.58-2.3s.38,1.46.63,2.3l1.31,4Zm-4.34,5c-.21.61.06,1,.71,1h1a.93.93,0,0,0,1-.73l1-3.07h5.2l1,3.09a.93.93,0,0,0,1,.71h1c.65,0,.92-.4.71-1l-4.63-13.11a.93.93,0,0,0-1-.71H174.9a1,1,0,0,0-1,.71ZM159.13,96V91.37h2a3.71,3.71,0,0,1,1.61.25,2,2,0,0,1,1.17,2A2.18,2.18,0,0,1,161.55,96Zm-2.67,7a.77.77,0,0,0,.86.88h1a.77.77,0,0,0,.86-.88V98.34h2.59l2.61,4.92a1.06,1.06,0,0,0,1,.61h1.13c.69,0,1-.44.61-1l-2.44-4.47a5.35,5.35,0,0,0-.48-.77,4.39,4.39,0,0,0,2.46-4.09,4.12,4.12,0,0,0-2.48-4,6.78,6.78,0,0,0-2.82-.4h-4a.78.78,0,0,0-.86.88ZM145,101.55V97.27h2.88a2.14,2.14,0,1,1,0,4.28Zm0-6.45V91.37h2.57a1.71,1.71,0,0,1,1.88,1.84,1.75,1.75,0,0,1-1.82,1.9ZM142.3,103a.77.77,0,0,0,.86.88h4.49c2.75,0,5.11-1.34,5.11-4.3a3.47,3.47,0,0,0-2.38-3.49,3.62,3.62,0,0,0,1.79-3.21c0-2.44-1.92-3.82-4.59-3.82h-4.42a.78.78,0,0,0-.86.88Zm-12.77,0a.77.77,0,0,0,.86.88h7.47a.78.78,0,0,0,.88-.88v-.58a.78.78,0,0,0-.88-.86H132.2v-4h4.13a.78.78,0,0,0,.88-.88V96.1a.78.78,0,0,0-.88-.86H132.2V91.37h5.32a.78.78,0,0,0,.88-.86v-.58a.79.79,0,0,0-.88-.88h-7.14a.78.78,0,0,0-.86.88Zm-12,0a.77.77,0,0,0,.86.88h7.35a.77.77,0,0,0,.88-.88v-.58a.77.77,0,0,0-.88-.86h-5.53V89.93a.78.78,0,0,0-.86-.88h-1a.78.78,0,0,0-.86.88Zm-12.77,0a.77.77,0,0,0,.86.88h7.47A.78.78,0,0,0,114,103v-.58a.78.78,0,0,0-.88-.86h-5.66v-4h4.13a.78.78,0,0,0,.88-.88V96.1a.78.78,0,0,0-.88-.86h-4.13V91.37h5.32a.78.78,0,0,0,.88-.86v-.58a.79.79,0,0,0-.88-.88H105.6a.78.78,0,0,0-.86.88ZM88,96.4a7.38,7.38,0,0,0,7.66,7.72,8.31,8.31,0,0,0,5.24-1.84.81.81,0,0,0,.13-1.21l-.42-.56a.76.76,0,0,0-1.21-.15,6.21,6.21,0,0,1-3.63,1.29c-3.19,0-5-2.53-5-5.3a4.78,4.78,0,0,1,5-5.09,6.17,6.17,0,0,1,3.34,1c.5.31.9.27,1.19-.21l.38-.61a.81.81,0,0,0-.17-1.21,8.27,8.27,0,0,0-4.84-1.48A7.39,7.39,0,0,0,88,96.4Z"/></svg>