<svg id="Layer_1" data-name="Layer 1" xmlns="http://www.w3.org/2000/svg" viewBox="0 0 255.13 91.19"><defs><style>.cls-1{fill:#e75300;}.cls-2{fill:#ad441d;}.cls-3{fill:#ffd26c;}.cls-4{fill:#fff;}.cls-5{fill:#ffc656;}.cls-6{fill:#00758d;}.cls-7{fill:#231f20;}.cls-8{fill:#0592af;}</style></defs><title>concord-logo</title><path class="cls-1" d="M62.4,29.54c4.3,3.15,8.4,7.92,8.2,10.46-.1,1.52-5.4,6.9-11.2,9,1.4,5.28,1.5,11.58-.2,13.5-.9,1-7.7,1.73-13.4-.2a16.11,16.11,0,0,0,.6-4.26c.2-7,8.9-11.58,8.9-23.86,0-11.58-11-20-20.1-20s-20.1,8.43-20.1,20c0,12.29,8.7,16.86,8.9,23.86a15.19,15.19,0,0,0,.8,4.77c-4.5,2-9.9,3-11.8,1.73-1.2-.81-3.1-8.33-1.9-14.62C6.1,48.53.7,45.48-.1,43c-.4-1.42,2.7-8.43,7.6-12.49-3-4.47-5.3-10.36-4.3-12.69.6-1.42,7.3-4.57,13.6-4.57C17.2,7.91,19.2,1.82,21.4.7,22.7,0,29.9,2,34.6,6.29c3.7-3.86,8.9-7.21,11.3-6.6,1.4.3,5.7,6.7,6.7,13.1,5.2-.51,11.3.51,12.8,2.54C66.3,16.24,65.6,24,62.4,29.54Z" transform="translate(0.13 0.39)"/><path class="cls-2" d="M42.4,42.44c4.3.51,8.7-3.15,13.2-.51,1.6,1,3,3.86,3.8,7.11a11.54,11.54,0,0,1-6.1.71C49.6,49.14,45.3,45.58,42.4,42.44ZM25.2,37.76c-2.5,3.66-1.7,9.44-6.2,12.08-1.6,1-4.7.81-7.9-.1a13,13,0,0,1,2.5-5.89C16,40.91,21.1,38.78,25.2,37.76Zm.6-7.21c-4.2,1.12-7.2,6.09-12.2,5.18-1.9-.3-4.1-2.54-5.9-5.38a12.48,12.48,0,0,1,5.5-2.84C16.8,26.8,22,28.52,25.8,30.55Zm4.9-5.28c-3.9-1.93-9.2-.1-12.5-4.16-1.2-1.52-1.5-4.67-1.3-8a11.26,11.26,0,0,1,6,1.52C26.1,16.44,29,21.31,30.7,25.27Zm7-.61c-1.8-4.16-7-6.3-7-11.58,0-1.93,1.7-4.57,4-7a12.63,12.63,0,0,1,3.7,5.18C39.7,14.82,38.9,20.4,37.7,24.67Zm7.6,11.07c3.6-2.54,4.7-8.22,9.8-9.14,1.9-.3,4.7.91,7.3,2.94a13.47,13.47,0,0,1-4.2,4.67C55,36.14,49.5,36.34,45.3,35.73Zm7.4-23.25a13.73,13.73,0,0,1-.4,6.4c-1.2,3.66-5.3,7.41-8.9,9.85,1.2-4.37-1.5-9.44,1.8-13.5C46.5,13.7,49.4,12.79,52.7,12.48Z" transform="translate(0.13 0.39)"/><path class="cls-3" d="M27.8,65.59A3.86,3.86,0,0,1,25.7,64a12,12,0,0,1-1.5-6c-.2-7-8.9-11.58-8.9-23.86,0-11.58,11-20,20.1-20s20.1,8.43,20.1,20C55.5,46.4,46.8,51,46.6,58A11.49,11.49,0,0,1,45,64.16a4.73,4.73,0,0,1-1.9,1.52h-.2l-15.1-.1Z" transform="translate(0.13 0.39)"/><path class="cls-4" d="M39.3,37.16c.3-.41,2.5.1,4.5-.51a7.93,7.93,0,0,0,1.6-.81c-3.2-.41-5.6-1.22-5.7-1.93,0-.51,2-1.52,3.1-3.45a8.86,8.86,0,0,0,.7-1.73c-2.7,1.83-5,2.84-5.5,2.34s.6-2.54.3-4.67a8.68,8.68,0,0,0-.5-1.73c-.9,3.15-2.1,5.48-2.8,5.48-.5,0-1.1-2.34-2.7-3.76a13,13,0,0,0-1.5-1c1.3,3,1.8,5.58,1.2,6.09-.4.3-2.3-1-4.4-1.12a10.86,10.86,0,0,0-1.8.2c2.8,1.52,4.8,3,4.7,3.86-.1.51-2.4.71-4,2.13a4.94,4.94,0,0,0-1.2,1.32c3.1-.71,5.6-.91,6-.2.2.51-1.4,2.13-1.8,4.26a11.2,11.2,0,0,0-.1,1.83c1.9-2.64,3.8-4.37,4.4-4.16s.3,2.54,1.3,4.47a8.4,8.4,0,0,0,1.1,1.52c-.2-3.25.2-5.89.8-6.09s1.8,1.73,3.8,2.54a5.19,5.19,0,0,0,1.7.41C40.3,40,38.9,37.76,39.3,37.16Z" transform="translate(0.13 0.39)"/><path class="cls-5" d="M44,61.52c-.6-.3-1.1-.61-1.6-.91a10.46,10.46,0,0,1-2.5-2.23c-2.4-2.94-3.5-8.53-3.8-12.9,3,3.25,8.6,3.35,10.4,8.43a.93.93,0,0,1,.1.51l.3,1.12A10.34,10.34,0,0,0,46.5,58a24.12,24.12,0,0,1-.6,4.37C45.3,62.13,44.7,61.83,44,61.52ZM29.3,43.76c.3,4.47,4.5,8.33,2.8,13.4-.5,1.42-2,2.84-4,4.06A10.29,10.29,0,0,1,26,62.34a9.24,9.24,0,0,0-1,.51,18.77,18.77,0,0,1-.8-4.77V56.14a5.88,5.88,0,0,1,.1-1.32C24.8,51.17,27,46.8,29.3,43.76ZM50.7,21.92a28,28,0,0,1-7.3,6.9c1.1-3.86-.9-8.33.9-12.08A19.58,19.58,0,0,1,50.7,21.92ZM45.3,35.73c3.3-2.34,4.5-7.31,8.6-8.83a18.92,18.92,0,0,1,1.5,7.21v1.22A28.2,28.2,0,0,1,45.3,35.73ZM37.7,24.67C36.1,21,31.9,19,30.9,14.82a17.15,17.15,0,0,1,4.5-.61,15.87,15.87,0,0,1,3.7.41A34.37,34.37,0,0,1,37.7,24.67Zm-7,.61c-3.4-1.73-7.9-.51-11.2-2.94a20.94,20.94,0,0,1,6.2-5.38A32.24,32.24,0,0,1,30.7,25.27Zm-4.9,5.28c-3.7,1-6.4,4.87-10.4,5.28,0-.51-.1-1.12-.1-1.62a18.57,18.57,0,0,1,1.3-6.7A27.33,27.33,0,0,1,25.8,30.55Zm-.6,7.21c-2.3,3.25-1.8,8.33-5,11.17a34.94,34.94,0,0,1-3.8-7.51A33,33,0,0,1,25.2,37.76Zm17.2,4.67c3.9.41,7.9-2.54,11.9-1.12a32.72,32.72,0,0,1-3.8,7.51A31.07,31.07,0,0,1,42.4,42.44Z" transform="translate(0.13 0.39)"/><path class="cls-6" d="M42.8,72.59v1a1.46,1.46,0,0,1,1.3,1.52,1.3,1.3,0,0,1-1.3,1.42l-4.9,1.32a1.69,1.69,0,0,1,.5,1.22,1.46,1.46,0,0,1-1.3,1.52H33.5a1.56,1.56,0,0,1-.6-2.84l-5.1-1.22a1.54,1.54,0,0,1,0-3H39.9v-.3l-12.1-.71a1.54,1.54,0,0,1,0-3h12v-.3l-12-.71a1.54,1.54,0,0,1,0-3h15a1.54,1.54,0,0,1,0,3h-.1v1h.1A1.46,1.46,0,0,1,44.1,71C44.1,71.88,43.6,72.59,42.8,72.59Z" transform="translate(0.13 0.39)"/><path class="cls-7" d="M228.5,25.07c.5-1.32,2.6-3.55,4.6-3.55a8.67,8.67,0,0,1,1.4.2v4.47a7.42,7.42,0,0,0-1.5-.3c-2.9,0-4.4,3.15-4.4,6.4V39.8h-4.2V25.48H222V21.82h3.8c1.4,0,2.7.71,2.7,2.23ZM168.2,24a7.15,7.15,0,0,1,5.7-2.64c4.1,0,6,2.54,6,7V36h2.2v3.66h-3.8c-1.4,0-2.6-.71-2.6-2.23V29c0-2.34-.4-3.66-2.5-3.66-2.9,0-4.9,2.74-4.9,5.89v8.43H164V25.38h-2.2V21.72h3.8A2.19,2.19,0,0,1,168.2,24ZM86.1,19.69a1.35,1.35,0,0,1,1.4,1.52v2.54H85V22H82.8V35H80.1V22.13H77.9v1.62H75.5V21.31c0-.91.4-1.73,1.4-1.73h9.2Zm5.8,5.48a4.51,4.51,0,0,1,3.4-1.52c2.6,0,3.8,1.52,3.8,4.37v4.77h1.6v2.34H96.5v-6.6c0-1.42-.3-2.23-1.6-2.23-1.7,0-3,1.52-3,3.66v5.28H89.3V22.13h-.9V19.69H92v5.48ZM107,35.33a5.59,5.59,0,0,1-5.7-5.89c0-3.55,2.3-5.89,5.4-5.89s4.7,2.44,4.7,5.28c0,.3-.1,1.12-.1,1.12H104a3.13,3.13,0,0,0,3.1,2.84,4.45,4.45,0,0,0,3.1-1.42l1.2,2.13a2.74,2.74,0,0,1-.5.41A6.15,6.15,0,0,1,107,35.33Zm-.3-9.44a2.47,2.47,0,0,0-2.5,2h4.6A2.16,2.16,0,0,0,106.7,25.88ZM129.6,39.8c-7.2,0-12.4-5.79-12.4-13s5.3-12.69,12.2-12.69c2.9,0,9.3,1.12,9.3,5.28v3.45h-4.1V20.4c0-1.83-3.8-2.23-5-2.23-4.6,0-7.9,3.45-7.9,8.53,0,5.28,3.5,9,8.1,9a8.94,8.94,0,0,0,7.3-3.45l2.1,3A11.61,11.61,0,0,1,129.6,39.8Zm21.1.41a9.27,9.27,0,0,1-9.4-9.54,9.4,9.4,0,1,1,18.8,0A9.34,9.34,0,0,1,150.7,40.2Zm0-15a5.18,5.18,0,0,0-5.1,5.48,5.18,5.18,0,0,0,5.1,5.48,5.24,5.24,0,0,0,5.1-5.48A5.18,5.18,0,0,0,150.7,25.17Zm42.4,15a9.12,9.12,0,0,1-9.4-9.44c0-5.58,4-9.54,9.2-9.54,2.5,0,7,1,7,4.47v1.93H196v-1c0-1-2.3-1.32-3-1.32-3,0-5,2.13-5,5.48,0,3.55,2.3,5.48,5.2,5.48,2.4,0,3.7-1.12,5.4-2.54l1.7,3.45A10.59,10.59,0,0,1,193.1,40.2Zm17.8,0a9.27,9.27,0,0,1-9.4-9.54,9.4,9.4,0,1,1,18.8,0A9.34,9.34,0,0,1,210.9,40.2Zm0-15a5.18,5.18,0,0,0-5.1,5.48,5.18,5.18,0,0,0,5.1,5.48,5.24,5.24,0,0,0,5.1-5.48A5.18,5.18,0,0,0,210.9,25.17Zm37.5-2.23V18.67h-2V15h6.2V36h2.3v3.66h-3.8A2.3,2.3,0,0,1,248.6,38a6.67,6.67,0,0,1-5,2.13c-4.8,0-7.7-4-7.7-9.44,0-5.69,3.2-9.44,8-9.44A7,7,0,0,1,248.4,22.94Zm-4,2.34c-2.2,0-4.2,1.83-4.2,5.48,0,3.45,1.8,5.48,4.1,5.48,2.1,0,4.2-1.52,4.2-5.48C248.5,27.71,247,25.27,244.4,25.27ZM122.1,50.66a6.91,6.91,0,0,1,5.4-2.54c3.9,0,5.6,2.34,5.6,6.6v7.21h2.4v3.45h-4c-1.4,0-2.5-.71-2.5-2v-8c0-2.23-.4-3.45-2.3-3.45-2.7,0-4.6,2.54-4.6,5.58v8h-4V52H116V48.53h3.6C121.2,48.53,122.1,49.24,122.1,50.66ZM106.5,65.89A8.89,8.89,0,1,1,115.3,57,8.75,8.75,0,0,1,106.5,65.89Zm0-14A4.81,4.81,0,0,0,101.8,57c0,3,2.1,5.18,4.7,5.18S111.2,60,111.2,57A4.87,4.87,0,0,0,106.5,51.88Zm36.1,14a8.87,8.87,0,0,1-6.3-3.15L138.5,60a5.63,5.63,0,0,0,4.2,2.34c1.7,0,2.6-.71,2.6-1.52,0-1.42-2.5-2-3.5-2.34-2.2-.81-5.1-2-5.1-5.38,0-3.66,3.5-5,6.2-5,2.1,0,5.8.91,5.8,3.76V53.6h-3.6v-.81c0-.41-.7-1.12-2.2-1.12s-2.2.61-2.2,1.32c0,1.32,2.3,1.93,3.2,2.23,2.3.81,5.4,1.93,5.4,5.28C149.3,64.16,146.2,65.89,142.6,65.89Zm17.7,0A8.89,8.89,0,1,1,169.1,57,8.75,8.75,0,0,1,160.3,65.89Zm0-14A4.81,4.81,0,0,0,155.6,57c0,3,2.1,5.18,4.7,5.18S165,60,165,57A4.75,4.75,0,0,0,160.3,51.88Zm16.5-.2c.5-1.22,2.5-3.35,4.3-3.35.4,0,1.3.1,1.3.1v4.16a11.12,11.12,0,0,0-1.4-.2c-2.8,0-4.1,2.94-4.1,6v7.11h-4V52h-2.5V48.53h4c1.4,0,2.5.71,2.5,2A4.62,4.62,0,0,0,176.8,51.68Zm15.2,14c-2,0-6.4-.71-6.4-6.5V52h-2.2V48.53h2.2V44.16h3.9v4.37h3.7V52h-3.7v6.9c0,2.74,1.7,3,2.7,3,.4,0,1.2-.1,1.2-.1v3.66A4.05,4.05,0,0,1,192,65.69ZM202.3,46.4h-4.1V42.23h4.1Zm1.9,19.09H200c-1,0-1.8-.81-1.8-2.54V52h-2.5V48.53h4.1a2.19,2.19,0,0,1,2.4,2.54V62h2Zm14.4-2a6.64,6.64,0,0,1-5.3,2.44c-3.7,0-5.6-2.23-5.6-6.6V52h-2.1V48.53h4.1a2,2,0,0,1,2,1.93v8.12c0,2.13.4,3.45,2.3,3.45,2.6,0,4.4-2.64,4.4-5.69V48.43h4v13.4c0,.1,0,.1.1.1h1.9v3.45h-3.5A2,2,0,0,1,218.6,63.45Zm14-12.79a6.53,6.53,0,0,1,4.9-2.54c2.3,0,3.9.91,4.7,2.94a6.67,6.67,0,0,1,5.4-2.94c3.8,0,5.5,2.34,5.5,6.6V62H255v3.45h-6V55.43c0-2.23-.4-3.45-2.2-3.45-2.4,0-4,2.64-4,5.69v7.82h-4V55.43c0-2.13-.3-3.45-2.1-3.45-2.4,0-4.1,2.74-4.1,5.79v7.72h-4V52h-2.5V48.53h4A2.18,2.18,0,0,1,232.6,50.66ZM86.8,65.79c-6.7,0-11.6-5.38-11.6-12.18s5-11.88,11.5-11.88c2.7,0,8.7,1,8.7,5v3.25H91.5V47.72c0-1.73-3.6-2.13-4.7-2.13-4.3,0-7.4,3.25-7.4,7.92,0,5,3.2,8.43,7.6,8.43a8.21,8.21,0,0,0,6.8-3.25l2,2.84S93.3,65.79,86.8,65.79Z" transform="translate(0.13 0.39)"/><path class="cls-8" d="M76.75,88.37a4.66,4.66,0,0,0,3.13,1.31,2.15,2.15,0,0,0,2.38-2.07c0-3-6-2.24-6-5.95A3.44,3.44,0,0,1,80,78.45a4.64,4.64,0,0,1,3.2,1.16l-.58,1a4.07,4.07,0,0,0-2.62-1,2.29,2.29,0,0,0-2.52,2.06c0,2.84,6,2,6,5.95a3.3,3.3,0,0,1-3.62,3.23,5.27,5.27,0,0,1-3.79-1.53Z" transform="translate(0.13 0.39)"/><path class="cls-8" d="M89,79.7h-4.3V78.65h9.76V79.7H90.14V90.6H89Z" transform="translate(0.13 0.39)"/><path class="cls-8" d="M96.48,78.65h6.73V79.7H97.66v4.35h4.54v1.05H97.66v4.44h5.86V90.6h-7Z" transform="translate(0.13 0.39)"/><path class="cls-8" d="M107,78.65h1.22l3.13,7c.27.61.58,1.46.58,1.46h0s.32-.85.59-1.46l3.13-7h1.21l1,12h-1.17L116,82.24c-.05-.65,0-1.67,0-1.67h0s-.36,1.05-.63,1.67l-2.8,6.14h-1.1l-2.8-6.14c-.27-.59-.65-1.7-.65-1.7h0s0,1.05,0,1.7l-.66,8.36H106Z" transform="translate(0.13 0.39)"/><path class="cls-8" d="M127,78.65h3.54a5.31,5.31,0,0,1,2.24.32,3.48,3.48,0,0,1-.46,6.31v0a4.73,4.73,0,0,1,.31.48l2.6,4.81h-1.34l-2.7-5h-3v5H127Zm4,5.87A2.47,2.47,0,0,0,132.34,80a3.45,3.45,0,0,0-1.7-.29h-2.41v4.81Z" transform="translate(0.13 0.39)"/><path class="cls-8" d="M141.21,81.85c2.36,0,3.57,1.82,3.57,3.94,0,.2,0,.59,0,.59h-6.56a3.22,3.22,0,0,0,3.31,3.38,4,4,0,0,0,2.6-1l.53.88a4.9,4.9,0,0,1-3.16,1.19A4.32,4.32,0,0,1,137,86.33,4.17,4.17,0,0,1,141.21,81.85Zm2.4,3.59a2.41,2.41,0,0,0-2.43-2.62,2.9,2.9,0,0,0-2.94,2.62Z" transform="translate(0.13 0.39)"/><path class="cls-8" d="M147.13,88.73a3.67,3.67,0,0,0,2.55,1c.92,0,1.72-.46,1.72-1.36,0-1.87-4.61-1.41-4.61-4.2,0-1.53,1.38-2.36,2.92-2.36a3.59,3.59,0,0,1,2.63.93l-.53.88a3,3,0,0,0-2.14-.78c-.87,0-1.7.37-1.7,1.33,0,1.89,4.61,1.38,4.61,4.2,0,1.39-1.21,2.4-2.92,2.4a4.35,4.35,0,0,1-3.16-1.24Z" transform="translate(0.13 0.39)"/><path class="cls-8" d="M158.82,81.85a4.48,4.48,0,1,1-4.52,4.44A4.43,4.43,0,0,1,158.82,81.85Zm0,7.92a3.37,3.37,0,0,0,3.33-3.48,3.33,3.33,0,1,0-6.66,0A3.37,3.37,0,0,0,158.82,89.77Z" transform="translate(0.13 0.39)"/><path class="cls-8" d="M165.59,82h1.16v5.13c0,1.34.2,2.53,1.85,2.53a3.32,3.32,0,0,0,3.16-3.57V82h1.16V90.6h-1.12V89.33c0-.37,0-.68,0-.68h0a3.65,3.65,0,0,1-3.35,2.16c-2,0-2.86-1.09-2.86-3.31Z" transform="translate(0.13 0.39)"/><path class="cls-8" d="M175.91,82H177v1.51c0,.37,0,.68,0,.68h0a2.91,2.91,0,0,1,2.7-2.28,2.32,2.32,0,0,1,.46.05v1.14a2.91,2.91,0,0,0-.42,0,2.74,2.74,0,0,0-2.48,2.21,5.64,5.64,0,0,0-.24,1.67v3.6h-1.16Z" transform="translate(0.13 0.39)"/><path class="cls-8" d="M186,81.85a4.21,4.21,0,0,1,3.13,1.22l-.59.87a3.62,3.62,0,0,0-2.5-1,3.28,3.28,0,0,0-3.33,3.43A3.32,3.32,0,0,0,186,89.77a3.77,3.77,0,0,0,2.74-1.21l.53.9A4.57,4.57,0,0,1,186,90.8a4.48,4.48,0,1,1,0-9Z" transform="translate(0.13 0.39)"/><path class="cls-8" d="M195.22,81.85c2.36,0,3.57,1.82,3.57,3.94,0,.2,0,.59,0,.59h-6.56a3.22,3.22,0,0,0,3.31,3.38,4,4,0,0,0,2.6-1l.53.88a4.9,4.9,0,0,1-3.16,1.19A4.32,4.32,0,0,1,191,86.33,4.17,4.17,0,0,1,195.22,81.85Zm2.4,3.59a2.41,2.41,0,0,0-2.43-2.62,2.9,2.9,0,0,0-2.94,2.62Z" transform="translate(0.13 0.39)"/><path class="cls-8" d="M207.48,78.65h6.29V79.7h-5.12v4.49H213v1.05h-4.39V90.6h-1.17Z" transform="translate(0.13 0.39)"/><path class="cls-8" d="M216,78.65h1.21v1.45H216Zm0,3.4h1.16V90.6h-1.16Z" transform="translate(0.13 0.39)"/><path class="cls-8" d="M220.23,82h1.14v1.27c0,.37,0,.68,0,.68h0a3.64,3.64,0,0,1,3.42-2.16c2.11,0,2.86,1.21,2.86,3.31V90.6h-1.16V85.47c0-1.34-.2-2.53-1.85-2.53a3.25,3.25,0,0,0-3.11,2.41,4.25,4.25,0,0,0-.14,1.16v4.1h-1.16Z" transform="translate(0.13 0.39)"/><path class="cls-8" d="M233.79,81.85a3,3,0,0,1,2.79,1.61h0a6.13,6.13,0,0,1,0-.65V78.65h1.16v12h-1.12v-.9a4.76,4.76,0,0,1,0-.61h0a3.09,3.09,0,0,1-2.94,1.72c-2.29,0-3.72-1.84-3.72-4.49S231.55,81.85,233.79,81.85Zm.05,7.92c1.43,0,2.77-1,2.77-3.45,0-1.73-.88-3.43-2.72-3.43-1.51,0-2.75,1.27-2.75,3.43S232.24,89.77,233.84,89.77Z" transform="translate(0.13 0.39)"/><path class="cls-8" d="M244.35,81.85c2.36,0,3.57,1.82,3.57,3.94,0,.2,0,.59,0,.59h-6.56a3.22,3.22,0,0,0,3.31,3.38,4,4,0,0,0,2.6-1l.53.88a4.9,4.9,0,0,1-3.16,1.19,4.32,4.32,0,0,1-4.47-4.47A4.17,4.17,0,0,1,244.35,81.85Zm2.4,3.59a2.41,2.41,0,0,0-2.43-2.62,2.9,2.9,0,0,0-2.94,2.62Z" transform="translate(0.13 0.39)"/><path class="cls-8" d="M250.33,82h1.14v1.51c0,.37,0,.68,0,.68h0a2.91,2.91,0,0,1,2.7-2.28,2.32,2.32,0,0,1,.46.05v1.14a2.91,2.91,0,0,0-.42,0,2.74,2.74,0,0,0-2.48,2.21,5.64,5.64,0,0,0-.24,1.67v3.6h-1.16Z" transform="translate(0.13 0.39)"/></svg>