<?xml version="1.0" encoding="utf-8"?>
<!-- Generator: Adobe Illustrator 21.0.2, SVG Export Plug-In . SVG Version: 6.00 Build 0)  -->
<svg version="1.1" id="Layer_1" xmlns="http://www.w3.org/2000/svg" xmlns:xlink="http://www.w3.org/1999/xlink" x="0px" y="0px"
	 viewBox="0 0 489.3 79.5" style="enable-background:new 0 0 489.3 79.5;" xml:space="preserve">
<style type="text/css">
	.st0{enable-background:new    ;}
	.st1{fill:#4D4D4F;}
	.st2{fill:url(#SVGID_1_);}
	.st3{fill:#FFFFFF;}
	.st4{fill:#FFFFFF;stroke:#FFFFFF;stroke-width:3;}
	.st5{fill:none;}
	.st6{fill:#C9252C;}
	.st7{fill:#EA8723;}
	.st8{fill:#3A878E;}
	.st9{fill:#71A341;}
</style>
<title>itsi-logo</title>
<g class="st0">
	<path class="st1" d="M90.4,31.9h2.5V12.6h-2.5V9.5h8.4v3.1h-2.5v19.2h2.5V35h-8.4V31.9z"/>
	<path class="st1" d="M103.4,20.5c0-0.5-0.3-0.8-0.8-0.8h-1.5v-3h3.3c1.5,0,2.3,0.7,2.3,2v0.7c0,0.6-0.1,1-0.1,1h0.1
		c0.7-1.6,2.9-4.2,6.8-4.2c4.3,0,6.3,2.3,6.3,7v7.9c0,0.5,0.3,0.8,0.8,0.8h1.5v3h-3.5c-1.6,0-2.3-0.7-2.3-2.3v-8.6
		c0-2.6-0.5-4.6-3.4-4.6c-2.8,0-5,1.8-5.8,4.5c-0.3,0.7-0.3,1.5-0.3,2.4V35h-3.5V20.5z"/>
	<path class="st1" d="M125.9,20.5c0-0.5-0.3-0.8-0.8-0.8h-1.5v-3h3.3c1.5,0,2.3,0.7,2.3,2v0.7c0,0.6-0.1,1-0.1,1h0.1
		c0.7-1.6,2.9-4.2,6.8-4.2c4.3,0,6.3,2.3,6.3,7v7.9c0,0.5,0.3,0.8,0.8,0.8h1.5v3h-3.5c-1.6,0-2.3-0.7-2.3-2.3v-8.6
		c0-2.6-0.5-4.6-3.4-4.6c-2.8,0-5,1.8-5.8,4.5c-0.3,0.7-0.3,1.5-0.3,2.4V35h-3.5V20.5z"/>
	<path class="st1" d="M156.5,16.3c5.4,0,9.8,4,9.8,9.5c0,5.5-4.4,9.6-9.8,9.6c-5.4,0-9.8-4-9.8-9.6
		C146.7,20.3,151.1,16.3,156.5,16.3z M156.5,32.4c3.5,0,6.3-2.7,6.3-6.6c0-3.8-2.8-6.5-6.3-6.5c-3.4,0-6.2,2.7-6.2,6.5
		C150.3,29.6,153.1,32.4,156.5,32.4z"/>
	<path class="st1" d="M169.2,20.4c-0.2-0.5-0.5-0.7-1.1-0.7h-0.4v-3h1.8c1.6,0,2.2,0.4,2.8,1.8l3.9,10.5c0.4,1,0.6,2.4,0.6,2.4h0.1
		c0,0,0.3-1.4,0.6-2.4l3.9-10.5c0.5-1.4,1.2-1.8,2.8-1.8h1.7v3h-0.4c-0.6,0-1,0.2-1.2,0.7L178.8,35h-4L169.2,20.4z"/>
	<path class="st1" d="M198.5,23.6h0.8v-0.2c0-3.2-1.2-4.4-4-4.4c-0.9,0-3,0.2-3,1.4v1H189v-1.8c0-3,4.5-3.4,6.3-3.4
		c5.9,0,7.5,3.1,7.5,7.1v7.7c0,0.5,0.3,0.8,0.8,0.8h1.5v3h-3.3c-1.6,0-2.3-0.8-2.3-2.1c0-0.6,0.1-1.1,0.1-1.1h-0.1
		c0,0-1.4,3.6-5.8,3.6c-3.1,0-6.2-1.9-6.2-5.5C187.6,24,195.5,23.6,198.5,23.6z M194.5,32.6c3,0,4.9-3.1,4.9-5.8v-0.6h-0.9
		c-2.6,0-7.4,0.1-7.4,3.5C191.1,31.1,192.2,32.6,194.5,32.6z"/>
	<path class="st1" d="M209,19.5h-2.4v-2.8h2.4v-5h3.4v5h4.4v2.8h-4.4v8.4c0,3.6,2.5,4.1,3.9,4.1c0.5,0,0.8-0.1,0.8-0.1V35
		c0,0-0.5,0.1-1.2,0.1c-2.3,0-6.9-0.7-6.9-6.8V19.5z"/>
	<path class="st1" d="M221.7,20.5c0-0.5-0.3-0.8-0.8-0.8h-1.5v-3h3.4c1.6,0,2.3,0.7,2.3,2.3v12.1c0,0.5,0.3,0.8,0.8,0.8h1.5v3H224
		c-1.6,0-2.3-0.7-2.3-2.3V20.5z M221.8,9.5h3.1v3.6h-3.1V9.5z"/>
	<path class="st1" d="M230.1,20.4c-0.2-0.5-0.5-0.7-1.1-0.7h-0.4v-3h1.8c1.6,0,2.2,0.4,2.8,1.8l3.9,10.5c0.4,1,0.6,2.4,0.6,2.4h0.1
		c0,0,0.3-1.4,0.6-2.4l3.9-10.5c0.5-1.4,1.2-1.8,2.8-1.8h1.7v3h-0.4c-0.6,0-1,0.2-1.2,0.7L239.8,35h-4L230.1,20.4z"/>
	<path class="st1" d="M257.4,16.3c5.1,0,7.8,3.8,7.8,8.5c0,0.5-0.1,1.4-0.1,1.4h-13.3c0.2,3.9,3,6.1,6.3,6.1c3.1,0,5.3-2.1,5.3-2.1
		l1.5,2.5c0,0-2.7,2.7-7,2.7c-5.8,0-9.7-4.1-9.7-9.5C248.3,20,252.2,16.3,257.4,16.3z M261.7,23.7c-0.1-3-2-4.6-4.3-4.6
		c-2.7,0-4.8,1.6-5.4,4.6H261.7z"/>
	<path class="st1" d="M285.5,12.6h-5.1c-0.5,0-0.8,0.3-0.8,0.8V15h-3.2v-3.3c0-1.6,0.5-2.2,2.2-2.2H296c1.6,0,2.2,0.5,2.2,2.2V15
		H295v-1.6c0-0.5-0.3-0.8-0.8-0.8h-5.1V35h-3.6V12.6z"/>
	<path class="st1" d="M306.5,16.3c5.1,0,7.8,3.8,7.8,8.5c0,0.5-0.1,1.4-0.1,1.4h-13.3c0.2,3.9,3,6.1,6.3,6.1c3.1,0,5.3-2.1,5.3-2.1
		l1.5,2.5c0,0-2.7,2.7-7,2.7c-5.8,0-9.7-4.1-9.7-9.5C297.3,20,301.3,16.3,306.5,16.3z M310.7,23.7c-0.1-3-2-4.6-4.3-4.6
		c-2.7,0-4.8,1.6-5.4,4.6H310.7z"/>
	<path class="st1" d="M327,16.3c2.2,0,6.6,0.9,6.6,4v1.9h-3.2v-1c0-1.3-2.1-1.9-3.4-1.9c-3.6,0-6.2,2.7-6.2,6.5c0,4.1,3,6.5,6.4,6.5
		c3.4,0,5.7-2.5,5.7-2.5l1.5,2.5c0,0-2.6,3.1-7.4,3.1c-5.7,0-9.7-4.1-9.7-9.5C317.2,20.5,321.1,16.3,327,16.3z"/>
	<path class="st1" d="M337.9,13.3c0-0.5-0.3-0.8-0.8-0.8h-1.5v-3h3.5c1.6,0,2.3,0.7,2.3,2.2v7.1c0,0.9-0.1,1.5-0.1,1.5h0.1
		c0.8-1.8,3.1-4.1,6.8-4.1c4.3,0,6.2,2.3,6.2,7v7.9c0,0.5,0.3,0.8,0.8,0.8h1.5v3h-3.4c-1.6,0-2.3-0.7-2.3-2.3v-8.6
		c0-2.6-0.5-4.6-3.5-4.6c-2.8,0-5,1.9-5.8,4.5c-0.3,0.7-0.3,1.5-0.3,2.4V35h-3.5V13.3z"/>
	<path class="st1" d="M360.4,20.5c0-0.5-0.3-0.8-0.8-0.8h-1.5v-3h3.3c1.5,0,2.3,0.7,2.3,2v0.7c0,0.6-0.1,1-0.1,1h0.1
		c0.7-1.6,2.9-4.2,6.8-4.2c4.3,0,6.3,2.3,6.3,7v7.9c0,0.5,0.3,0.8,0.8,0.8h1.5v3h-3.5c-1.6,0-2.3-0.7-2.3-2.3v-8.6
		c0-2.6-0.5-4.6-3.4-4.6c-2.8,0-5,1.8-5.8,4.5c-0.3,0.7-0.3,1.5-0.3,2.4V35h-3.5V20.5z"/>
	<path class="st1" d="M391,16.3c5.4,0,9.8,4,9.8,9.5c0,5.5-4.4,9.6-9.8,9.6c-5.4,0-9.8-4-9.8-9.6C381.2,20.3,385.6,16.3,391,16.3z
		 M391,32.4c3.5,0,6.3-2.7,6.3-6.6c0-3.8-2.8-6.5-6.3-6.5c-3.4,0-6.2,2.7-6.2,6.5C384.8,29.6,387.6,32.4,391,32.4z"/>
	<path class="st1" d="M404.8,13.3c0-0.5-0.3-0.8-0.8-0.8h-1.5v-3h3.5c1.6,0,2.3,0.7,2.3,2.3v19.3c0,0.5,0.3,0.8,0.8,0.8h1.5v3h-3.5
		c-1.6,0-2.3-0.7-2.3-2.3V13.3z"/>
	<path class="st1" d="M422.5,16.3c5.4,0,9.8,4,9.8,9.5c0,5.5-4.4,9.6-9.8,9.6s-9.8-4-9.8-9.6C412.7,20.3,417.1,16.3,422.5,16.3z
		 M422.5,32.4c3.5,0,6.3-2.7,6.3-6.6c0-3.8-2.8-6.5-6.3-6.5c-3.4,0-6.2,2.7-6.2,6.5C416.3,29.6,419.1,32.4,422.5,32.4z"/>
	<path class="st1" d="M443,16.3c4.5,0,5.8,2.8,5.8,2.8h0.1c0,0,0-0.3,0-0.6c0-1.1,0.6-1.8,2-1.8h3.4v3h-1.4c-0.5,0-0.8,0.3-0.8,0.7
		v13.8c0,6-4.6,8.3-9.2,8.3c-2.2,0-4.4-0.6-6.2-1.5l1.2-2.8c0,0,2.2,1.2,5,1.2c3.2,0,5.8-1.4,5.8-5.1v-1.2c0-0.6,0.1-1.2,0.1-1.2
		h-0.1c-1.1,1.8-2.8,2.8-5.4,2.8c-5,0-8.1-4.1-8.1-9.3C435,20.2,437.9,16.3,443,16.3z M448.7,25.4c0-4.8-2.3-6.1-5.1-6.1
		c-3.2,0-5,2.3-5,6c0,3.8,2,6.4,5.3,6.4C446.3,31.7,448.7,30.2,448.7,25.4z"/>
	<path class="st1" d="M459.4,39.5c1.4,0,2.5-1,3.2-2.6l0.8-2l-6.2-14.4c-0.3-0.6-0.6-0.7-1.2-0.7h-0.4v-3h2.1c1.5,0,2,0.4,2.6,1.8
		l4.1,10.3c0.4,0.9,0.6,2.2,0.6,2.2h0.1c0,0,0.3-1.3,0.6-2.2l3.8-10.3c0.5-1.4,1.2-1.8,2.7-1.8h2.1v3h-0.5c-0.6,0-0.9,0.1-1.2,0.7
		l-7.2,17.8c-1.1,2.8-3.3,4.3-5.9,4.3c-2.7,0-4.3-1.8-4.3-1.8l1.4-2.5C456.7,38.2,457.8,39.5,459.4,39.5z"/>
</g>
<g class="st0">
	<path class="st1" d="M92.2,56.5c0-0.5-0.3-0.8-0.8-0.8h-1.5v-3h3.4c1.6,0,2.3,0.7,2.3,2.3v12.1c0,0.5,0.3,0.8,0.8,0.8h1.5v3h-3.4
		c-1.6,0-2.3-0.7-2.3-2.3V56.5z M92.2,45.5h3.1v3.6h-3.1V45.5z"/>
	<path class="st1" d="M101.9,56.5c0-0.5-0.3-0.8-0.8-0.8h-1.5v-3h3.3c1.5,0,2.3,0.7,2.3,2v0.7c0,0.6-0.1,1-0.1,1h0.1
		c0.7-1.6,2.9-4.2,6.8-4.2c4.3,0,6.3,2.3,6.3,7v7.9c0,0.5,0.3,0.8,0.8,0.8h1.5v3h-3.5c-1.6,0-2.3-0.7-2.3-2.3v-8.6
		c0-2.6-0.5-4.6-3.4-4.6c-2.8,0-5,1.8-5.8,4.5c-0.3,0.7-0.3,1.5-0.3,2.4V71h-3.5V56.5z"/>
	<path class="st1" d="M134.4,65c0,0,2.6,3.1,6.4,3.1c2.4,0,4.4-1.4,4.4-3.8c0-5.3-12.3-4.5-12.3-12.4c0-3.8,3.3-6.8,8.1-6.8
		c2.7,0,7.2,1.2,7.2,4.7v2.1h-3.3v-1.2c0-1.3-1.9-2.3-3.9-2.3c-2.7,0-4.5,1.5-4.5,3.4c0,5.1,12.2,4,12.2,12.3c0,3.9-3,7.2-8.1,7.2
		c-5.4,0-8.4-3.8-8.4-3.8L134.4,65z"/>
	<path class="st1" d="M161.5,52.3c2.2,0,6.6,0.9,6.6,4v1.9h-3.2v-1c0-1.3-2.1-1.9-3.4-1.9c-3.6,0-6.2,2.7-6.2,6.5
		c0,4.1,3,6.5,6.4,6.5c3.4,0,5.7-2.5,5.7-2.5l1.5,2.5c0,0-2.6,3.1-7.4,3.1c-5.7,0-9.7-4.1-9.7-9.5C151.7,56.5,155.6,52.3,161.5,52.3
		z"/>
	<path class="st1" d="M172.8,56.5c0-0.5-0.3-0.8-0.8-0.8h-1.5v-3h3.4c1.6,0,2.3,0.7,2.3,2.3v12.1c0,0.5,0.3,0.8,0.8,0.8h1.5v3h-3.4
		c-1.6,0-2.3-0.7-2.3-2.3V56.5z M172.9,45.5h3.1v3.6h-3.1V45.5z"/>
	<path class="st1" d="M189.9,52.3c5.1,0,7.8,3.8,7.8,8.5c0,0.5-0.1,1.4-0.1,1.4h-13.3c0.2,3.9,3,6.1,6.3,6.1c3.1,0,5.3-2.1,5.3-2.1
		l1.5,2.5c0,0-2.7,2.7-7,2.7c-5.8,0-9.7-4.1-9.7-9.5C180.8,56,184.7,52.3,189.9,52.3z M194.2,59.7c-0.1-3-2-4.6-4.3-4.6
		c-2.7,0-4.8,1.6-5.4,4.6H194.2z"/>
	<path class="st1" d="M202.4,56.5c0-0.5-0.3-0.8-0.8-0.8h-1.5v-3h3.3c1.5,0,2.3,0.7,2.3,2v0.7c0,0.6-0.1,1-0.1,1h0.1
		c0.7-1.6,2.9-4.2,6.8-4.2c4.3,0,6.3,2.3,6.3,7v7.9c0,0.5,0.3,0.8,0.8,0.8h1.5v3h-3.5c-1.6,0-2.3-0.7-2.3-2.3v-8.6
		c0-2.6-0.5-4.6-3.4-4.6c-2.8,0-5,1.8-5.8,4.5c-0.3,0.7-0.3,1.5-0.3,2.4V71h-3.5V56.5z"/>
	<path class="st1" d="M233,52.3c2.2,0,6.6,0.9,6.6,4v1.9h-3.2v-1c0-1.3-2.1-1.9-3.4-1.9c-3.6,0-6.2,2.7-6.2,6.5c0,4.1,3,6.5,6.4,6.5
		c3.4,0,5.7-2.5,5.7-2.5l1.5,2.5c0,0-2.6,3.1-7.4,3.1c-5.7,0-9.7-4.1-9.7-9.5C223.2,56.5,227.1,52.3,233,52.3z"/>
	<path class="st1" d="M251.5,52.3c5.1,0,7.8,3.8,7.8,8.5c0,0.5-0.1,1.4-0.1,1.4H246c0.2,3.9,3,6.1,6.3,6.1c3.1,0,5.3-2.1,5.3-2.1
		l1.5,2.5c0,0-2.7,2.7-7,2.7c-5.8,0-9.7-4.1-9.7-9.5C242.4,56,246.3,52.3,251.5,52.3z M255.8,59.7c-0.1-3-2-4.6-4.3-4.6
		c-2.7,0-4.8,1.6-5.4,4.6H255.8z"/>
	<path class="st1" d="M272.2,67.9h2.5V48.6h-2.5v-3.1h8.4v3.1h-2.5v19.2h2.5V71h-8.4V67.9z"/>
	<path class="st1" d="M285.1,56.5c0-0.5-0.3-0.8-0.8-0.8h-1.5v-3h3.3c1.5,0,2.3,0.7,2.3,2v0.7c0,0.6-0.1,1-0.1,1h0.1
		c0.7-1.6,2.9-4.2,6.8-4.2c4.3,0,6.3,2.3,6.3,7v7.9c0,0.5,0.3,0.8,0.8,0.8h1.5v3h-3.5c-1.6,0-2.3-0.7-2.3-2.3v-8.6
		c0-2.6-0.5-4.6-3.4-4.6c-2.8,0-5,1.8-5.8,4.5c-0.3,0.7-0.3,1.5-0.3,2.4V71h-3.5V56.5z"/>
	<path class="st1" d="M314.2,52.3c4.3,0,5.9,3.1,5.9,3.1h0.1c0,0,0-0.4,0-0.9c0-1.1,0.7-1.7,2.2-1.7h3.3v3h-1.5
		c-0.5,0-0.8,0.3-0.8,0.8v21.6h-3.5v-8.2c0-0.9,0.1-1.6,0.1-1.6h-0.1c0,0-1.5,3.1-5.9,3.1c-4.9,0-8-3.9-8-9.5
		C306,56,309.4,52.3,314.2,52.3z M319.9,61.8c0-3.2-1.7-6.5-5.1-6.5c-2.9,0-5.3,2.4-5.3,6.5c0,4,2.1,6.5,5.2,6.5
		C317.4,68.4,319.9,66.5,319.9,61.8z"/>
	<path class="st1" d="M329.3,56.5c0-0.5-0.3-0.8-0.8-0.8h-1.5v-3h3.4c1.7,0,2.3,0.7,2.3,2.2v8.6c0,2.5,0.5,4.5,3.4,4.5
		c3.7,0,5.9-3.3,5.9-6.9v-8.5h3.5v14.4c0,0.5,0.3,0.8,0.8,0.8h1.5v3h-3.3c-1.5,0-2.3-0.7-2.3-2v-0.7c0-0.6,0-1,0-1h-0.1
		c-0.8,1.8-3.1,4.2-6.7,4.2c-4.1,0-6.2-2.2-6.2-7V56.5z"/>
	<path class="st1" d="M351.9,56.5c0-0.5-0.3-0.8-0.8-0.8h-1.5v-3h3.4c1.6,0,2.3,0.7,2.3,2.3v12.1c0,0.5,0.3,0.8,0.8,0.8h1.5v3h-3.4
		c-1.6,0-2.3-0.7-2.3-2.3V56.5z M352,45.5h3.1v3.6H352V45.5z"/>
	<path class="st1" d="M361.7,56.5c0-0.5-0.3-0.8-0.8-0.8h-1.5v-3h3.3c1.6,0,2.3,0.6,2.3,2.1V56c0,0.7-0.1,1.3-0.1,1.3h0.1
		c0.9-2.7,3-4.8,5.8-4.8c0.5,0,0.9,0.1,0.9,0.1V56c0,0-0.5-0.1-1-0.1c-2.2,0-4.3,1.6-5.1,4.3c-0.3,1-0.4,2.2-0.4,3.3V71h-3.5V56.5z"
		/>
	<path class="st1" d="M377.3,75.5c1.4,0,2.5-1,3.2-2.6l0.8-2l-6.2-14.4c-0.3-0.6-0.6-0.7-1.2-0.7h-0.4v-3h2.1c1.5,0,2,0.4,2.6,1.8
		l4.1,10.3c0.4,0.9,0.6,2.2,0.6,2.2h0.1c0,0,0.3-1.3,0.6-2.2l3.8-10.3c0.5-1.4,1.2-1.8,2.7-1.8h2.1v3h-0.5c-0.6,0-0.9,0.1-1.2,0.7
		l-7.2,17.8c-1.1,2.8-3.3,4.3-5.9,4.3c-2.7,0-4.3-1.8-4.3-1.8l1.4-2.5C374.6,74.2,375.7,75.5,377.3,75.5z"/>
</g>
<linearGradient id="SVGID_1_" gradientUnits="userSpaceOnUse" x1="1.89" y1="41.2" x2="72.75" y2="41.2" gradientTransform="matrix(1 0 0 -1 0 82)">
	<stop  offset="0" style="stop-color:#F79557"/>
	<stop  offset="0.25" style="stop-color:#EE7E4E"/>
	<stop  offset="0.76" style="stop-color:#D54338"/>
	<stop  offset="1" style="stop-color:#C9252C"/>
</linearGradient>
<circle class="st2" cx="37.3" cy="40.8" r="35.4"/>
<circle class="st3" cx="37.3" cy="40.8" r="31.9"/>
<path class="st4" d="M43,65.7l0.5,1.7l25.3-7.9l-7.9-25.4l-1.3,0.4l-5.8,1.8l-1.9,0.6c0.5-0.4,0.9-0.8,1.2-1.2
	c0.6-0.6,0.9-1.5,0.8-2.3c-0.3-1.1-1.6-1.7-3.2-1.8c-1,0-1.9,0.2-2.9,0.5c-0.5,0.1-0.9,0.3-1.4,0.6c-2.1,1.1-2.9,2.9-2.5,4.2
	c0.5,1.6,2.9,1.8,2.9,1.8l-11,3.4l2.9,9.3c0,0,0.1-3.7,2.3-4.4s4,2.7,4.8,5l0.1,0.3c0.1,0.2,0.1,0.4,0.2,0.6
	c0.2,0.9,0.3,1.8,0.2,2.8l0,0c0-0.9,0-1.8-0.2-2.8c-0.1-0.2-0.1-0.5-0.2-0.6L45.7,52c-0.8-2.3-2.7-5.6-4.8-5s-2.3,4.4-2.3,4.4
	l-2.9-9.3l-9.8,3.1l0,0l9.8-3.1l-3.6-11.6c0,0-0.2,2.4-1.8,2.9c-1.3,0.4-2.9-0.3-4-2.1c-0.2-0.3-0.4-0.7-0.6-1.1
	c-0.1-0.2-0.2-0.5-0.3-0.7c-0.2-0.5-0.3-1-0.4-1.5c-0.1-0.4-0.1-0.9-0.1-1.3c0-1.7,0.6-2.9,1.8-3.3c0.9-0.1,1.9,0.2,2.5,0.9
	c0.4,0.3,0.7,0.7,1,1.1l-0.6-1.9l-1.6-5.1l-0.6-2l-25.6,8l8,25.7l2.1-0.6l5.5-1.7l3.1-1c-0.3,0.3-0.5,0.5-0.8,0.8
	C19,48.5,18,50,18.3,51.1c0.4,0.8,1.2,1.4,2.1,1.5c0.3,0.1,0.7,0.1,1,0.1c1.1,0.1,2.3,0,3.4-0.4H25c0.2-0.1,0.5-0.2,0.8-0.3
	c1.2-0.4,2.3-1.1,3.3-1.9c-1,0.8-2.1,1.4-3.3,1.9l-0.8,0.3h-0.1c-1.1,0.3-2.2,0.4-3.4,0.4c-0.3,0-0.7-0.1-1-0.1
	c-0.9-0.1-1.7-0.6-2.1-1.5c-0.4-1.2,0.7-2.7,1.4-3.6c0.4-0.5,0.8-0.8,0.8-0.8l-3.1,1l-5.5,1.7l-2.1,0.6l7.9,25.3l25.7-8L43,65.7
	l-1.9-5.9l0,0L43,65.7z M40.4,57.6L40.4,57.6L40.4,57.6L40.4,57.6z"/>
<path class="st4" d="M32.8,15.7c0.5,2.1,1.9,3.2,3.2,3.2c1.7,0,2.6-2.2,2.6-2.2V29h11.7c0,0-2.2-0.9-2.2-2.6c0-1.5,1.4-2.9,3.7-3.4
	c0.5-0.1,1-0.1,1.5-0.1c1,0,2,0.1,2.9,0.4l0,0c1.6,0.5,2.6,1.5,2.6,2.7c-0.1,0.9-0.7,1.6-1.4,2c-0.5,0.3-1,0.6-1.6,0.8h9.6V1.5h-27
	v9.6c-0.2-0.5-0.4-0.9-0.7-1.4c-0.5-0.8-1.2-1.6-2.1-1.6c-1.2,0-2.1,1-2.7,2.6c-0.1,0.4-0.2,0.9-0.3,1.3c-0.1,0.5-0.1,1-0.1,1.5
	c0,0.3,0,0.5,0,0.8C32.6,14.8,32.7,15.3,32.8,15.7z"/>
<path class="st5" d="M40.4,57.5L40.4,57.5L40.4,57.5L40.4,57.5c0-0.1,0-0.1,0-0.2s0,0,0-0.1l0,0l0,0l0,0c0,0,0,0,0-0.1s0,0,0-0.1
	s0,0,0,0l0,0l0,0l0,0V57c0,0,0-0.1,0-0.1v-0.2c0,0,0-0.1,0-0.1l0,0v-0.1l0,0v-0.1L40,56.5l-0.4,0.1L39,56.8l-0.6,0.1
	c-0.5,0.1-1,0.2-1.5,0.2l-0.1,0.1l-0.1,0.1l-0.1,0.1l-0.1,0.1l-0.1,0.1l-0.1,0.1l-0.1,0.1L36.3,58l-0.1,0.1l-0.1,0.1l-0.1,0.1v0.1
	v0.1v0.1v0.1c0,0,0,0.1,0,0.1s0,0.1,0,0.1s0,0.1,0,0.1l0,0c0,0,0,0.1,0,0.1s0,0.1,0,0.1s0,0.1,0,0.2s0,0.1,0,0.1s0,0.1,0,0.2
	s0,0.1,0,0.1s0,0.2,0.1,0.2s0,0.1,0.1,0.2l0.1,0.1l0,0c0,0.1,0.1,0.2,0.2,0.3l0,0c0.1,0.1,0.1,0.2,0.2,0.3l0,0
	c0.1,0.1,0.2,0.2,0.3,0.3v0l0.3,0.3h0.1l0.1,0.1l0.3,0.3l0.1,0l0.4,0.3l0.1,0.1l0.4,0.3l0.1,0.1l0.3,0.2l0,0l0,0l0.3,0.2
	c0.6,0.4,1.3,0.8,1.9,1.1s1.1,0.6,1.5,0.9l-1.9-6l0,0l-0.7-2.1L40.4,57.5z"/>
<path class="st5" d="M54.9,52.7l-0.4,0.1c-1.2,0.4-2.4,0.5-3.7,0.3c-0.2,0-0.3-0.1-0.5-0.2l-0.2-0.1c-0.4-0.2-0.8-0.5-1.1-0.9
	c-0.2-0.2-0.3-0.4-0.5-0.6c-0.2-0.3-0.3-0.6-0.4-0.9c-0.2,0.3-0.4,0.5-0.6,0.8l-0.4,0.4l-0.4,0.5c-0.2,0.3-0.5,0.5-0.8,0.8
	c0.2,0.9,0.3,1.8,0.2,2.8l0.1,0.1l0.1,0.1l0.1,0.1l0,0c0.1,0.1,0.2,0.2,0.3,0.3c0.2,0.2,0.4,0.3,0.7,0.4l0,0l0.4,0.1l0,0l0.4,0.1
	h0.1l0.5,0.1h0.1l0.5,0.1h0.1h0.6h1.1h0.4c0.7,0,1.5-0.1,2.2-0.2s1.4-0.1,2-0.2c-0.1-0.6-0.3-1.2-0.4-2S55.1,53.5,54.9,52.7z"/>
<path class="st5" d="M50.3,58.1h-0.9h-0.2h-0.4h-0.1h-0.1l0,0h-0.1h-0.2h-0.1H48h-0.1h-0.2h-0.1l-0.1,0h-0.1L47.2,58h-0.1L46.9,58
	h-0.1l-0.1-0.1l0,0l0,0l-0.1-0.1l0,0h-0.1l-0.2-0.1l-0.2-0.1l0,0l0,0l-0.1-0.1l0,0l0,0l0,0l-0.1-0.2l0,0l0,0l0,0l-0.1-0.1L45.8,57
	l-0.1-0.2l0,0l-0.1-0.1l0,0l-0.1-0.2l0,0v-0.1l0,0l0,0l-0.1-0.2l0,0l0,0l0,0c0-0.1-0.1-0.2-0.1-0.3l0,0V56l0,0v-0.1v-0.1l0,0v-0.1
	l0,0c0-0.1,0-0.1,0-0.2v-0.1v0c0,0,0-0.1,0-0.2s0-0.1,0-0.2V54c-0.2,0.2-0.5,0.4-0.7,0.5l-0.5,0.3l-0.5,0.3
	c-0.4,0.2-0.9,0.5-1.3,0.6l-0.1,0.1V56l-0.1,0.2v0.1c0,0.1,0,0.1-0.1,0.2v0.1v0.2c0,0,0,0,0,0.1s0,0.1,0,0.2s0,0,0,0.1s0,0.1,0,0.2
	s0,0,0,0.1s0,0.1,0,0.2s0,0,0,0.1s0,0.1,0,0.2l0,0v0v0.2v0.1v0.2v0.1l0,0c0,0.1,0,0.1,0.1,0.2v0.1l0.1,0.2v0.1l0,0l0.1,0.2
	c0.1,0.1,0.1,0.2,0.2,0.3l0,0l0.3,0.3l0,0l0.3,0.2h0.1l0.3,0.2h0.1l0.4,0.2H44l0.5,0.2l0,0l0.5,0.2h0.1c0.3,0.1,0.6,0.2,1,0.3l0,0
	l0.4,0.1c0.7,0.2,1.4,0.3,2.1,0.5s1.4,0.3,2,0.5c0-0.6,0.1-1.3,0.2-2s0.2-1.5,0.2-2.2h-0.4L50.3,58.1z"/>
<path class="st5" d="M57.3,46.3c-0.3,0.2-0.6,0.4-0.9,0.6l0,0l-0.4,0.2H56l-0.2,0.1l-0.1,0.1l-0.2,0.1l-0.1,0l-0.1,0.1l-0.1,0.1
	l-0.2,0.1h-0.1h-0.1h-0.1l-0.3,0.1h-0.1h-0.3h-0.1h-0.2l5.8,2c-0.3-0.5-0.6-1.1-1-1.7S57.7,46.9,57.3,46.3z"/>
<path class="st5" d="M50.6,46.9l-0.1-0.1l-0.1-0.1l-0.1-0.1l-0.1-0.1l-0.1-0.1c0,0.1-0.1,0.3-0.1,0.4l0.8,0.3l0,0L50.6,46.9z"/>
<path class="st5" d="M53.5,48h-0.4h-0.2h-0.1h-0.1h-0.2h-0.1l-0.2,0H52l-0.2-0.1h-0.1l-0.2-0.1l-0.1,0l0,0l-0.2-0.1h-0.1L51,47.4
	l-0.1-0.1l-0.1-0.1l0,0L50,47l-0.2,0.4L49.6,48c-0.1,0.2-0.2,0.4-0.2,0.6c-0.2,0.4-0.4,0.9-0.7,1.3c0.2,1.2,0.9,2.2,2,2.7
	c1.3,0.3,2.7,0.2,4-0.3l0.4-0.1l0.4-0.2c0.7-0.3,1.4-0.6,2-0.9s1.3-0.6,1.8-0.8l-5.8-2L53.5,48z"/>
<path class="st5" d="M47.7,32.9c0.2,0.2,0.4,0.5,0.5,0.8l0.3,0.5l0.3,0.5c0.2,0.4,0.4,0.9,0.6,1.3l0,0l0.3,0.1l0.2,0.1l0.3,0.1h0.2
	l0.3,0h0.2h0.4h0.3h0.1c0.1,0,0.3-0.1,0.4-0.1l0.3-0.1l0.3-0.2l0.3-0.2c0.6-0.6,0.9-1.5,0.8-2.3c-0.3-1.1-1.6-1.7-3.2-1.8
	c-0.3,0.3-0.7,0.6-1.2,0.8c-0.2,0.1-0.5,0.2-0.8,0.3C48.3,32.7,48,32.8,47.7,32.9L47.7,32.9L47.7,32.9z"/>
<path class="st5" d="M53.7,36.3L53.7,36.3L53.7,36.3L53.7,36.3L53.7,36.3l-0.3,0.2l0,0l-0.2,0.1l-0.3,0.1L52.5,37l-0.4,0.1h-0.1
	h-0.3h-0.1h-0.1c-0.2,0-0.4,0-0.6,0h-0.2h-0.1L50.3,37l0,0l-0.2-0.1l0,0c0.1,0.1,0.1,0.3,0.1,0.4s0.1,0.3,0.1,0.4s0.1,0.4,0.1,0.5
	s0.1,0.4,0.1,0.6c0.1,0.5,0.2,1,0.2,1.4l0.1,0.1l0.1,0.1l0.1,0.1l0.1,0.1l0.1,0.1l0.1,0.1l0.2,0.1h0.1l0.2,0.1H52l0.2,0.1h0.1
	l0.2,0.1h0.1h0.2h0.1h0.2h0.6h0.2l0,0l0.2,0h0.2c0.1,0,0.2-0.1,0.4-0.1l0,0l0.1,0l0.2-0.1l0.1-0.1l0.2-0.2l0.2-0.1l0.2-0.2l0.2-0.2
	l0.2-0.2l0.2-0.2l0.2-0.2l0.2-0.2l0.2-0.3l0.2-0.2l0.1-0.1l0.2-0.3l0,0l0.2-0.4c0.4-0.6,0.8-1.3,1.1-1.9s0.7-1.2,1-1.7l0,0
	L53.7,36.3L53.7,36.3z"/>
<path class="st5" d="M50.8,45.8L50.8,45.8l0.1,0.1l0,0l0,0L51,46l0.1,0.1l0,0l0.1,0.1l0,0l0.1,0.1l0.1,0.1l0.1,0.1l0.1,0.1h0.1l0,0
	l0.1,0.1l0,0l0.1,0.1l0.1,0l0.1,0h0.1l0,0h0.1h0.1h0.2h0.1H53c0.1,0,0.3,0,0.4,0l0,0h0.1h0.3H54l0.3-0.1l0.2-0.1l0.3-0.1l0.2-0.1
	l0.3-0.1l0.2-0.1l0.3-0.2l0.2-0.2l0.3-0.2l0.3-0.2l0.1-0.1L57,45l0,0l0.3-0.3c0.6-0.5,1.1-1,1.7-1.5s1-0.9,1.5-1.3
	c-0.5-0.4-1-0.9-1.5-1.4s-1.1-1-1.6-1.5v0L57,39.7L57,39.8l-0.2,0.3l-0.1,0.1l0,0l-0.1,0.2l-0.2,0.3l0,0L56,40.8L55.8,41l-0.2,0.2
	l-0.1,0.1l-0.1,0.1l-0.2,0.1l-0.3,0.2l-0.1,0.1l-0.3,0.2l0,0h-0.1L54,42.1h-0.2h-0.1h0.1h-0.3l0,0c-0.3,0-0.7,0-1-0.1
	c-0.3-0.1-0.5-0.1-0.8-0.2c-0.3-0.1-0.6-0.3-0.9-0.5c0,0.3,0,0.6,0,0.9s0,0.4,0,0.6s0,0.4-0.1,0.6c-0.1,0.5-0.1,1-0.2,1.4l0,0
	l0.1,0.1l0.1,0.1l0.1,0.1l0.1,0.1l0.1,0.1l0,0L50.8,45.8z"/>
<path class="st5" d="M44.7,61.9l-0.2-0.1h-0.1l-0.2-0.1h-0.1L44,61.7h-0.1l-0.2-0.1h-0.1l-0.2-0.1l0,0h-0.1l0,0L43,61.4l0,0l0,0l0,0
	l-0.2-0.1l-0.1-0.1l-0.1-0.1l0,0l-0.1-0.1l0,0L42.3,61l-0.1-0.1L42,60.8l0,0L42,60.7l0,0l-0.1-0.1l0,0l-0.1-0.1l0,0l-0.1-0.1l0,0
	l-0.1-0.1l-0.1-0.1l-0.1-0.1l0,0l-0.1-0.1l0,0l-0.1-0.1l1.9,6l0.2,0.1c0.2-0.5,0.5-1.2,0.8-1.8s0.6-1.3,0.9-2H45L44.7,61.9z"/>
<path class="st5" d="M38.6,51.4c0,0,0.1-3.7,2.3-4.4s4,2.7,4.8,5l0.1-0.1l0.3-0.4l0.1-0.1l0.1-0.1c0.5-0.6,1-1.3,1.5-2l0.1-0.1
	c0.1-0.2,0.2-0.3,0.3-0.5l0.2-0.4c0.1-0.2,0.2-0.4,0.3-0.5l0.1-0.1c0.2-0.4,0.3-0.8,0.4-1.1l0,0c0.1-0.4,0.2-0.8,0.3-1.2l0,0
	c0.1-0.2,0.1-0.5,0.2-0.7s0.1-0.3,0.1-0.5s0-0.3,0.1-0.5v-0.1v-0.2c0.1-0.8,0.1-1.6,0-2.4l0,0c0-0.2,0-0.5-0.1-0.8s0-0.3-0.1-0.5
	s-0.1-0.3-0.1-0.5v-0.1v-0.2c-0.1-0.4-0.2-0.8-0.3-1.2s-0.3-0.8-0.4-1.1l0,0c-0.1-0.2-0.2-0.5-0.3-0.7l-0.2-0.4L48.1,35L48,34.9
	l-0.1-0.2c-0.4-0.7-0.9-1.4-1.4-2l0,0l-0.1-0.1c-2.1,1.1-2.9,2.9-2.5,4.2c0.5,1.6,2.9,1.8,2.9,1.8l-11,3.4L38.6,51.4z"/>
<path class="st5" d="M45.7,53.3L45.7,53.3c0,0.2,0,0.2,0,0.3v0.1c0,0.1,0,0.1,0,0.2s0,0.1,0,0.1s0,0.1,0,0.2v0.1v0.2v0.1
	c0,0.1,0,0.1,0,0.2v0.1l0,0c0,0.1,0,0.1,0.1,0.2v0.1l0.1,0.1v0.1l0,0l0.1,0.1l0.1,0.1l0.1,0.1l0,0c0-0.9,0-1.9-0.2-2.8l-0.3,0.3
	L45.7,53.3z"/>
<path class="st5" d="M15.7,51.1V51l0.1-0.2v-0.1l0.1-0.2v-0.1l0.1-0.2v-0.1l0.1-0.2v-0.1l0.1-0.3l0,0c0.1-0.2,0.2-0.4,0.3-0.6l0,0
	l0.1-0.2v-0.1l0.1-0.2l0.1-0.1l0.1-0.2l0.1-0.1L17,48l0.1-0.1l0.1-0.1l-5.5,1.7c0.5,0.2,1.1,0.5,1.7,0.8s1.3,0.6,2,0.9L15.7,51.1z"
	/>
<path class="st5" d="M20.4,52.7L20.4,52.7c-0.9-0.1-1.7-0.7-2.1-1.5c-0.4-1.2,0.7-2.7,1.4-3.6l0,0h-0.2h-0.1l-0.2,0l0,0l-0.2,0.1H19
	l-0.2,0.1l-0.2,0.1l-0.1,0l0,0l-0.2,0.2l-0.1,0c-0.1,0.1-0.2,0.1-0.2,0.2L18,48.4l-0.2,0.3l-0.1,0.1c-0.1,0.1-0.1,0.2-0.2,0.3v0.1
	c-0.1,0.1-0.1,0.2-0.2,0.4v0.1c-0.1,0.1-0.1,0.3-0.2,0.5v0.1c-0.1,0.2-0.1,0.3-0.2,0.5l0,0c-0.1,0.2-0.1,0.4-0.2,0.6l0,0l-0.1,0.4
	l0,0c0,0.1-0.1,0.3-0.1,0.4c-0.2,0.7-0.3,1.5-0.5,2.1s-0.3,1.4-0.4,1.9c0.6,0,1.3,0.1,2,0.2s1.4,0.2,2.2,0.2c0,0,0-0.1,0-0.1l0,0
	c0-0.1,0-0.2,0-0.3v-0.1c0-0.1,0-0.2,0-0.2s0,0,0-0.1s0-0.2,0-0.2v-0.1v-0.2c0,0,0-0.1,0-0.1s0-0.2,0-0.3l0,0c0-0.1,0-0.2,0-0.3l0,0
	l0,0c0-0.1,0-0.2,0.1-0.3v-0.1l0.1-0.2V54l0.1-0.2v-0.1l0.1-0.2v-0.1v0l0.1-0.2l0.1-0.1l0.1-0.2l0.1-0.1v-0.1l0.1-0.1L20.4,52.7z"/>
<path class="st5" d="M24.8,61l-0.1-0.2v-0.1v-0.1l-0.1-0.2v-0.1v-0.2v-0.1v-0.2v-0.1v-0.2v-0.1l-0.1-0.3c0,0,0-0.1,0-0.1
	s0-0.1,0-0.2v-0.1c0-0.1,0-0.1,0-0.2s0-0.1,0-0.1s0-0.1,0-0.2c0,0,0,0,0-0.1c0,0,0,0,0-0.1s0-0.1,0-0.2s0-0.1,0-0.1s0-0.1,0-0.2
	v-0.1v-0.2v-0.1V57v-0.1v-0.1c0-0.1,0.1-0.2,0.1-0.3l0.1-0.2c0-0.1,0.1-0.1,0.1-0.2c0.2-0.4,0.5-0.7,0.8-1c0.2-0.2,0.4-0.3,0.6-0.5
	c0.3-0.2,0.6-0.3,0.9-0.4c-0.3-0.2-0.5-0.4-0.8-0.5l-0.4-0.4l-0.5-0.4l-0.6-0.5c-1.1,0.3-2.2,0.4-3.4,0.4c-0.1,0.1-0.2,0.1-0.2,0.2
	c-0.1,0.1-0.2,0.2-0.2,0.3l0,0l-0.1,0.2l-0.1,0.2l0,0l0,0l0,0v0.1v0.1l0,0v0.1v0.1c0,0.1-0.1,0.3-0.1,0.4v0.1c0,0.1-0.1,0.3-0.1,0.5
	v0.1c0,0.2,0,0.3-0.1,0.5v0.1c0,0.2,0,0.4,0,0.6l0,0c0,0.2,0,0.4,0,0.6l0,0c0,0.1,0,0.3,0,0.4l0,0c0,0.1,0,0.3,0,0.4
	c0,0.7,0.1,1.5,0.2,2.2s0.1,1.4,0.2,2c0.6-0.1,1.3-0.3,2-0.4s1.4-0.3,2.1-0.4l0,0L24.8,61z"/>
<path class="st5" d="M31.3,63.4l-0.1-0.1l-0.1-0.1L31,63l-0.1-0.1l-0.1-0.1l-0.1-0.1l-0.1-0.2l-0.1-0.1l-0.1-0.2v-0.1L30.4,62l0,0
	l-0.1-0.2v-0.1l-0.1-0.2v-0.1v-0.1l-0.1-0.1v-0.1L30.1,61v-0.1v-0.1v-0.1v-0.1v-0.1v-0.1v-0.1c0-0.1,0-0.1,0-0.2s0-0.1,0-0.1
	s0,0,0-0.1l0,0c0,0,0-0.1,0-0.1l0,0c0,0,0-0.1,0-0.1s0-0.2,0-0.3s0-0.1,0-0.2V59v-0.1c0-0.1,0-0.1,0-0.2v-0.1c0-0.1,0-0.1,0.1-0.2
	v-0.1l0.1-0.2V58l0.1-0.2l0.1-0.1l0,0l0.1-0.2v0l0.2-0.3l0.1-0.1l0.1-0.1l0.1-0.1l0.1-0.1l0.1-0.1l0.1-0.1l0.1-0.1l0.1-0.1l0.1-0.1
	c-0.3-0.1-0.6-0.2-0.9-0.3l-0.5-0.2l-0.6-0.2c-0.4-0.2-0.9-0.4-1.3-0.7h-0.1L27.8,55c-1,0.3-1.8,0.9-2.2,1.9l-0.1,0.2v0.2l0,0
	c0,0.1-0.1,0.2-0.1,0.4l0,0l0,0c0,0.1,0,0.2,0,0.3s0,0.1,0,0.1v0.1c0,0.1,0,0.2,0,0.3s0,0.1,0,0.1l0,0v0.1c0,0.1,0,0.3,0.1,0.5v0.1
	c0,0.2,0.1,0.3,0.1,0.5v0.1l0,0c0,0.2,0.1,0.4,0.1,0.5l0,0l0.1,0.3l0.1,0.3l0,0l0.1,0.4l0,0l0.2,0.4c0.3,0.7,0.6,1.4,0.9,2
	s0.6,1.3,0.8,1.8c0.5-0.3,1.1-0.6,1.7-1s1.3-0.7,1.9-1.1l0,0L31.3,63.4z"/>
<path class="st5" d="M38,63.7L38,63.7l-0.1-0.1h-0.1h-0.1l0,0l-0.1-0.1l0,0l-0.1-0.1l0,0l-0.1-0.1l-0.1-0.1l0,0l-0.1-0.1L37,63l0,0
	l0,0l0,0l-0.2-0.2l0,0l0,0l-0.2-0.2l0,0l0,0l-0.1-0.2l-0.1-0.1l0,0l-0.1-0.2L36.2,62l-0.1-0.2L36,61.8l-0.1-0.2l-0.1-0.1l-0.1-0.2
	l-0.1-0.1v-0.1V61v-0.1c0-0.1-0.1-0.2-0.1-0.3s0-0.1,0-0.2v-0.1c0,0,0-0.1,0-0.1c0-0.1,0-0.1,0-0.2v-0.1c0-0.1,0-0.1,0-0.2
	s0-0.1,0-0.1s0-0.1,0-0.2s0-0.1,0-0.1s0-0.1,0-0.2V59l0,0c0-0.1,0-0.1,0-0.2s0,0,0-0.1s0.1-0.2,0.1-0.3v-0.1v-0.1v-0.1l0.1-0.1
	l0.1-0.2l0.1-0.1l0.1-0.2l0.1-0.1v-0.1c-0.3,0-0.6,0-0.9,0h-0.6L34,57.3c-0.5-0.1-1-0.1-1.4-0.2l-0.1,0.1l-0.1,0.1l-0.1,0.1
	l-0.1,0.1L32,57.4l-0.1,0.1l-0.1,0.1l-0.1,0.1l-0.1,0.1l-0.1,0.1L31.4,58l-0.1,0.1l-0.1,0.1l-0.1,0.1l-0.1,0.1v0.1l0,0L31,58.7
	L31,58.8l-0.1,0.1V59v0.1v0.1v0.2v0.1c0,0.1,0,0.2,0,0.2c0,0.1,0,0.3,0,0.4c0,0,0,0.1,0,0.1s0,0.2,0,0.3v0.2c0,0.1,0,0.2,0.1,0.2
	l0,0l0.1,0.2l0,0l0.1,0.2l0.1,0.2l0.1,0.2l0.1,0.3l0.2,0.3l0,0l0.1,0.1l0.1,0.2l0.2,0.3l0.1,0.1l0.1,0.1l0,0l0.1,0.1l0.2,0.3l0,0
	l0,0l0.3,0.3c0.5,0.6,1,1.1,1.4,1.7s0.9,1,1.3,1.5c0.4-0.5,0.9-1,1.3-1.5s1-1.1,1.5-1.6L38.3,64L38,63.7z"/>
<path class="st5" d="M14.1,37.6L14.1,37.6L14.1,37.6l0.1-0.1l0.3-0.2l0.1-0.1l0.2-0.2L15,37l0.2-0.1l0.1-0.1l0.2-0.1l0.1-0.1
	l0.2-0.1l0.1-0.1l0.2-0.1h0.1l0.3-0.1h0.1c0.3-0.1,0.7-0.2,1-0.2c0.2,0,0.4,0,0.5,0h0.2h0.1h0.2h0.1H19h0.1h0.1l0.1,0.1l0.1,0.1
	l0.2,0.1l0.1,0.1l0,0l0.2,0.1h0.1l0.3,0.2l0.1,0.1l0.1,0.1l0.1,0.1l0.1,0.1l0.1,0.1l0.1,0.1l0.1,0.2l0.1,0.1l0.1,0.1
	c0.1-0.3,0.2-0.6,0.3-0.9l0.2-0.5l0.2-0.6c0.2-0.4,0.4-0.9,0.7-1.3c0.4-0.6,0-0.1,0-0.1l0,0v-0.1l0,0v-0.2l0,0v-0.1l0,0l-0.1-0.2
	l0,0v-0.1l0,0l-0.1-0.1l0,0v-0.1l0,0L22.4,33l0,0l-0.1-0.1l0,0l-0.1-0.1l0,0l-0.1-0.1l0,0l-0.1-0.1l0,0l-0.1-0.1l0,0L22,32.4l0,0
	l-0.1-0.1l-0.1-0.1l0,0l-0.1-0.1l0,0l-0.1-0.1l0,0L21.5,32l0,0l-0.1-0.1l0,0l-0.1-0.1l0,0h-0.1h-0.1h-0.1l-0.2-0.1
	c-1.2-0.3-2.4-0.3-3.6,0.2l0,0L17.1,32l-0.4,0l0,0l-0.4,0.1l0,0l-0.4,0.2c-0.7,0.3-1.4,0.6-2,0.9s-1.3,0.6-1.8,0.8
	c0.3,0.5,0.6,1.1,1,1.7S13.7,37,14.1,37.6z"/>
<path class="st5" d="M16.5,31.1l0.4-0.1c1.2-0.4,2.4-0.6,3.7-0.3l0.4,0.1h0.1l0.2,0.1h0.1l0,0h0.1l0,0l0.2,0.1l0,0l0.1,0.1l0.2,0.1
	l0.1,0.1l0.1,0.1l0,0l0.1,0.1l0.1,0.1l0,0l0.1,0.1l0,0l0,0l0.1,0.1l0,0l0,0l0,0l0.2,0.2l0,0l0.1,0.1l0,0l0.1,0.1l0.1,0.1l0,0v0.1
	l0,0l0.1,0.2v0v0.1l0,0l0.1,0.2l0.1,0.1V33c0.2-0.2,0.4-0.5,0.6-0.7l0.4-0.4l0.4-0.5c0.3-0.4,0.7-0.7,1-1v-0.1c0,0,0-0.1,0-0.1
	s0-0.1,0-0.2l0,0c-0.1-0.2-0.2-0.5-0.3-0.7c-0.2-0.5-0.3-1-0.4-1.5l-0.1-0.1l-0.1-0.1l-0.1-0.1l-0.1-0.1l-0.2-0.2
	c-0.1-0.1-0.2-0.2-0.3-0.2l0,0L23.9,27l-0.2-0.1l0,0l0,0l-0.3-0.1h-0.1l-0.4-0.1h-0.1l-0.4-0.1h-0.1l-0.5-0.1h-0.1h-0.4h-1.1h-0.4
	c-0.7,0-1.5,0.1-2.2,0.2s-1.4,0.1-2,0.2c0.1,0.6,0.3,1.2,0.4,2S16.3,30.4,16.5,31.1z"/>
<path class="st5" d="M20.8,25.7h1H22h0.1h0.2h0.1h0.3h0.1h0.3h0.1h0.2h0.1l0,0l0.2,0h0.1h0.1l0.2,0.1l0,0h0.1l0.2,0.1l0,0h0.1l0,0
	l0.2,0.1l0.1,0.1h0.1l0.1,0.1l0.1,0.1l0.1,0c0-1.7,0.6-2.9,1.8-3.3c0.9-0.1,1.9,0.2,2.5,0.9l-0.1-0.1l0,0l-0.3-0.2h-0.1l-0.4-0.2
	h-0.1l-0.4-0.2h-0.1l-0.4-0.2h-0.1l-0.5-0.2l0,0l-0.6-0.2l0,0l-0.4-0.1l0,0l-0.4-0.1c-0.7-0.2-1.4-0.3-2.1-0.5s-1.4-0.3-1.9-0.5
	c0,0.6-0.1,1.3-0.2,2s-0.2,1.5-0.2,2.2h0.1L20.8,25.7z"/>
<path class="st5" d="M27.9,22.4L27.9,22.4L27.9,22.4l0.3,0.1l0,0h0.1l0.2,0.1h0.1l0.2,0.1h0.1l0,0l0.2,0.1l0.1,0.1l0.1,0.1l0.1,0.1
	l0.1,0.1l0.1,0.1l0.1,0.1l0,0L28,18.2c-0.2,0.5-0.4,1-0.7,1.5s-0.6,1.3-0.9,2c0.5,0.1,0.9,0.3,1.4,0.5L27.9,22.4z"/>
<path class="st5" d="M13.8,44.5L13.8,44.5c0.3-0.4,0.5-0.7,0.8-1l0,0c0.6-0.7,1.3-1.3,2.2-1.7c0.2-0.1,0.3-0.1,0.5-0.2h0.2h0.1h0.2
	h1h0.2H19l0,0h0.2h0.1l0.3,0.1h0.1h0.1h0.1l0.1,0l0.2,0.1l0.1,0.1l0.2,0.1l0.1,0.1h0.1c0-0.3,0-0.6,0-0.9s0-0.4,0-0.5s0-0.4,0.1-0.6
	c0.1-0.5,0.1-1,0.2-1.4l-0.1-0.1l0,0l-0.1-0.1l-0.1-0.1l0,0l-0.1-0.1L20.6,38l-0.1-0.1l0,0v-0.1v-0.1l-0.1-0.1l-0.1-0.1l0,0
	l-0.1-0.1l-0.1-0.1l-0.1-0.1l0,0l-0.1-0.1l-0.1-0.1l-0.1-0.1l-0.1,0L19.5,37l0,0h-0.1l0,0l-0.2-0.1h-0.1L19,36.9l0,0h-0.1h-0.1h-0.4
	c-0.1,0-0.3,0-0.4,0H18l-0.4,0h-0.1L17.2,37L17,37.1l-0.3,0.1l-0.2,0.1l-0.3,0.1L16,37.5l-0.3,0.2l-0.2,0.2l-0.3,0.2l-0.3,0.2
	l-0.1,0.1l-0.3,0.2l0,0l-0.3,0.3c-0.6,0.5-1.1,1-1.6,1.4s-1,1-1.5,1.3c0.4,0.4,1,0.9,1.5,1.4S13.2,44,13.8,44.5z"/>
<path class="st5" d="M17.5,47.7L17.5,47.7L17.5,47.7l0.1-0.1l0.1-0.1h0.1l0.2-0.2l0,0h0.1l0.1-0.1c0.2-0.1,0.4-0.2,0.7-0.3l0.4-0.1
	h0.1h0.3h0.1h0.1c0.2,0,0.4,0,0.6,0h0.2h0.1l0.4,0.1h0.1h0.2c-0.1-0.1-0.1-0.3-0.1-0.4s-0.1-0.3-0.1-0.4s-0.1-0.4-0.1-0.5
	s-0.1-0.4-0.1-0.6c-0.1-0.5-0.2-1-0.2-1.5l-0.1-0.1l-0.1-0.1l-0.1-0.1l-0.1-0.1l-0.1-0.1L20.1,43l-0.1-0.1l-0.1-0.1l-0.1-0.1h-0.1
	l0,0h-0.1h-0.1l0,0h-0.1l0,0h-0.1h-0.1H19l0,0h-0.1l0,0h-0.1l0,0h-0.1h-0.8h-0.2h-0.1c-0.6,0.2-1.2,0.5-1.7,1l0,0L15.7,44l0,0
	l-0.1,0.1l0,0l-0.2,0.2l0,0l-0.1,0.2l0,0L15,44.8l0,0l-0.2,0.2l0,0l-0.2,0.2l0,0l-0.2,0.3l0,0L14.2,46c-0.4,0.6-0.8,1.3-1.1,1.9
	s-0.7,1.2-1,1.7l0.1,0.1L17.5,47.7z"/>
<path class="st5" d="M22.7,51.2c0.3-0.1,0.7-0.1,1-0.1c-0.2-0.2-0.4-0.5-0.5-0.8l-0.3-0.5c-0.1-0.2-0.2-0.4-0.3-0.5
	c-0.2-0.4-0.4-0.9-0.6-1.3h-0.1h-0.1h-0.1h-0.1h-0.1h-0.1h-0.2l0,0h-0.1l0,0H21h-0.1h-0.2h-0.1h-0.2h-0.6c-0.8,0.9-1.8,2.4-1.4,3.6
	c0.4,0.8,1.2,1.4,2.1,1.5l0.1-0.2l0.1-0.2c0.3-0.4,0.7-0.6,1.2-0.9c0.2-0.1,0.3-0.1,0.5-0.2L22.7,51.2z"/>
<path class="st5" d="M24.9,52.4c-0.1-0.2-0.3-0.3-0.4-0.5h-0.7h-0.2h-0.1h-0.2h-0.1l0,0L22.8,52c-0.4,0.1-0.9,0.4-1.2,0.7
	C22.7,52.8,23.8,52.7,24.9,52.4z"/>
<path class="st5" d="M26.3,31.3L26,31.6L25.6,32l-0.3,0.4l-0.1,0.1l-0.1,0.1c-0.5,0.6-1,1.3-1.5,2l0,0c-0.1,0.2-0.3,0.4-0.4,0.7
	l-0.2,0.4l-0.2,0.5v0.1l-0.1,0.1c-0.3,0.7-0.6,1.5-0.8,2.3l0,0c-0.1,0.2-0.1,0.5-0.2,0.7s-0.1,0.3-0.1,0.5s0,0.3-0.1,0.5v0.1v0.2
	c-0.1,0.8-0.1,1.6,0,2.4l0,0c0,0.2,0,0.5,0.1,0.8s0,0.3,0.1,0.5s0.1,0.3,0.1,0.5v0.1V45c0.1,0.4,0.2,0.8,0.3,1.2s0.3,0.8,0.4,1.1
	l0,0c0.1,0.2,0.2,0.5,0.3,0.7l0,0l0.2,0.4l0.2,0.4l0.1,0.1l0.1,0.2c0.4,0.7,0.9,1.4,1.4,2l0,0c0.2,0.2,0.3,0.4,0.5,0.6l0,0l0.3,0.3
	l0.1,0.1c1.1-0.4,1.1-0.4,0,0l0.3,0.3l0.1,0.1l0.1,0.1c0.6,0.5,1.3,1,2,1.5l0,0l0.7,0.4l0,0l0.4,0.2l0.5,0.2H30l0.1,0.1
	c0.7,0.3,1.5,0.6,2.3,0.8l0,0l0.7,0.2l0.5,0.1l0.5,0.1h0.1h0.2c0.8,0.1,1.6,0.1,2.4,0l0,0l0.8-0.1l0.5-0.1l0.5-0.1h0.1h0.2
	c0.4-0.1,0.8-0.2,1.2-0.3s0.8-0.3,1.1-0.4l0,0l0.7-0.3l0.4-0.2l0.4-0.2l0.1-0.1l0.2-0.1c0.7-0.4,1.4-0.9,2-1.4l0,0
	c0.2-0.2,0.4-0.3,0.6-0.5l0.2-0.2c-0.8-2.3-2.7-5.6-4.8-5s-2.3,4.4-2.3,4.4l-2.9-9.3l0,0l-3.6-11.6c0,0-0.2,2.4-1.8,2.9
	C29,33.8,27.4,33.1,26.3,31.3z"/>
<path class="st6" d="M59.6,34.5l-5.8,1.8l-1.9,0.6c0.5-0.4,0.9-0.8,1.2-1.2c0.6-0.6,0.9-1.5,0.8-2.3c-0.3-1.1-1.6-1.7-3.2-1.8
	c-1,0-1.9,0.2-2.9,0.5c-0.5,0.1-0.9,0.3-1.4,0.6c-2.1,1.1-2.9,2.9-2.5,4.2c0.5,1.6,2.9,1.8,2.9,1.8l-11,3.4l2.9,9.3
	c0,0,0.1-3.7,2.3-4.4s4,2.7,4.8,5l0.1,0.3c0.1,0.2,0.1,0.4,0.2,0.6c0.2,0.9,0.3,1.8,0.2,2.8c0,0.4-0.1,0.8-0.2,1.2
	c-0.1,0.9-0.6,1.7-1.4,2.1c-1,0.3-2.3-0.5-3.2-1.2c-0.3-0.2-0.6-0.5-0.9-0.8l-0.3-0.3l0.2,0.8v0c0,0.1,0,0.1,0,0.2s0,0.1,0,0.2l0,0
	V58c0,0.1,0,0.1,0,0.2v0.1v0.2l0,0v0.1l0,0l0.1,0.2l0,0v0.1l0,0l0.1,0.2l0,0v0.1v0.1l0.1,0.2l0.1,0.1l1.9,6l0.5,1.7l25.3-7.9
	l-7.9-25.4L59.6,34.5z"/>
<path class="st7" d="M45.7,52c-0.8-2.3-2.7-5.6-4.8-5s-2.3,4.4-2.3,4.4l-2.9-9.3l-9.8,3.1c0,0,3.7,0.1,4.4,2.3
	c0.6,1.9-2.2,3.7-4.5,4.6l-0.8,0.3h-0.1c-1.1,0.3-2.2,0.4-3.4,0.4c-0.3,0-0.7-0.1-1-0.1c-0.9-0.1-1.7-0.6-2.1-1.5
	c-0.4-1.2,0.7-2.7,1.4-3.6c0.4-0.5,0.8-0.8,0.8-0.8l-3.1,1l-5.5,1.7L10,50.1l7.9,25.3l25.7-8l-0.5-1.7l-1.9-6l-0.6-2.1
	c0-0.1,0-0.1,0-0.2s0,0,0-0.1l0,0c0,0,0,0,0-0.1s0,0,0-0.1v-0.1l0,0c0.2,0.2,0.5,0.5,0.9,0.8c0.9,0.7,2.2,1.5,3.2,1.2
	c0.8-0.4,1.4-1.2,1.4-2.1c0.1-0.4,0.1-0.8,0.2-1.2c0-0.9,0-1.9-0.2-2.8c-0.1-0.2-0.1-0.5-0.2-0.6L45.7,52z"/>
<path class="st8" d="M32.1,30.6c0,0-0.2,2.4-1.8,2.9c-1.3,0.4-2.9-0.3-4-2.1c-0.2-0.3-0.4-0.7-0.6-1.1c-0.1-0.2-0.2-0.5-0.3-0.7
	c-0.2-0.5-0.3-1-0.4-1.5c-0.1-0.4-0.1-0.9-0.1-1.3c0-1.7,0.6-2.9,1.8-3.3c0.9-0.1,1.9,0.2,2.5,0.9c0.4,0.3,0.7,0.7,1,1.1l-0.6-1.9
	l-1.6-5.1l-0.6-2l-25.6,8l8,25.7l2.1-0.6l5.5-1.7l3.1-1c-0.3,0.3-0.5,0.5-0.8,0.8c-0.8,0.9-1.8,2.4-1.4,3.6c0.4,0.8,1.2,1.4,2.1,1.5
	c0.3,0.1,0.7,0.1,1,0.1c1.1,0.1,2.3,0,3.4-0.4h0.1c0.2-0.1,0.5-0.2,0.8-0.3c2.2-0.9,5.1-2.6,4.5-4.6c-0.7-2.2-4.4-2.3-4.4-2.3
	l9.8-3.1L32.1,30.6z"/>
<path class="st3" d="M61.3,42.4l0.4-0.3l-0.4-0.3c-0.6-0.5-1.3-1-1.9-1.6c-0.6-0.5-1.2-1.1-1.8-1.6l0,0c0.4-0.7,0.8-1.4,1.2-2.1
	c0.4-0.7,0.8-1.4,1.3-2.1l0.3-0.4L60,33.9c-0.8-0.3-1.5-0.6-2.3-1c-0.7-0.3-1.4-0.7-2.2-1l0,0c0.2-0.8,0.4-1.6,0.5-2.3
	c0.1-0.8,0.3-1.6,0.6-2.4l0.1-0.5h-0.5c-0.8,0-1.6-0.1-2.4-0.2c-0.8-0.1-1.6-0.2-2.4-0.2l0,0c-0.1-0.8-0.1-1.6-0.2-2.4
	c-0.1-0.8-0.2-1.6-0.2-2.5V21l-0.4,0.1c-0.8,0.2-1.6,0.4-2.4,0.6c-0.8,0.1-1.6,0.3-2.3,0.5l0,0c-0.3-0.8-0.6-1.5-1-2.2
	c-0.4-0.7-0.7-1.5-1-2.3l-0.1-0.5l-0.4,0.3c-0.7,0.5-1.4,0.9-2.1,1.3c-0.7,0.4-1.4,0.8-2.1,1.2l0,0c-0.5-0.6-1.1-1.2-1.6-1.8
	c-0.6-0.6-1.1-1.2-1.6-1.8l-0.3-0.4l-0.3,0.4c-0.5,0.6-1,1.3-1.6,1.9c-0.5,0.6-1.1,1.2-1.6,1.8l0,0c-0.7-0.4-1.4-0.8-2.1-1.2
	c-0.7-0.4-1.4-0.8-2.1-1.3l-0.4-0.3l-0.1,0.5c-0.3,0.8-0.6,1.5-1,2.3c-0.3,0.7-0.7,1.4-1,2.2l0,0c-0.8-0.2-1.6-0.4-2.3-0.5
	c-0.8-0.1-1.6-0.3-2.4-0.6L20.2,21v0.5c0,0.8-0.1,1.6-0.2,2.5c-0.1,0.8-0.2,1.6-0.2,2.4l0,0c-0.8,0-1.6,0.1-2.4,0.2
	c-0.8,0.1-1.6,0.2-2.4,0.2h-0.5l0.1,0.5c0.2,0.8,0.4,1.6,0.6,2.4c0.1,0.8,0.3,1.6,0.5,2.3l0,0c-0.8,0.3-1.5,0.6-2.2,1
	c-0.7,0.4-1.5,0.7-2.3,1l-0.4,0.1l0.3,0.4c0.5,0.7,0.9,1.4,1.3,2.1c0.4,0.7,0.8,1.4,1.2,2.1l0,0c-0.6,0.5-1.2,1.1-1.8,1.6
	c-0.6,0.6-1.2,1.1-1.9,1.6l-0.4,0.3l0.4,0.3c0.6,0.5,1.3,1,1.9,1.6c0.6,0.5,1.2,1.1,1.8,1.6l0,0c-0.4,0.7-0.8,1.4-1.2,2.1
	c-0.4,0.7-0.8,1.4-1.3,2.1l-0.3,0.4l0.4,0.1c0.8,0.3,1.5,0.6,2.2,1c0.7,0.3,1.4,0.7,2.2,1l0,0c-0.2,0.8-0.4,1.6-0.5,2.3
	c-0.1,0.8-0.3,1.6-0.5,2.4l-0.1,0.5h0.5c0.8,0,1.6,0.1,2.4,0.2c0.8,0.1,1.6,0.2,2.4,0.2l0,0c0.1,0.8,0.1,1.6,0.2,2.4
	c0.1,0.8,0.2,1.6,0.2,2.5v0.5l0.4-0.1c0.8-0.2,1.6-0.4,2.4-0.6c0.8-0.1,1.6-0.3,2.3-0.5l0,0c0.3,0.8,0.6,1.5,1,2.2
	c0.4,0.7,0.7,1.5,1,2.3l0.1,0.2h0.4l0.1-0.1c0.7-0.5,1.4-0.9,2.1-1.3c0.7-0.4,1.4-0.8,2.1-1.2l0,0c0.5,0.6,1.1,1.2,1.6,1.8
	c0.6,0.6,1.1,1.2,1.6,1.9l0.3,0.4l0.3-0.4c0.5-0.6,1-1.3,1.6-1.9c0.5-0.6,1.1-1.2,1.6-1.8l0,0c0.7,0.4,1.4,0.8,2.1,1.2
	c0.7,0.4,1.4,0.8,2.1,1.3l0.4,0.3l0.1-0.5c0.3-0.8,0.6-1.5,1-2.3c0.3-0.7,0.7-1.4,1-2.2l0,0c0.8,0.2,1.6,0.4,2.3,0.5
	c0.8,0.1,1.6,0.3,2.4,0.6l0.4,0.1v-0.5c0-0.8,0.1-1.6,0.2-2.5c0.1-0.8,0.2-1.6,0.2-2.4c0.8,0,1.6-0.1,2.4-0.2
	c0.8-0.1,1.6-0.2,2.4-0.2h0.5L56.7,57c-0.2-0.8-0.4-1.6-0.6-2.4c-0.1-0.8-0.3-1.5-0.5-2.3l0,0c0.8-0.3,1.5-0.6,2.2-1
	c0.7-0.4,1.5-0.7,2.3-1l0.4-0.1l-0.3-0.4c-0.5-0.7-0.9-1.4-1.3-2.1c-0.4-0.7-0.8-1.4-1.2-2.1l0,0c0.6-0.5,1.2-1.1,1.8-1.6
	C60.1,43.4,60.7,42.9,61.3,42.4z M57.4,33.6c0.7,0.3,1.3,0.6,1.9,0.8c-0.3,0.5-0.7,1.1-1.1,1.8s-0.8,1.3-1.2,2l-0.2,0.3l-0.2,0.3
	L56.6,39l-0.1,0.1l-0.1,0.2l-0.2,0.3L56,39.8l-0.2,0.3l-0.2,0.2l-0.2,0.2l-0.1,0l-0.1,0.1L55,40.8H55l-0.1,0.1l0,0l-0.2,0.1l0,0
	h-0.1h-0.1l-0.3,0.1l0,0h-0.1c-0.1,0.1-0.3,0.1-0.4,0.1l-0.3,0.1h-0.1h-0.1c-0.1,0-0.3,0-0.4,0l0,0c-0.7-0.1-1.4-0.4-2-0.9l-0.1-0.1
	l-0.1-0.1c-0.1-0.5-0.1-1-0.2-1.5c-0.1-0.3-0.1-0.6-0.2-0.9s-0.2-0.8-0.4-1.2c0.4,0.1,0.9,0.2,1.4,0.2l0,0c0.4,0,0.8-0.1,1.2-0.2
	l0,0l0.3-0.1l0,0h0.1l0,0c0.1-0.1,0.3-0.1,0.4-0.2l0.2-0.2l0,0l0.1-0.1l0.2-0.1l0.1-0.1l0.1-0.1l0.1-0.1l0.1-0.1l0.1-0.1l0.1-0.1
	l0.1-0.1l0.1-0.1v-0.1v0l0.1-0.2l0,0v-0.1l0.1-0.2l0,0l0.1-0.1l0.1-0.2l0,0v-0.1l0.1-0.2V34l0.1-0.3l0,0l0.1-0.2l0,0v-0.1v0v-0.1
	v-0.1V33v-0.1v-0.1l0,0v-0.1C56.1,33,56.7,33.3,57.4,33.6L57.4,33.6z M49.7,44L49.7,44c-0.1,0.4-0.1,0.8-0.2,1.2l0,0
	c-0.2,0.8-0.4,1.6-0.8,2.4c-0.1,0.2-0.2,0.4-0.3,0.6l0,0c-0.2,0.4-0.4,0.8-0.6,1.1l0,0c-0.4,0.7-0.9,1.4-1.5,2l-0.4,0.5l-0.5,0.5
	L45,52.6c-0.6,0.6-1.3,1.1-2,1.5l-0.6,0.3l0,0c-0.4,0.2-0.8,0.4-1.1,0.5l0,0c-0.8,0.3-1.6,0.6-2.4,0.8l-0.6,0.1l0,0
	C37.8,56,37.4,56,37,56.1l0,0c-0.4,0-0.8,0.1-1.2,0.1s-0.8,0-1.2-0.1L33.8,56l0,0c-0.4-0.1-0.8-0.1-1.2-0.2l0,0
	c-0.8-0.2-1.6-0.4-2.4-0.8l-0.6-0.3l0,0c-0.4-0.2-0.8-0.4-1.1-0.6l0,0c-0.7-0.4-1.4-0.9-2-1.5l-0.4-0.4l0,0
	c-0.3-0.3-0.6-0.6-0.9-0.9l0,0c-0.6-0.6-1-1.3-1.5-2c-0.1-0.2-0.2-0.4-0.3-0.5l0,0c-0.2-0.4-0.4-0.8-0.6-1.1l0,0
	c-0.3-0.8-0.6-1.6-0.8-2.4c0-0.2-0.1-0.4-0.1-0.6l0,0c-0.1-0.4-0.1-0.8-0.2-1.2l0,0c0-0.4-0.1-0.8-0.1-1.2s0-0.8,0.1-1.3
	c0-0.2,0-0.4,0.1-0.6l0,0c0.1-0.4,0.1-0.8,0.2-1.2l0,0c0.2-0.8,0.4-1.6,0.8-2.4c0.1-0.2,0.2-0.4,0.3-0.6l0,0
	c0.2-0.4,0.4-0.8,0.6-1.1l0,0c0.4-0.7,0.9-1.4,1.5-2l0,0l0.4-0.5l0,0c0.3-0.3,0.6-0.6,0.9-0.9l0,0c0.6-0.6,1.3-1,2-1.5l0.6-0.3l0,0
	c0.4-0.2,0.8-0.4,1.1-0.5l0,0c0.8-0.3,1.6-0.6,2.4-0.8l0.6-0.1l0,0c0.4-0.1,0.8-0.1,1.2-0.2l0,0c0.4,0,0.8-0.1,1.2-0.1
	s0.8,0,1.2,0.1l0.6,0.1l0,0c0.4,0.1,0.8,0.1,1.2,0.2l0,0c0.8,0.2,1.6,0.4,2.4,0.8l0.6,0.3l0,0c0.4,0.2,0.8,0.4,1.1,0.6l0,0
	c0.7,0.4,1.4,0.9,2,1.5l0.4,0.4l0,0c0.3,0.3,0.6,0.6,0.9,0.9l0,0c0.6,0.6,1,1.3,1.5,2c0.1,0.2,0.2,0.4,0.3,0.6l0,0
	c0.2,0.4,0.4,0.8,0.6,1.1l0,0c0.3,0.8,0.6,1.6,0.8,2.4c0,0.2,0.1,0.4,0.1,0.6l0,0c0.1,0.4,0.1,0.8,0.2,1.2l0,0
	c0,0.4,0.1,0.8,0.1,1.2s0,0.8-0.1,1.3C49.7,43.6,49.7,43.8,49.7,44z M53.7,27.3c0.8,0.1,1.5,0.2,2.1,0.2c-0.2,0.6-0.3,1.3-0.4,2
	s-0.3,1.5-0.5,2.2c0,0.1-0.1,0.2-0.1,0.4l-0.1,0.3l-0.1,0.2l-0.1,0.3l-0.1,0.4l-0.1,0.3l-0.1,0.3l-0.1,0.2l-0.1,0.3l-0.1,0.2
	c-0.1,0.1-0.1,0.2-0.2,0.3L53.6,35l-0.2,0.2l-0.1,0.1l-0.2,0.2L53,35.7c-0.1,0.1-0.2,0.2-0.3,0.2l0,0c-0.5,0.3-1.1,0.5-1.6,0.5h-0.3
	h-0.2h-0.1h-0.1h-0.1H50h-0.1h-0.1l-0.2,0l-0.1,0l0,0l-0.2-0.1h-0.1c-0.2-0.5-0.4-0.9-0.7-1.3c-0.2-0.3-0.3-0.5-0.5-0.8
	s-0.5-0.7-0.8-1c0.5,0,0.9-0.1,1.4-0.2l0,0c0.2-0.1,0.3-0.1,0.4-0.2h0.1c0.1-0.1,0.3-0.2,0.4-0.2h0.1l0.1-0.1l0.2-0.1l0.1-0.1
	c0.1-0.1,0.2-0.2,0.3-0.4c0.1-0.1,0.1-0.1,0.2-0.2l0.1-0.2l0-0.4c0.1-0.1,0.1-0.2,0.2-0.3s0.1-0.1,0.1-0.2s0.1-0.2,0.1-0.3l0,0V30
	c0-0.1,0.1-0.2,0.1-0.3s0-0.2,0.1-0.3v-0.2v-0.2c0-0.1,0-0.2,0-0.3s0-0.2,0-0.4s0-0.1,0-0.2s0-0.1,0-0.2s0-0.3,0-0.4s0-0.1,0-0.1
	s0-0.1,0-0.2s0-0.1,0-0.2C52.2,27.1,53,27.2,53.7,27.3z M48.3,22.4c0.7-0.1,1.4-0.3,2-0.5c0,0.6,0.1,1.3,0.2,2.1s0.2,1.5,0.2,2.3
	c0,0.1,0,0.2,0,0.4s0,0.2,0,0.3s0,0.2,0,0.2s0,0.2,0,0.3s0,0.2,0,0.4s0,0.2,0,0.3s0,0.2,0,0.3v0.3c0,0.1,0,0.2,0,0.3s0,0.2,0,0.2
	s0,0.2-0.1,0.3s0,0.1-0.1,0.2s-0.1,0.2-0.1,0.3s0,0.1-0.1,0.2s-0.1,0.2-0.1,0.3l-0.1,0.1c-0.1,0.1-0.2,0.2-0.2,0.3
	c-0.1,0.1-0.2,0.2-0.3,0.3l-0.1,0.1c-0.1,0.1-0.2,0.2-0.4,0.3l0,0c-0.2,0.1-0.3,0.2-0.5,0.2l0,0c-0.2,0.1-0.3,0.1-0.5,0.2h-0.1H48
	c-0.2,0-0.5,0.1-0.8,0.1h-0.4h-0.2c-0.3-0.4-0.7-0.7-1.1-1c-0.2-0.2-0.5-0.4-0.7-0.6s-0.7-0.5-1-0.8l0,0l0.2-0.1l0,0h0.1l0,0
	l0.2-0.1h0.1l0.3-0.1l0,0l0.2-0.1l0,0h0.1l0,0l0.2-0.1l0,0l0.1-0.1l0,0l0.1-0.1l0,0l0,0l0,0l0.1-0.1l0.1-0.1l0.1-0.1l0,0v-0.1l0,0
	l0.1-0.2v-0.1l0,0l0.1-0.2v-0.1c0-0.1,0.1-0.2,0.1-0.3s0.1-0.2,0.1-0.2s0-0.1,0.1-0.2l0,0c0,0,0-0.1,0-0.1s0-0.2,0.1-0.3
	s0-0.1,0-0.2s0-0.2,0-0.3s0,0,0,0s0-0.1,0-0.2s0-0.2,0-0.3s0-0.2,0-0.3v-0.2v-0.2v-0.1c0-0.1,0-0.1,0-0.2s-0.1-0.2-0.1-0.4l-0.1-0.2
	v-0.1v0l-0.1-0.3L46,23.5l-0.1-0.2C46.7,22.7,47.5,22.6,48.3,22.4L48.3,22.4z M41.6,19.5c0.7-0.4,1.3-0.7,1.8-1.1
	c0.2,0.6,0.5,1.2,0.8,1.9s0.6,1.4,0.9,2.1l0.1,0.4l0.1,0.3l0.1,0.2l0.1,0.3l0.1,0.4l0.1,0.3c0,0.1,0.1,0.2,0.1,0.3l0.1,0.3
	c0,0.1,0,0.2,0,0.3s0,0.2,0,0.2s0,0.2,0,0.3s0,0.1,0,0.2s0,0.2,0,0.3s0,0.1,0,0.2s0,0.2,0,0.3s0,0.1,0,0.1c0,0.1-0.1,0.3-0.1,0.4
	c0,0.1-0.1,0.2-0.1,0.2l0,0l0,0l-0.1,0.2l-0.1,0.1l-0.1,0.1l-0.1,0.1L45.3,28l0,0l0,0l-0.1,0.1l-0.1,0.1l-0.1,0.1l-0.1,0.1l-0.1,0.1
	h-0.1l-0.2,0.1h-0.1l0,0l-0.2,0.1l0,0h-0.1L44,28.8h-0.1l-0.2,0.1h-0.1l-0.2,0.1h-0.1h-0.2c-0.4-0.2-0.9-0.5-1.3-0.7
	c-0.3-0.1-0.6-0.2-0.9-0.4s-0.8-0.3-1.2-0.4l0,0l0.2-0.1l0.1-0.1l0.2-0.1l0.1-0.1l0.2-0.2l0,0l0.2-0.2v-0.1l0,0l0.1-0.2l0.1-0.1
	l0.1-0.2L41,26l0.1-0.2l0.1-0.1l0.1-0.2v-0.1v-0.2v-0.1c0-0.1,0-0.1,0-0.2v-0.1c0-0.1,0-0.2,0-0.3s0-0.2,0-0.3s0-0.1,0-0.2
	s0-0.1,0-0.2s0-0.2,0-0.3l0,0c0-0.1,0-0.1,0-0.2v-0.2v-0.2l-0.1-0.2l0,0c0-0.1-0.1-0.2-0.1-0.3v-0.1l-0.1-0.1c0-0.1-0.1-0.2-0.2-0.3
	l0,0v-0.1l-0.1-0.2l-0.2-0.3l-0.1-0.2l-0.1-0.1L40.2,21l-0.1-0.2l0,0l-0.2-0.3l0,0l-0.1-0.2C40.2,20.2,40.9,19.9,41.6,19.5
	L41.6,19.5z M34.3,18.8c0.5-0.5,1-1.1,1.4-1.6c0.4,0.5,0.9,1,1.4,1.5s1,1.1,1.5,1.7l0.2,0.3l0,0L39,21l0.1,0.2l0.2,0.2l0.2,0.3
	l0.1,0.2l0,0l0.2,0.3l0.1,0.2l0.1,0.1l0.1,0.2l0.1,0.2l0.1,0.3v0.1v0.1v0.1l0.1,0.2v0.1V24c0,0.1,0,0.2,0,0.3s0,0.1,0,0.1
	c0,0.1,0,0.3,0,0.4c0,0.1,0,0.2,0,0.3v0.1c0,0.1,0,0.1,0,0.2v0.1v0.2v0.1l-0.1,0.1v0.1l-0.1,0.1v0.1l0,0v0.1v0.1v0.1l0,0l-0.1,0.1
	l-0.1,0.1l-0.1,0.1l0,0L40,26.8l-0.1,0.1l-0.1,0.1L39.8,27l-0.1,0.1l-0.1,0.1l0,0l-0.1,0.1l-0.1,0.1l0,0l-0.1,0.1l-0.1,0.1L39,27.6
	c-0.5-0.1-1-0.2-1.5-0.2c-0.3,0-0.6,0-0.9-0.1H36h-0.6l0,0l0.1-0.2l0.1-0.1l0.1-0.2l0.1-0.1l0.1-0.3v-0.1l0.1-0.2V26l0,0l0.1-0.2
	v-0.1c0-0.1,0-0.1,0-0.2s0-0.1,0-0.1v-0.2c0,0,0-0.1,0-0.1s0-0.1,0-0.2s0-0.1,0-0.1s0-0.1,0-0.2s0-0.1,0-0.1s0-0.1,0-0.2v-0.1
	c0-0.1,0-0.2-0.1-0.3c0-0.1-0.1-0.2-0.1-0.3l-0.1-0.1l0,0c-0.1-0.1-0.1-0.3-0.2-0.4l0,0l0,0c-0.1-0.1-0.1-0.2-0.2-0.3l0,0l0,0
	c-0.1-0.1-0.2-0.2-0.3-0.4L35,22.3L34.7,22L34.7,22l0,0l-0.1-0.1l-0.2-0.2l-0.1-0.1l0,0l0,0l0,0l-0.3-0.2l-0.1-0.1l-0.1-0.1l0,0
	L33.5,21l-0.4-0.3l0,0C33.3,19.9,33.8,19.3,34.3,18.8L34.3,18.8z M27.2,20.4c0.3-0.7,0.6-1.3,0.8-1.9c0.5,0.3,1.1,0.7,1.8,1.1
	s1.3,0.8,2,1.1l0.3,0.2l0.2,0.2l0.2,0.1l0.3,0.2l0.3,0.2l0,0l0.2,0.2l0.3,0.2l0.1,0.1l0.1,0.1l0.2,0.2l0.2,0.2l0.2,0.2l0.1,0.1
	l0.1,0.1l0.2,0.2v0.1l0.1,0.1v0.1l0.1,0.2v0.1v0.1c0.1,0.1,0.1,0.3,0.1,0.4c0,0.1,0,0.2,0.1,0.2s0,0.1,0,0.1s0,0.1,0,0.2
	s0,0.1,0,0.1s0,0.1,0,0.2s0,0.1,0,0.1s0,0.1,0,0.1v0.1c0,0,0,0.1,0,0.1l0,0v0.1v0.1v0.1v0.1V26l0,0L35,26.1l-0.1,0.1l-0.1,0.1
	l-0.1,0.1l-0.1,0.1l0,0l-0.1,0.1l-0.1,0.1L34.5,27l-0.1,0.1l-0.1,0.1l-0.1,0.1c-0.5,0.1-1,0.1-1.5,0.2c-0.3,0.1-0.6,0.1-0.9,0.2
	S31,28,30.6,28.1l0,0l0.1-0.2v-0.1c0-0.1,0-0.2,0.1-0.3l0,0c0-0.2,0-0.4,0-0.5v-0.1c0-0.1,0-0.2,0-0.2s0,0,0-0.1s0-0.2,0-0.2v-0.1
	c0-0.1,0-0.1,0-0.2V26l-0.1-0.2v-0.1l-0.1-0.2v-0.1l-0.1-0.2v-0.1l-0.1-0.3l-0.2-0.2l0,0l-0.1-0.1L30,24.4l-0.1-0.1l-0.1-0.1
	l-0.1-0.1L29.5,24l0,0l-0.1,0l-0.1-0.1h-0.1h-0.1h-0.1L29,23.7H29l0,0h-0.1l-0.1-0.1h-0.1l0,0h-0.1h-0.1h-0.1l0,0l-0.2-0.1h-0.1l0,0
	L27.7,23h-0.1h-0.1l0,0l-0.1-0.1l-0.1,0l0,0l-0.2-0.1h-0.1H27l0,0h-0.1h-0.1h-0.1h-0.1h-0.2h-0.1h-0.1C26.5,21.7,26.8,21,27.2,20.4
	L27.2,20.4z M20.9,24.1c0.1-0.8,0.2-1.5,0.2-2.1c0.6,0.2,1.3,0.3,2,0.5s1.5,0.3,2.2,0.5l0.4,0.1l0.3,0.1l0.2,0.1l0.3,0.1l0.4,0.1
	l0.3,0.1l0.3,0.1l0,0l0.2,0.1l0.3,0.1l0,0l0.2,0.1l0.2,0.1l0,0l0.2,0.1l0.1,0.1l0.1,0.1l0.1,0.1l0.2,0.2l0,0l0.1,0.1l0.1,0.1
	c0.1,0.1,0.1,0.1,0.2,0.2l0.1,0.2l0.1,0.1v0.1v0.1l0,0l0.1,0.2v0.1v0.2v0.1c0,0,0,0.1,0,0.2s0,0.1,0,0.1s0,0.1,0,0.2s0,0.1,0,0.1
	l0,0c0,0,0,0.1,0,0.2s0,0.1,0,0.1s0,0,0,0s0,0.1,0,0.2s0,0.1,0,0.1s0,0.1,0,0.2v0.1v0.1v0.1v0.2V28l0,0l-0.1,0.2v0v0.1l-0.1,0.1
	c-0.5,0.2-0.9,0.4-1.3,0.7c-0.3,0.2-0.5,0.3-0.8,0.5s-0.7,0.5-1,0.8l0,0c0-0.1,0-0.1,0-0.2l0,0l0,0c0,0,0-0.1,0-0.1s0-0.1,0-0.2
	s0-0.1,0-0.1s0-0.2,0-0.3l0,0v-0.1l0,0l-0.1-0.2v-0.1l0,0V29V29v-0.1l0,0l-0.1-0.1l0,0v-0.1l0,0l-0.1-0.1l0,0l-0.1-0.1v-0.1
	l-0.1-0.1l0,0L25.7,28l0,0l-0.1-0.1l0,0v0l0,0l-0.1-0.1l-0.1-0.1l-0.2-0.2L25,27.2c-1.1-0.7-2.4-1-3.7-0.9h-0.5
	C20.7,25.6,20.7,24.8,20.9,24.1L20.9,24.1z M15.6,27.5c0.6,0,1.3-0.1,2.1-0.2s1.5-0.2,2.3-0.2l0,0h0.4h0.9c1.2-0.1,2.5,0.2,3.5,0.9
	c0.1,0.1,0.2,0.2,0.3,0.3l0,0l0,0l0.1,0.1l0,0l0.1,0.1l0,0l0.1,0.1l0.1,0.1l0,0v0.1l0,0v0v0.1V29l0,0v0.1l0,0v0.1v0.1v0.1v0.1l0,0
	v0.1l0,0v0.1l0,0v0.1l0,0l0,0c0,0,0,0.1,0,0.1s0,0.1,0,0.1l0,0c0,0,0,0.1,0,0.1s0,0,0,0.1v0c0,0,0,0,0,0.1l0,0c0,0,0,0.1,0,0.1
	c0,0,0,0,0,0l0,0V31l0,0c0,0,0,0.1,0,0.1l0,0c-0.4,0.3-0.7,0.7-1.1,1l0,0c-0.2,0.2-0.4,0.5-0.6,0.7l0,0c-0.3,0.3-0.5,0.7-0.8,1l0,0
	v-0.1v-0.1v-0.1l-0.1-0.2v-0.1L22.6,33l0,0l-0.1-0.2l0,0v0l0,0l-0.1-0.2l-0.1-0.1l-0.1-0.1L22,32.2l-0.1-0.1l0,0L21.8,32l-0.1-0.1
	l0,0l0,0l-0.1,0l-0.1-0.1l-0.1-0.1l-0.1-0.1h-0.1l-0.1,0l0,0l-0.2-0.1l-0.2-0.1l0,0l-0.4-0.1h-0.1h-0.3h-0.1h-0.4h-0.5h-0.2h-0.1
	h-0.2l0,0h-0.1l0,0h-0.2h-0.1h-0.1l-0.2,0.1h-0.2l-0.2,0.1l-0.2,0l0,0l-0.3,0.1l0,0h-0.1h-0.1h-0.1c-0.2-0.8-0.3-1.5-0.5-2.2
	S15.7,28.1,15.6,27.5L15.6,27.5z M13.1,36.2c-0.4-0.7-0.7-1.3-1.1-1.8c0.6-0.2,1.2-0.5,1.9-0.8s1.4-0.6,2.1-0.9l0.4-0.1l0.3-0.1
	l0.2-0.1l0.3-0.1l0.4-0.1h0.1h0.1l0.4-0.1h0.2l0,0l0.4-0.1H19h0.3h0.6l0.3,0h0.1c0.1,0,0.3,0.1,0.4,0.1l0.3,0.1h0.1l0.3,0.2l0,0l0,0
	l0.2,0.1l0,0l0,0l0.1,0.1l0.1,0.1L22,33l0,0l0,0l0.1,0.1v0.1l0,0l0.1,0.1l0.1,0.1v0.1v0v0.1l0,0l0.1,0.1v0.1l0,0l0.1,0.1v0.1v0.2
	v0.1v0.1c-0.2,0.4-0.5,0.9-0.7,1.3c-0.1,0.3-0.2,0.6-0.4,0.9S21,37.6,20.9,38l0,0l-0.1-0.1l-0.1-0.1l-0.1-0.1l-0.1-0.2l-0.1-0.1l0,0
	l-0.2-0.2l0,0l0,0l0,0l0,0l-0.2-0.2l-0.1,0l0,0L19.8,37l0,0l0,0h-0.1l-0.1-0.1l-0.1,0l0,0l-0.1-0.1l0,0h-0.1l0,0l-0.1,0l0,0H19l0,0
	h-0.1l0,0h-0.1l0,0h-0.1h-0.1h-0.1l0,0h-0.3h-0.6h-0.2h-0.1h-0.1l0,0l-0.2,0.1l-0.2,0.1l0,0h-0.1l0,0h-0.1L16.1,37L16,37.1h-0.1
	l-0.2,0.1l0,0l-0.3,0.2l0,0l-0.3,0.2l-0.3,0.2l-0.3,0.2l-0.2,0.2l0,0l0,0l-0.2,0.1C13.8,37.5,13.4,36.9,13.1,36.2L13.1,36.2z
	 M12.4,43.5c-0.6-0.5-1.1-1-1.6-1.4c0.5-0.4,1-0.9,1.6-1.4s1.1-1,1.7-1.5l0.3-0.2l0.2-0.2l0.2-0.1l0.2-0.2l0.2-0.1l0.2-0.1l0.2-0.1
	l0.3-0.2l0.1-0.1l0.1-0.1l0.3-0.2l0.1-0.1h0.1l0.3-0.1H17H17l0.3-0.1h0.1h0.1l0.3,0h0.2h0.6h0.2l0,0h0.1l0.3,0.1h0.1h0.1h0.1h0.1
	l0,0l0.1,0.1l0,0l0.1,0.1l0.1,0.1l0.1,0.1l0.1,0.1l0.1,0.1l0,0l0.1,0.1l0,0l0.1,0.1l0,0l0.1,0.1l0.1,0.1l0.1,0.1l0.1,0.1l0.1,0.1
	l0.1,0.1l0.1,0.1l0,0l0.1,0.1l0,0l0.1,0.1c-0.1,0.5-0.2,1-0.2,1.5c0,0.3-0.1,0.6-0.1,0.9s0,0.4,0,0.6s0,0.4,0,0.6h-0.1l-0.3-0.2
	l-0.1-0.1l0,0l0,0l-0.3-0.1l-0.2-0.1L19.6,42l0,0L19.4,42l-0.3-0.1l0,0H19l0,0h-0.4l0,0h-0.4L17.7,42h-0.1h-0.1l0,0l-0.3,0.1l-0.1,0
	l0,0H17l-0.3,0.1l0,0h-0.1l0,0l-0.3,0.2l0,0l-0.1,0L16,42.7l-0.1,0l0,0L15.7,43l-0.3,0.3l-0.1,0.1l0,0l-0.1,0.1l-0.4,0.4l-0.1,0.1
	l-0.3,0.3l-0.1,0.1v0.1l-0.1,0.1L14.1,45l0,0C13.5,44.5,12.9,44,12.4,43.5L12.4,43.5z M13.9,50.6c-0.7-0.3-1.3-0.6-1.9-0.8
	c0.3-0.5,0.7-1.1,1-1.8s0.8-1.3,1.2-2l0.2-0.3l0.2-0.3l0.1-0.2l0.2-0.2l0,0l0.2-0.3l0.1-0.1l0.1-0.1l0.2-0.3l0.1-0.1l0.2-0.2
	l0.2-0.2l0,0l0.1-0.1l0.2-0.2l0.1-0.1l0.3-0.2l0,0h0.1l0.4-0.2l0,0c0.1-0.1,0.3-0.1,0.4-0.1l0.4-0.1H18h0.4l0,0h0.3l0,0h0.2l0,0h0.2
	l0,0h0.1l0,0h0.1h0.1h0.1l0.2,0.1l0,0l0,0l0.1,0.1h0.1l0,0l0,0L20,43l0,0l0,0l0.2,0.1l0,0l0,0l0.1,0.1l0.1,0.1l0.1,0.1l0.1,0.1
	c0.1,0.5,0.1,1,0.2,1.5c0.1,0.3,0.1,0.6,0.2,0.9s0.2,0.8,0.4,1.2c-0.4-0.1-0.9-0.2-1.4-0.2l0,0c-0.4,0-0.8,0.1-1.2,0.2l-0.3,0.1
	h-0.1c-0.1,0.1-0.3,0.1-0.4,0.2l-0.2,0.2l0,0l-0.1,0.1l-0.2,0.1l-0.1,0.1l-0.1,0.1L17.2,48l-0.1,0.1l0,0v0.1l-0.1,0.1v0.1v0
	l-0.1,0.1v0.1v0l-0.1,0.2L16.7,49l-0.1,0.1l0,0l-0.1,0.1l-0.1,0.1v0.1v0.1l-0.1,0.2l0,0c-0.1,0.2-0.1,0.4-0.2,0.6l0,0l0,0l-0.1,0.1
	v0.1l0,0l-0.1,0.2v0.1l0,0V51C15.3,51.3,14.6,50.9,13.9,50.6L13.9,50.6z M17.7,56.9c-0.8-0.1-1.5-0.2-2.1-0.2c0.2-0.6,0.3-1.3,0.4-2
	s0.3-1.5,0.5-2.2l0.1-0.4c0-0.1,0.1-0.2,0.1-0.3l0.1-0.2l0.1-0.3l0.1-0.4l0.1-0.3l0.1-0.3l0.1-0.3l0.1-0.3v-0.1l0.1-0.1l0.1-0.1
	l0.1-0.1l0.1-0.1l0,0l0.2-0.2l0.1-0.1l0.1-0.1l0.1-0.1l0.1-0.1c0.1-0.1,0.2-0.2,0.3-0.2c0.5-0.3,1.1-0.5,1.7-0.5h0.4h0.1H21h0.1h0.2
	h0.1l0,0h0.2h0.1h0.1l0,0l0.2,0.1h0.1c0.2,0.5,0.4,0.9,0.7,1.3c0.2,0.3,0.3,0.5,0.5,0.8s0.5,0.7,0.8,1c-0.5,0-0.9,0.1-1.4,0.2
	c-0.7,0.2-1.3,0.6-1.8,1.2l-0.2,0.2l0,0l0.1,0.4l-0.1,0.2l-0.1,0.1l-0.1,0.2l-0.1,0.1l-0.1,0.2v0.1L20.3,54v0.1v0.2v0.1v0.2v0.1v0.2
	v0.1v0.1v0.2v0.1c0,0,0,0.1,0,0.2v0.1c0,0.1,0,0.3,0,0.4s0,0.1,0,0.1s0,0.1,0,0.2v0.3c0,0,0,0.1,0,0.1v0.2
	C19.1,57.1,18.4,57,17.7,56.9L17.7,56.9z M23.1,61.8c-0.7,0.1-1.4,0.3-2,0.5c0-0.6-0.1-1.3-0.2-2.1s-0.2-1.5-0.2-2.3
	c0-0.1,0-0.2,0-0.4s0-0.2,0-0.3s0-0.2,0-0.2s0-0.2,0-0.3s0-0.1,0-0.1s0-0.2,0-0.3v-0.1c0,0,0-0.1,0-0.1s0-0.2,0-0.4v-0.2v-0.1
	c0-0.1,0-0.2,0-0.3V55v-0.2c0-0.1,0-0.2,0.1-0.3v-0.1v-0.1c0-0.1,0.1-0.2,0.1-0.3l0.1-0.2c0-0.1,0.1-0.2,0.1-0.3v-0.1v-0.1
	c0.1-0.1,0.2-0.2,0.2-0.3c0.1-0.1,0.2-0.2,0.3-0.3c0.7-0.6,1.5-0.9,2.4-0.9h0.8c0.3,0.4,0.7,0.7,1.1,1c0.2,0.2,0.5,0.4,0.7,0.6
	s0.7,0.5,1,0.8l0,0l-0.2,0.1h-0.1L27,54.5h-0.1l-0.3,0.1l0,0l-0.2,0.1l-0.1,0l0,0L26.1,55l-0.1,0.1l-0.1,0.1l-0.1,0.1l-0.1,0.1
	l-0.1,0.1l-0.1,0.1l-0.1,0.1l-0.1,0.1L25.3,56l-0.1,0.2v0.1c0,0.1-0.1,0.2-0.1,0.3S25,56.7,25,56.8l0,0v0.1l0,0V57v0.1
	c0,0,0,0.1,0,0.1s0,0.1,0,0.2V58c0,0,0,0.1,0,0.1s0,0.1,0,0.1v0.1c0,0,0,0,0,0.1s0,0.1,0,0.2v0.3c0,0,0,0.1,0,0.1v0.2v0.1v0.1l0,0
	l0,0v0.1l0.1,0.2v0.1l0.1,0.3l0,0l0.1,0.2v0.1l0.1,0.2v0.1l0.1,0.2v0.1v0.1C24.6,61.5,23.8,61.6,23.1,61.8L23.1,61.8z M29.8,64.7
	c-0.7,0.4-1.3,0.7-1.8,1c-0.2-0.6-0.5-1.2-0.8-1.9s-0.6-1.4-0.9-2.1l-0.1-0.4v-0.1L26,61.1L26,60.9l0,0l-0.1-0.3l-0.1-0.4v0L25.7,60
	c0-0.1-0.1-0.2-0.1-0.3v-0.1v-0.2c0-0.1,0-0.2,0-0.3s0-0.2,0-0.2s0-0.2,0-0.3s0,0,0,0s0-0.1,0-0.2s0-0.2,0-0.3l0,0
	c0-0.1,0-0.1,0-0.2l0,0c0-0.1,0-0.2,0-0.3s0-0.1,0-0.1c0-0.1,0.1-0.3,0.1-0.4l0.1-0.2v-0.1l0.1-0.1l0.1-0.1l0.1-0.1l0.1-0.1l0.1-0.1
	l0.1-0.1l0.1-0.1l0.1-0.1l0.1-0.1l0.1-0.1l0.1-0.1l0.1-0.1l0.1-0.1l0.1-0.1l0.1-0.1l0.1-0.1l0.1-0.1l0.1,0l0.1,0H28h0.1h0.1h0.1
	c0.4,0.2,0.9,0.5,1.3,0.7c0.3,0.1,0.6,0.2,0.9,0.4s0.8,0.3,1.2,0.4l0,0l-0.2,0.1l-0.1,0.1L31.4,57L31.3,57l-0.2,0.2l0,0l-0.2,0.2
	v0.1l0,0l-0.1,0.2l-0.1,0.1L30.6,58l-0.1,0.1l-0.1,0.2v0.1l-0.1,0.2v0.1c0,0.1,0,0.1-0.1,0.2v0.1c0,0.1,0,0.1,0,0.2v0.1
	c0,0.1,0,0.2,0,0.3s0,0.2,0,0.3l0,0c0,0,0,0.1,0,0.1s0,0.1,0,0.2l0,0c0,0,0,0.1,0,0.1s0,0.1,0,0.2v0.1v0.2l0,0v0.1v0.1V61v0.1v0.1
	v0.1v0.1v0.1v0.1v0.1l0.1,0.2l0,0v0.1l0.1,0.1v0.1l0,0l0,0l0.1,0.1l0.1,0.1v0.1l0,0v0.1l0.1,0.1l0,0l0.1,0.2l0.1,0.1l0,0L31,63l0,0
	l0,0l0.3,0.4C31.1,64,30.4,64.3,29.8,64.7L29.8,64.7z M37.1,65.4c-0.5,0.5-1,1.1-1.4,1.5c-0.4-0.5-0.9-1-1.4-1.6s-1-1.1-1.5-1.7
	l-0.2-0.3l0,0l-0.2-0.2L32.2,63L32,62.8l-0.2-0.3l-0.2-0.2l0,0l-0.2-0.3l-0.1-0.2l0,0l-0.1-0.2v-0.1v-0.1l-0.1-0.1
	c0-0.1-0.1-0.2-0.1-0.3S31,60.8,31,60.7l0,0c0-0.1-0.1-0.2-0.1-0.3v-0.1v-0.1c0-0.1,0-0.2,0-0.2l0,0c0,0,0-0.1,0-0.1
	c0-0.1,0-0.3,0-0.4c0-0.1,0-0.2,0-0.3v-0.1V59c0,0,0-0.1,0-0.1l0,0v-0.1v-0.2v-0.1v-0.1l0,0v-0.1l0.1-0.1l0.1-0.1l0.1-0.1l0.1-0.1
	l0.1-0.1l0.1-0.1l0.1-0.1l0.1,0l0,0l0.1,0l0.1-0.1l0.1-0.1l0,0l0.1-0.1l0,0l0.1,0l0,0l0.1-0.1l0.1-0.1l0,0l0.1-0.1h0.1h0.1l0.1-0.1
	c0.5,0.1,1,0.2,1.5,0.2l0.9,0.1h0.6h0.6l0,0l-0.1,0.1l-0.1,0.2l-0.1,0.1v0.1l-0.1,0.1l0,0v0l-0.1,0.2v0.1v0.1v0.1v0.1v0.1v0.1v0.1
	v0.1V59l0,0v0.1l0,0v0.2v0.1l0,0c0,0,0,0.1,0,0.2s0,0.1,0,0.1l0,0l0,0c0,0.1,0,0.1,0,0.2V60c0,0.1,0,0.1,0,0.2s0,0.1,0,0.1l0,0
	c0,0.1,0,0.2,0.1,0.3s0.1,0.2,0.1,0.3l0,0l0,0v0.1l0.1,0.2l0.1,0.1v0.1v0.1l0.1,0.1l0,0l0.1,0.1l0,0l0,0l0.1,0.1l0.1,0.1l0.1,0.1
	l0.1,0.1l0.1,0.1l0,0l0,0v0.1l0.1,0.1l0.1,0.1l0,0l0.1,0.1l0,0l0.1,0.1l0,0l0.1,0.1l0.1,0l0,0l0.1,0.1h0.1l0.1,0.1l0,0l0,0l0.2,0.2
	l0,0h0.1l0,0l0.1,0.1l0.1,0.1l0.1,0.1l0.1,0.1l0.1,0.1l0.1,0.1h0.1C38.1,64.3,37.6,64.9,37.1,65.4L37.1,65.4z M44.2,63.8
	c-0.3,0.7-0.6,1.3-0.8,1.9c-0.5-0.3-1.1-0.7-1.8-1.1s-1.3-0.7-2-1.1l-0.3-0.2L39,63.2l-0.1-0.1l-0.4-0.2l-0.2-0.2L38,62.5l-0.2-0.2
	l-0.2-0.2l-0.2-0.2l-0.2-0.2l-0.2-0.2l-0.1-0.2c-0.1-0.1-0.1-0.2-0.2-0.2l-0.1-0.1c-0.1-0.1-0.1-0.2-0.1-0.3l-0.1-0.1
	c-0.1-0.1-0.1-0.3-0.1-0.4c0-0.1,0-0.2-0.1-0.3v-0.1c0-0.1,0-0.1,0-0.2s0-0.1,0-0.1s0-0.1,0-0.2v-0.1c0-0.1,0-0.1,0-0.2V59
	c0-0.1,0-0.1,0-0.2v-0.1l0,0v-0.2v-0.1l0.1-0.2l0,0v0l0.1-0.2V58v0l0.1-0.1l0,0l0,0l0.1-0.2v-0.1l0.1-0.2l0.1-0.1l0.1-0.2l0.1-0.1
	l0.1-0.1c0.5-0.1,1-0.1,1.5-0.2c0.3-0.1,0.6-0.1,0.9-0.2s0.8-0.2,1.2-0.4l0,0v0.1v0.1v0.1v0.1c0,0.1,0,0.1,0,0.2s0,0.1,0,0.1
	s0,0.1,0,0.2s0,0,0,0.1v0.1c0,0,0,0.1,0,0.1s0,0.1,0,0.1s0,0,0,0.1s0,0.1,0,0.2s0,0.1,0,0.1s0,0.1,0,0.2s0,0.1,0,0.1v0.2v0.1v0.1
	v0.2v0.1l0,0l0.1,0.2l0,0v0.1l0,0l0.1,0.2l0,0l0,0l0.1,0.3l0.1,0.2l0.1,0.1l0,0l0,0c0.1,0.1,0.2,0.2,0.3,0.3l0,0l0,0l0,0l0.1,0.1
	l0.2,0.2h0.1l0.2,0.1l0.2,0.1l0,0h0.1l0.4,0.2h0.1l0,0l0.5,0.2l0,0h0.1l0,0l0.6,0.2l0,0h0.1l0.2,0.1l0.4,0.1l0,0
	C44.8,62.5,44.5,63.2,44.2,63.8L44.2,63.8z M50.5,60.1c-0.1,0.8-0.2,1.5-0.2,2.1c-0.6-0.2-1.3-0.3-2-0.5s-1.5-0.3-2.2-0.5l-0.4-0.1
	l-0.3-0.1L45.2,61l-0.3-0.1l-0.4-0.1l-0.3-0.1l-0.3-0.1l-0.2-0.1l-0.3-0.1l-0.2-0.1L43,60.1L42.7,60l-0.2-0.1l-0.2-0.1l-0.1-0.1
	l-0.2-0.2l-0.1-0.1l-0.1-0.2c-0.1-0.1-0.1-0.2-0.2-0.4v-0.1v-0.1v-0.1v-0.1v-0.1c0,0,0-0.1,0-0.1l0,0v-0.1v-0.2c0-0.1,0-0.1,0-0.2
	s0-0.1,0-0.1l0,0v-0.1c0,0,0-0.1,0-0.1l0,0c0,0,0,0,0-0.1s0-0.1,0-0.2V57c0-0.1,0-0.1,0-0.2v-0.1v-0.2v-0.1l0.1-0.2v-0.1l0.1-0.2
	v-0.1l0,0l0.1-0.1c0.5-0.2,0.9-0.4,1.3-0.7c0.3-0.2,0.5-0.3,0.8-0.5s0.7-0.5,1-0.8c0,0.5,0.1,0.9,0.2,1.4c0.2,0.7,0.6,1.3,1.2,1.8
	l0.2,0.1c1.1,0.7,2.4,1,3.7,0.9h0.5C50.7,58.6,50.6,59.4,50.5,60.1L50.5,60.1z M55.8,56.7c-0.6,0-1.3,0.1-2.1,0.2s-1.5,0.2-2.3,0.2
	h-0.7c-1.4,0.2-2.9-0.1-4.1-0.9c-0.9-0.8-1.3-2-1.1-3.2c0.4-0.3,0.7-0.7,1.1-1c0.2-0.2,0.4-0.5,0.6-0.7s0.5-0.7,0.8-1l0,0l0.1,0.2
	v0.1l0.1,0.2v0.1l0.1,0.3l0,0l0.1,0.2v0.1l0,0l0.1,0.2l0.1,0.1l0.1,0.1l0.1,0.1l0.1,0.1l0.1,0.1l0.1,0.1l0.1,0.1l0.1,0.1l0.1,0.1
	l0.2,0.1h0.1l0.3,0.1l0.3,0.1h0.1h0.2H51h0.2h0.3h0.2h0.4h0.1c0.6-0.1,1.2-0.2,1.8-0.4l0,0l0.7-0.2l0,0c0.2,0.7,0.3,1.5,0.5,2.2
	S55.6,56.1,55.8,56.7L55.8,56.7z M58.3,48c0.4,0.7,0.7,1.3,1.1,1.8c-0.6,0.2-1.2,0.5-1.9,0.8s-1.4,0.6-2.1,0.9L55,51.7l-0.3,0.1
	l-0.2,0.1l-0.3,0.1l-0.4,0.1l-0.3,0.1l-0.3,0.1l-0.3,0.1h-0.3l0,0h-0.2h-0.3h-0.7h-0.3H51c-0.1,0-0.3-0.1-0.4-0.1L50.4,52h-0.1l0,0
	L50.2,52l0,0h-0.1L50,51.9l-0.1-0.1l-0.1-0.1l-0.1-0.1l-0.1-0.1l-0.1-0.1l-0.1-0.1l-0.1-0.1l-0.1-0.1v0l0,0L49.2,51l-0.1-0.1
	l-0.1-0.1L49,50.6L49,50.5v-0.1v-0.1v-0.1l0,0v-0.1v-0.1V50v-0.2v-0.1v-0.1c0.2-0.4,0.5-0.9,0.7-1.3c0.1-0.3,0.2-0.6,0.4-0.9
	s0.3-0.8,0.4-1.2l0,0l0.1,0.1l0.1,0.1l0.1,0.1l0.1,0.1l0.1,0.1c0.1,0.1,0.2,0.2,0.3,0.3l0.1,0.1l0.1,0.1h0.1l0.1,0.1l0.1,0.1
	l0.1,0.1l0.1,0.1l0.1,0.1l0.1,0.1h0.1l0.1,0h0.1h0.1H53h0.1h0.3h0.3H54h0.2l0.3,0h0.1h0.1l0.3-0.1l0.1,0l0,0l0.2-0.1l0.2-0.1h0.1
	h0.1l0,0l0.4-0.2l0.2-0.1l0.4-0.2l0.1-0.1l0.1-0.1l0.2-0.1l0.2-0.1l0.3-0.2l0.2-0.1C57.5,46.7,57.9,47.3,58.3,48L58.3,48z M57.3,45
	L57,45.2l0,0l-0.2,0.1l-0.1,0.1l-0.2,0.1l-0.3,0.2L56.1,46l-0.2,0.1h-0.1l-0.2,0.1l0,0l-0.2,0.1L55,46.5l-0.2,0.1l-0.3,0.1l-0.2,0.1
	L54,46.9h-0.2h-0.3h-0.1H53h-0.3l0,0h-0.2l0,0l-0.2-0.1l0,0l-0.2-0.1l0,0l-0.2-0.1l0,0l0,0l-0.2-0.1l0,0l0,0l-0.2-0.1h-0.1l-0.1-0.1
	l-0.1-0.1l-0.1-0.1L50.7,46l-0.1-0.1l0,0l-0.1-0.1l-0.1-0.1l0,0l-0.1-0.1l-0.1-0.1l-0.1-0.1l-0.1-0.1c0.1-0.5,0.2-1,0.2-1.5
	c0-0.3,0.1-0.6,0.1-0.9s0-0.4,0-0.6s0-0.4,0-0.6h0.1l0.3,0.2l0.2,0.1l0.3,0.1l0.2,0.1l0.3,0.1l0,0l0.2,0.1l0.3,0.1h0.2
	c0.2,0,0.3,0,0.5,0H53c0.2,0,0.5,0,0.7-0.1l0.3-0.1h0.1h0.1l0.2-0.1l0,0h0.1l0,0l0.2-0.1l0,0l0.1-0.1l0.1-0.1l0,0l0.1-0.1l0,0
	l0.1-0.1l0,0l0.1-0.1l0,0l0.1-0.1l0.1-0.1l0.1-0.1l0.1-0.1l0.1-0.1l0,0l0.1-0.1l0,0l0.1-0.1l0,0l0,0l0,0l0.2-0.2l0,0l0.1-0.1
	l0.1-0.1l0.2-0.2l0.1-0.1v-0.1l0.2-0.3l0.1-0.1v-0.1c0.6,0.5,1.1,1,1.7,1.5s1.1,1,1.6,1.4c-0.5,0.4-1,0.9-1.6,1.4S57.9,44.5,57.3,45
	L57.3,45z"/>
<path class="st9" d="M32.6,14.7L32.6,14.7L32.6,14.7v-0.2l0,0v-0.1l0,0v-0.1v-0.1l0,0v-0.1V14l0,0l0,0c0,0,0-0.1,0-0.1l0,0
	c0,0,0-0.1,0-0.2l0,0c0,0,0-0.1,0-0.1v-0.2c0,0,0-0.1,0-0.1c0,0,0-0.1,0-0.2s0-0.1,0-0.1l0,0c0,0,0-0.1,0-0.1l0,0c0,0,0-0.1,0-0.1
	v-0.1l0,0v-0.1l0,0c0,0,0-0.1,0-0.1v-0.1l0,0v-0.1l0,0l0.1-0.3l0,0l0,0v0.1c-0.1,0.5-0.1,1-0.1,1.5c0,0.3,0,0.5,0,0.8
	S32.6,14.6,32.6,14.7L32.6,14.7L32.6,14.7z"/>
<path class="st9" d="M33.2,11.4L33.2,11.4l0.1,0.3l0,0v0.1l0,0l0.1,0.2l0,0V12l0,0v0.1v0.1v0.1l0,0c0,0,0,0.1,0,0.2v0.2v0.1V13
	c0,0,0,0,0,0.1s0,0.1,0,0.1s0,0,0,0s0,0.1,0,0.1s0,0.1,0,0.2s0,0,0,0s0,0,0,0.1l0,0c0,0.1,0,0.2,0,0.3v0.1v0.2v0.1l0,0l0,0v0.2l0,0
	c0.4-0.1,0.8-0.3,1.2-0.4s0.6-0.2,0.9-0.2c0.5-0.1,1-0.2,1.5-0.2l0.1-0.1v-0.1l0,0l0.1-0.1l0,0v-0.1l0.1-0.1l0.1-0.1l0.1-0.1
	l0.1-0.1l0.1-0.1v-0.1l0.1-0.1l0,0v-0.1V12l0,0v-0.1v-0.2v-0.1c0,0,0-0.1,0-0.2s0-0.1,0-0.1s0-0.1,0-0.2s0-0.1,0-0.1s0-0.1,0-0.2
	l0,0v-0.1c0,0,0-0.1,0-0.1s0-0.1,0-0.2s0-0.2-0.1-0.2s-0.1-0.2-0.1-0.2s0-0.1-0.1-0.1l-0.1-0.1l0,0l-0.1-0.2l-0.1-0.2L37,9.3
	l-0.1-0.1L36.8,9l0,0l-0.2-0.2l-0.2-0.2l0,0l-0.2-0.2L36,8.3l0,0l0,0c-0.2-0.1-0.5-0.2-0.8-0.2c-1.2,0-2.1,1-2.7,2.6
	c0,0.1,0,0.2-0.1,0.3l0.1,0.2L33.2,11.4z"/>
<path class="st5" d="M56.3,23.1c-0.2-0.1-0.5-0.1-0.8-0.2l-0.1,0l-0.2,0.1H55h-0.1c-0.2,0-0.3,0.1-0.5,0.1h-0.1c-0.2,0-0.3,0-0.5,0
	l0,0c-0.5,0-0.9-0.1-1.4-0.2c0.1,0.4,0.3,0.8,0.4,1.2s0.2,0.6,0.2,0.9c0.1,0.5,0.2,1,0.2,1.5l0.1,0.1l0.1,0.1l0,0l0.1,0.1l0.1,0.1
	h0.1L54,27l0.1,0.1h0.1h0.1l0.1,0l0.2,0.1h0.1l0.2,0.1c0.5,0.2,1.1,0.2,1.7,0.1l0,0c0.1,0,0.3-0.1,0.4-0.1l0.1-0.1l0.3-0.1l0.1-0.1
	l0.2-0.2l0.2-0.1l0.2-0.2l0.2-0.2l0.2-0.2l0.2-0.2l0,0c0-0.1,0-0.2,0-0.3C58.9,24.6,57.9,23.7,56.3,23.1z"/>
<path class="st9" d="M51.6,22.7c-0.2-0.4-0.4-0.8-0.6-1.1l0,0c-0.1-0.2-0.2-0.4-0.3-0.5c-0.4-0.7-0.9-1.4-1.5-2l0,0
	c-0.3-0.3-0.6-0.6-0.9-0.9l0,0l-0.5-0.4c-0.6-0.5-1.3-1-2-1.5l0,0c-0.4-0.2-0.7-0.4-1.1-0.6l0,0l-0.6-0.3c-0.4-0.2-0.8-0.3-1.2-0.4
	s-0.8-0.2-1.2-0.3l0,0c-0.4-0.1-0.8-0.2-1.2-0.2l0,0l-0.6-0.1c-0.8-0.1-1.7-0.1-2.5,0l0,0c-0.4,0-0.8,0.1-1.3,0.2l0,0l-0.6,0.1
	c-0.8,0.2-1.6,0.5-2.4,0.8l0,0l-0.2,0.1c0.6,2,1.9,3.2,3.2,3.2c1.7,0,2.6-2.2,2.6-2.2v12.3h11.7c0,0-2.2-0.9-2.2-2.6
	c0-1.4,1.3-2.8,3.6-3.3L51.6,22.7L51.6,22.7z"/>
<path class="st9" d="M38.5,9.9L38.5,9.9c0,0.1,0.1,0.2,0.1,0.3c0,0.1,0.1,0.2,0.1,0.3v0.1c0,0.1,0,0.1,0,0.2s0,0.1,0,0.1
	s0,0.1,0,0.2v0.1c0,0.1,0,0.1,0,0.2s0,0.1,0,0.1s0,0.1,0,0.2v0.1c0,0.1,0,0.1,0,0.2v0.1c0,0.1,0,0.2-0.1,0.2v0.1
	c-0.1,0.2-0.2,0.4-0.3,0.6l0,0l-0.1,0.3v0.1l-0.1,0.2l0,0c0.4,0,0.8,0,1.3,0l0.9,0.1c0.5,0.1,1,0.1,1.5,0.2l0.1-0.1l0.1-0.1l0.1-0.1
	l0.1-0.1l0.1-0.1l0.1-0.1l0,0l0.1-0.1l0.1-0.1l0.1-0.1l0-0.1l0.1-0.1l0,0l0.1-0.1l0.1-0.1l0.1-0.1l0.1-0.1v-0.1l0,0l0.1-0.1v-0.1
	c0,0,0-0.1,0.1-0.1v-0.1c0,0,0-0.1,0-0.2v-0.1v-0.2c0,0,0-0.1,0-0.1s0-0.2,0-0.3c0-0.1,0-0.3,0-0.4c0,0,0,0,0-0.1v-0.1v-0.2v-0.1
	v-0.1v-0.1c0-0.1,0-0.2-0.1-0.3V9.7V9.6c0-0.1-0.1-0.2-0.1-0.3l-0.1-0.2l-0.1-0.3l-0.1-0.2V8.6l-0.2-0.3l-0.1-0.2l0,0l-0.2-0.3
	L42,7.5l-0.1-0.2l-0.2-0.2l-0.2-0.3c-0.5-0.6-1-1.1-1.5-1.7s-1-1.1-1.4-1.5v0.1l0,0v6.1L38.5,9.9L38.5,9.9z"/>
<path class="st9" d="M62,26.8c-0.6-0.5-1.1-1-1.7-1.5v0.1l0,0l-0.1,0.1l-0.1,0.1v0l-0.1,0.1L60,25.8l0,0l0,0l0,0L59.9,26l0,0
	l-0.2,0.2l-0.1,0.1l-0.1,0.2l0,0l0,0l-0.1,0.1l-0.1,0.1l0,0l-0.1,0.1L59,26.9l0,0L58.9,27l0,0h-0.1l-0.1,0.1l-0.1,0.1l-0.1,0.1
	l-0.1,0.1l-0.1,0.1L57.7,28l-0.2,0.1l-0.1,0l-0.2,0.1h-0.1l0,0l-0.2,0.1c-0.1,0-0.3,0.1-0.4,0.1c-0.3,0.1-0.6,0.2-0.6,0.2h7.2
	l0.5-0.5C63.1,27.8,62.6,27.3,62,26.8z"/>
<path class="st9" d="M49.5,12.5c0,0.1,0,0.1,0,0.2l0,0c0,0.1,0,0.2-0.1,0.3s0,0.1,0,0.2s0,0.1-0.1,0.2s0,0.2-0.1,0.3
	c0,0.1-0.1,0.2-0.1,0.3V14l-0.1,0.2l-0.1,0.1L49,14.4l-0.1,0.1l-0.1,0.1l-0.1,0.1l-0.1,0.1L48.5,15l-0.1,0.1l-0.1,0.1l-0.1,0.1l0,0
	H48l-0.2,0.1h-0.1l-0.3,0.1h-0.1l-0.2,0.1h-0.1L46.7,16l0,0c0.4,0.2,0.7,0.5,1,0.7s0.5,0.4,0.7,0.6c0.4,0.3,0.7,0.7,1.1,1h0.9h0.2
	h0.1h0.2H51h0.2h0.1l0.2-0.1h0.1l0.2-0.1h0.1l0.1-0.1l0,0l0,0l0.1-0.1h0.1l0.1-0.1l0.1-0.1l0.1-0.1l0,0l0,0l0.2-0.2
	c0.1-0.1,0.2-0.2,0.2-0.3l0.1-0.1c0-0.1,0.1-0.2,0.1-0.3l0.1-0.2c0-0.1,0.1-0.2,0.1-0.3s0-0.1,0.1-0.2s0-0.2,0.1-0.3s0-0.2,0-0.2
	s0-0.2,0-0.3s0-0.2,0-0.3s0-0.2,0-0.4s0-0.2,0-0.3s0-0.2,0-0.4s0-0.2,0-0.3s0-0.2,0-0.2s0-0.2,0-0.3s0-0.2,0-0.4
	c-0.1-0.8-0.1-1.5-0.2-2.3s-0.2-1.5-0.2-2.1c-0.6,0.2-1.3,0.3-2,0.5s-1.5,0.3-2.2,0.5l0.1,0.2l0,0l0.1,0.3l0,0l0.1,0.2l0.1,0.2v0.1
	l0.1,0.2l0.1,0.4v0.2v0.1l0,0c0,0.1,0,0.2,0.1,0.4s0,0.1,0,0.2v0.1c0,0.1,0,0.2,0,0.3l0,0c0,0.1,0,0.1,0,0.2s0,0.1,0,0.2
	S49.5,12.4,49.5,12.5z"/>
<path class="st9" d="M38.7,2.7c0.5,0.6,1.1,1.3,1.6,1.8c0.5,0.6,1.1,1.1,1.6,1.8l0,0c0.7-0.4,1.4-0.8,2-1.2c0.7-0.4,1.4-0.8,2.1-1.3
	l0.4-0.3L46.6,4c0.3,0.8,0.6,1.5,1,2.2c0.3,0.7,0.7,1.4,1,2.2l0,0c0.8-0.2,1.6-0.4,2.3-0.5c0.8-0.1,1.6-0.3,2.4-0.6l0.4-0.1v0.5
	c0,0.8,0.1,1.6,0.2,2.5c0.1,0.8,0.2,1.6,0.3,2.4l0,0c0.8,0,1.6,0.1,2.4,0.2c0.8,0.1,1.6,0.2,2.5,0.2h0.5l-0.1,0.5
	c-0.2,0.8-0.4,1.6-0.5,2.4c-0.1,0.8-0.3,1.5-0.5,2.3l0,0c0.8,0.3,1.5,0.6,2.2,0.9c0.7,0.3,1.5,0.7,2.2,0.9l0.5,0.1l-0.3,0.4
	c-0.5,0.7-0.9,1.4-1.2,2.1c-0.4,0.7-0.8,1.4-1.2,2.1l0,0c0.6,0.5,1.2,1,1.8,1.6c0.6,0.6,1.2,1.1,1.9,1.6l0.4,0.3l-0.4,0.3l-0.2,0.2
	h1.3V1.3h-27v1v0L38.7,2.7z"/>
<path class="st9" d="M53.6,17.2c0,0.1-0.1,0.1-0.1,0.2s-0.1,0.1-0.1,0.2l-0.2,0.2L53.1,18l-0.1,0.1l0,0l-0.1,0l-0.1,0.1l0,0h-0.1
	l0,0l-0.1,0.1l-0.1,0.1l-0.2,0.1l0,0h-0.1h-0.1L52,18.6l0,0h-0.1l0,0l-0.2,0.1l0,0h-0.1l0,0l-0.3,0.1l0,0L51,18.8h-0.3h-0.2h-0.4
	c0.3,0.3,0.5,0.7,0.8,1s0.3,0.5,0.5,0.8c0.3,0.4,0.5,0.9,0.7,1.3l0,0h0.1l0.4,0.1c0.2,0.1,0.5,0.1,0.7,0.2h0.2c0.2,0,0.4,0,0.5,0
	l0,0c0.2,0,0.3,0,0.5-0.1l0,0c0.2,0,0.3-0.1,0.4-0.1H55c0.1-0.1,0.3-0.1,0.4-0.2c0.1-0.1,0.2-0.2,0.3-0.2l0.1-0.1l0.2-0.2l0.1-0.1
	l0.2-0.2l0.1-0.2l0.1-0.2l0.1-0.2l0.1-0.3c0-0.1,0.1-0.2,0.1-0.2l0.1-0.3l0.1-0.3c0-0.1,0.1-0.2,0.1-0.4l0.1-0.3l0.1-0.2l0.1-0.3
	l0.1-0.4c0.2-0.7,0.3-1.5,0.5-2.2s0.3-1.5,0.4-2c-0.6,0-1.3-0.1-2.1-0.2s-1.5-0.2-2.3-0.2c0,0.1,0,0.1,0,0.2v0.4c0,0.1,0,0.2,0,0.3
	v0.1c0,0,0,0.1,0,0.1s0,0.1,0,0.2s0,0.2,0,0.4v0.2c0,0,0,0,0,0.1V15v0.2c0,0.1,0,0.2,0,0.3s-0.1,0.2-0.1,0.3s0,0.1,0,0.2l0,0
	c0,0.1-0.1,0.2-0.1,0.3L54,16.4c0,0.1-0.1,0.2-0.2,0.3l-0.1,0.1L53.6,17.2z"/>
<path class="st9" d="M42.7,7.3l0.1,0.1l0,0l0.1,0.1L43,7.7L43.2,8l0,0v0l0,0l0.1,0.2l0.2,0.3l0.1,0.1l0,0v0.1
	c0.1,0.1,0.1,0.2,0.2,0.4v0.1c0.1,0.1,0.1,0.3,0.2,0.4l0,0l0,0c0,0.1,0.1,0.3,0.1,0.4V10c0,0.1,0,0.3,0.1,0.4l0,0c0,0,0,0.1,0,0.2
	s0,0.2,0,0.3s0,0.2,0,0.3s0,0.1,0,0.1s0,0.1,0,0.2v0.1v0.2v0.1L44,12.1L44,12.2l-0.1,0.1l-0.1,0.1l-0.1,0.1l-0.1,0.1l-0.1,0.1l0,0
	V13l-0.1,0.2v0l-0.2,0.2l-0.1,0.1l-0.2,0.1l-0.1,0.1l-0.2,0.1l0,0l0.6,0.2l0.6,0.2c0.3,0.1,0.6,0.2,0.9,0.3c0.5,0.2,0.9,0.4,1.4,0.7
	h0.1h0.1h0.1l0,0h0.1l0.1-0.1l0,0h0.1l0.1-0.1l0.1,0h0.1h0.1l0.1,0l0,0l0.1-0.1l0.1-0.1l0.1-0.1l0,0h0.1l0.1,0l0.1,0l0,0l0.1-0.1
	l0.1-0.1l0.1-0.1l0.1-0.1l0.1-0.1l0.1-0.1l0.1-0.1l0.1-0.2v-0.1c0-0.1,0.1-0.2,0.1-0.2c0-0.1,0.1-0.3,0.1-0.4c0,0,0-0.1,0-0.1
	s0-0.2,0-0.3l0,0l0,0c0,0,0-0.1,0-0.2s0-0.1,0-0.2s0,0,0-0.1V12c0,0,0-0.1,0-0.1s0-0.2,0-0.3s0-0.2,0-0.2v-0.2V11l-0.1-0.3
	c0-0.1-0.1-0.2-0.1-0.3l0,0l-0.1-0.3l-0.1-0.4l-0.1-0.3l-0.1-0.2L48.2,9l0,0L48,8.7c-0.3-0.7-0.6-1.4-0.9-2.1s-0.6-1.3-0.9-1.9
	c-0.5,0.3-1.1,0.7-1.8,1.1s-1.3,0.8-2,1.2l0,0L42.7,7.3z"/>
<path class="st9" d="M59.2,25.6l0.2-0.3l0.2-0.3l0.1-0.2l0.2-0.3l0.2-0.3c0.4-0.6,0.8-1.3,1.1-2s0.7-1.3,1-1.8
	c-0.6-0.2-1.2-0.5-1.9-0.8s-1.4-0.6-2.1-0.9c0,0.1,0,0.1-0.1,0.2s0,0.1-0.1,0.2v0.1L58,19.7l-0.1,0.1L57.9,20c0,0.1-0.1,0.2-0.1,0.3
	l-0.1,0.3l-0.1,0.1l-0.1,0.2l-0.1,0.2l-0.2,0.3L57,21.6l0,0c-0.1,0.1-0.1,0.2-0.2,0.2L56.7,22l-0.2,0.2l-0.1,0.1l-0.2,0.1l-0.2,0.2
	c-0.1,0.1-0.3,0.2-0.4,0.2l0,0c0.3,0.1,0.5,0.1,0.8,0.2c1.6,0.5,2.6,1.5,2.6,2.7c0,0.1,0,0.2,0,0.3l0.2-0.2L59.2,25.6z"/>
<path class="st3" d="M38.5,3.5c0.4,0.5,0.9,1,1.4,1.5s1,1.1,1.5,1.7L41.6,7l0.2,0.2L42,7.4l0.2,0.3L42.4,8l0,0l0.1,0.2l0.2,0.3v0.1
	l0.1,0.2L43,9l0.1,0.2c0,0.1,0.1,0.2,0.1,0.3v0.1v0.1c0,0.1,0.1,0.2,0.1,0.3v0.1v0.1v0.1v0.2v0.1c0,0,0,0,0,0.1c0,0.1,0,0.3,0,0.4
	c0,0.1,0,0.2,0,0.3s0,0.1,0,0.1v0.2v0.1c0,0,0,0.1,0,0.2v0.1c0,0,0,0.1-0.1,0.1v0.1l-0.1,0.1l0,0v0.1l-0.1,0.1L43,12.6l-0.1,0.1
	l-0.1,0.1l0,0l-0.1,0.1L42.7,13l-0.1,0.1l-0.1,0.1l-0.1,0.1l0,0l-0.1,0.1l-0.1,0.1L42,13.5l-0.1,0.1l-0.1,0.1l-0.1,0.1
	c-0.5-0.1-1-0.2-1.5-0.2l-0.9-0.1c-0.4,0-0.8,0-1.3,0l0,0l0.1-0.2v-0.1l0.1-0.3l0,0c0.1-0.2,0.2-0.4,0.3-0.6v-0.1
	c0-0.1,0-0.2,0.1-0.2V12c0-0.1,0-0.1,0-0.2v-0.1c0-0.1,0-0.1,0-0.2s0-0.1,0-0.1s0-0.1,0-0.2V11c0-0.1,0-0.1,0-0.2s0-0.1,0-0.1
	s0-0.1,0-0.2v-0.1c0-0.1,0-0.2-0.1-0.3c0-0.1-0.1-0.2-0.1-0.3l0,0V9.8V9.7V11c-0.2-0.5-0.4-0.9-0.7-1.4C37.4,9,37,8.5,36.4,8.2l0,0
	l0,0l0.2,0.1l0.2,0.2l0,0L37,8.7l0.2,0.2l0,0l0.1,0.2l0.1,0.1l0.1,0.1l0.1,0.2l0.1,0.2l0,0l0.1,0.1c0,0,0,0.1,0.1,0.1
	s0.1,0.2,0.1,0.2s0,0.2,0.1,0.2s0,0.1,0,0.2s0,0.1,0,0.1V11l0,0c0,0.1,0,0.1,0,0.2s0,0.1,0,0.1s0,0.1,0,0.2s0,0.1,0,0.1s0,0.1,0,0.2
	v0.1v0.2V12l0,0v0.1v0.1l0,0l-0.1,0.1v0.1l-0.1,0.1l-0.1,0.1l-0.1,0.1L37.6,13l-0.1,0.1v0.1l0,0l-0.1,0.1l0,0v0.1l-0.1,0.1
	c-0.5,0.1-1,0.1-1.5,0.2c-0.3,0.1-0.6,0.1-0.9,0.2s-0.8,0.2-1.2,0.4l0,0v-0.2l0,0l0,0v-0.1V14v-0.1c0-0.1,0-0.2,0-0.3l0,0
	c0,0,0,0,0-0.1s0,0,0,0s0-0.1,0-0.2s0-0.1,0-0.1s0,0,0,0s0-0.1,0-0.1s0,0,0-0.1v-0.1v-0.1v-0.2c0,0,0-0.1,0-0.2l0,0v-0.1v-0.1v-0.1
	l0,0V12l0,0l-0.1-0.2l0,0v-0.1l0,0l-0.1-0.2v-0.1l-0.1-0.3l-0.1-0.2c-0.1,0.3-0.2,0.7-0.2,1l0,0l0,0l0.1,0.1l0,0v0.1l0,0v0.1
	c0,0,0,0.1,0,0.1l0,0v0.1l0,0v0.1c0,0,0,0.1,0,0.1s0,0,0,0c0,0,0,0.1,0,0.1l0,0c0,0,0,0.1,0,0.1s0,0.1,0,0.2c0,0,0,0.1,0,0.1v0.2
	c0,0,0,0.1,0,0.1l0,0c0,0,0,0.1,0,0.2l0,0c0,0,0,0.1,0,0.1l0,0l0,0v0.1v0.1l0,0v0.1v0.1l0,0v0.1l0,0v0.1v0l0,0
	c0,0.3,0.1,0.6,0.1,0.9l0,0l0.2-0.1l0,0c0.8-0.3,1.6-0.6,2.4-0.8l0.6-0.1l0,0c0.4-0.1,0.8-0.1,1.3-0.2l0,0c0.8-0.1,1.7-0.1,2.5,0
	l0.6,0.1l0,0c0.4,0,0.8,0.1,1.2,0.2l0,0c0.4,0.1,0.8,0.2,1.2,0.3s0.8,0.3,1.2,0.4l0.6,0.3l0,0c0.4,0.2,0.8,0.4,1.1,0.6l0,0
	c0.7,0.4,1.4,0.9,2,1.5l0.5,0.4l0,0c0.3,0.3,0.6,0.6,0.9,0.9l0,0c0.6,0.6,1.1,1.3,1.5,2c0.1,0.2,0.2,0.4,0.3,0.5l0,0
	c0.2,0.4,0.4,0.8,0.6,1.1l0,0l0.1,0.2h0.2c0.5-0.1,1-0.1,1.5-0.1c0.7,0,1.4,0.1,2.1,0.2l0,0c0.1-0.1,0.3-0.1,0.4-0.2l0.2-0.2
	l0.2-0.1l0.1-0.1l0.2-0.2l0.1-0.2c0.1-0.1,0.1-0.2,0.2-0.2l0,0l0.1-0.2l0.2-0.3l0.1-0.2l0.1-0.2l0.1-0.1l0.1-0.3
	c0-0.1,0.1-0.2,0.1-0.3l0.1-0.2l0.1-0.1l0.1-0.4v-0.1c0-0.1,0-0.1,0.1-0.2s0-0.1,0.1-0.2c0.7,0.3,1.4,0.6,2.1,0.9s1.4,0.6,1.9,0.8
	c-0.3,0.5-0.7,1.1-1,1.8s-0.7,1.3-1.1,2l-0.2,0.3L60,24.8L59.9,25l-0.2,0.3l-0.2,0.3l-0.2,0.2L59.1,26c-0.2,0.7-0.7,1.4-1.4,1.7
	c-0.3,0.2-0.7,0.4-1,0.6c0.1,0,0.3,0,0.4-0.1l0.2-0.1l0,0h0.1l0.2-0.1l0.1,0l-0.1,0l0.1-0.1l0.1-0.1l0.1-0.1l0.1-0.1l0.1-0.1
	l0.1-0.1h0.1l0,0l0.1-0.1l0,0l0.1-0.1l0.1-0.1l0,0L59,27l0.1-0.1l0,0l0,0l0.1-0.2l0.1-0.1l0.2-0.2l0,0l0.1-0.2l0,0l0,0l0,0l0.1-0.1
	l0.1-0.1v0l0.1-0.1l0.1-0.1l0,0v-0.1c0.6,0.5,1.2,1,1.7,1.5s1.1,1,1.6,1.4L62.7,29h1.1l0.2-0.2l0.4-0.3L64,28.3
	c-0.7-0.5-1.3-1-1.9-1.6c-0.6-0.5-1.2-1.1-1.8-1.6l0,0c0.4-0.7,0.8-1.4,1.2-2.1c0.4-0.7,0.8-1.4,1.2-2.1l0.3-0.4l-0.5-0.1
	c-0.8-0.3-1.5-0.6-2.2-0.9c-0.7-0.3-1.4-0.6-2.2-0.9l0,0c0.2-0.8,0.3-1.6,0.5-2.3c0.1-0.8,0.3-1.6,0.5-2.4l0.1-0.5h-0.5
	c-0.8,0-1.6-0.1-2.5-0.2c-0.8-0.1-1.6-0.2-2.4-0.2l0,0c-0.1-0.8-0.2-1.6-0.3-2.4c-0.1-0.8-0.2-1.6-0.2-2.5V7.6L53,7.8
	c-0.8,0.2-1.6,0.4-2.4,0.6c-0.8,0.2-1.6,0.3-2.3,0.5l0,0c-0.3-0.8-0.6-1.5-1-2.2c-0.4-0.7-0.7-1.5-1-2.2L46.1,4l-0.4,0.3
	c-0.7,0.5-1.4,0.9-2.1,1.3c-0.7,0.4-1.4,0.8-2,1.2l0,0C41.1,6.2,40.6,5.6,40,5c-0.6-0.6-1.1-1.2-1.6-1.8l-0.3-0.4v0V4L38.5,3.5z
	 M53.8,16.8l0.1-0.2c0-0.1,0.1-0.2,0.1-0.3l0,0c0-0.1,0-0.1,0-0.2s0.1-0.2,0.1-0.3s0-0.2,0-0.3v-0.2v-0.2c0,0,0,0,0-0.1v-0.2
	c0-0.1,0-0.2,0-0.4s0-0.1,0-0.2s0-0.1,0-0.1v-0.1c0-0.1,0-0.2,0-0.3v-0.4c0-0.1,0-0.1,0-0.2c0.8,0,1.5,0.1,2.3,0.2s1.5,0.2,2.1,0.2
	c-0.1,0.6-0.3,1.3-0.4,2s-0.3,1.5-0.5,2.2l-0.1,0.4l-0.1,0.3l-0.1,0.2l-0.1,0.3c0,0.1-0.1,0.2-0.1,0.4L57,19.7L56.9,20
	c0,0.1-0.1,0.2-0.1,0.2l-0.1,0.3l-0.1,0.2L56.4,21l-0.1,0.2l-0.2,0.2L56,21.6l-0.2,0.2l-0.1,0.1c-0.1,0.1-0.2,0.2-0.3,0.2
	c-0.1,0.1-0.3,0.2-0.4,0.2h-0.1c-0.1,0.1-0.3,0.1-0.4,0.1l0,0c-0.2,0-0.3,0.1-0.5,0.1l0,0c-0.2,0-0.4,0-0.5,0h-0.2
	c-0.2,0-0.5-0.1-0.7-0.2l-0.4-0.1H52l0,0c-0.2-0.5-0.4-0.9-0.7-1.3c-0.2-0.3-0.3-0.5-0.5-0.8s-0.5-0.7-0.8-1h0.4h0.2h0.1l0.3-0.1
	l0,0l0.3-0.1l0,0h0.1l0,0l0.2-0.1l0,0h0.1l0,0l0.2-0.1h0.1h0.1l0,0l0.2-0.1l0.1-0.1l0.1-0.1l0,0h0.1l0,0l0.1-0.1l0.1,0l0,0l0.1-0.1
	l0.1-0.1L53,18c0.1-0.1,0.1-0.1,0.1-0.2s0.1-0.1,0.1-0.2l0,0l0.1-0.1C53.7,17,53.8,16.9,53.8,16.8z M49.5,12L49.5,12
	c0-0.1,0-0.2,0-0.3v-0.1c0,0,0-0.1,0-0.2s0-0.2-0.1-0.4l0,0v-0.1v-0.2l-0.1-0.4l-0.1-0.2v-0.1l-0.1-0.2l-0.1-0.2l0,0l-0.1-0.3l0,0
	L49,9.2c0.7-0.2,1.5-0.4,2.2-0.5s1.4-0.3,2-0.5c0,0.6,0.1,1.3,0.2,2.1s0.2,1.5,0.2,2.3c0,0.1,0,0.2,0,0.4s0,0.2,0,0.3s0,0.2,0,0.2
	s0,0.2,0,0.3s0,0.3,0,0.4s0,0.2,0,0.3s0,0.2,0,0.4s0,0.2,0,0.3s0,0.2,0,0.3s0,0.2,0,0.2s0,0.2-0.1,0.3s0,0.1-0.1,0.2
	s-0.1,0.2-0.1,0.3l-0.1,0.2c0,0.1-0.1,0.2-0.1,0.3L53.2,17c-0.1,0.1-0.2,0.2-0.2,0.3l-0.2,0.2l0,0l0,0l-0.1,0.1l-0.1,0.1l-0.1,0.1
	h-0.1l-0.1,0.1l0,0l0,0L51.7,18h-0.1l-0.2,0.1h-0.1l-0.2,0.1h-0.1H51h-0.1h-0.2h-0.1h-0.2h-0.9c-0.3-0.4-0.7-0.7-1.1-1
	c-0.2-0.2-0.5-0.4-0.7-0.6c-0.3-0.3-0.7-0.5-1-0.7l0,0l0.2-0.1H47l0.2-0.1h0.1l0.3-0.1h0.1l0.2-0.1h0.1l0,0l0.1-0.1l0.1-0.1l0.1-0.1
	l0.1-0.1l0.1-0.1l0.1-0.1l0.1-0.1l0.1-0.1l0.1-0.1l0.1-0.1l0.1-0.2v-0.1c0-0.1,0.1-0.2,0.1-0.3c0-0.1,0.1-0.2,0.1-0.3s0-0.1,0.1-0.2
	s0-0.1,0-0.2s0-0.2,0.1-0.3l0,0c0-0.1,0-0.1,0-0.2s0-0.1,0-0.2s0-0.1,0-0.2S49.5,12,49.5,12z M44.4,5.7C45,5.4,45.7,5,46.2,4.7
	c0.2,0.6,0.5,1.2,0.9,1.9s0.6,1.4,0.9,2.1L48.1,9l0,0l0.1,0.3l0.1,0.2l0.1,0.3l0.1,0.4l0.1,0.3l0,0c0,0.1,0.1,0.2,0.1,0.3l0.1,0.3
	v0.1v0.2c0,0.1,0,0.2,0,0.2s0,0.2,0,0.3s0,0.1,0,0.1v0.1c0,0,0,0,0,0.1s0,0.1,0,0.2s0,0.1,0,0.2l0,0l0,0c0,0.1,0,0.2,0,0.3
	s0,0.1,0,0.1c0,0.1-0.1,0.3-0.1,0.4c0,0.1-0.1,0.2-0.1,0.2v0.1l-0.1,0.2l-0.1,0.1L48.3,14l-0.1,0.1l-0.1,0.1L48,14.3l-0.1,0.1
	l-0.1,0.1l0,0l-0.1,0l-0.1,0h-0.1l0,0l-0.1,0.1l-0.1,0.1l-0.1,0.1l0,0l-0.1,0h-0.1h-0.1l-0.1,0L46.8,15h-0.1l0,0L46.6,15h-0.1l0,0
	h-0.1h-0.1H46c-0.4-0.3-0.9-0.5-1.4-0.7c-0.3-0.1-0.6-0.2-0.9-0.3l-0.6-0.2l-0.6-0.2l0,0l0.1,0.3l0.1-0.1l0.2-0.1l0.1-0.1l0.2-0.2v0
	l0.1-0.2v-0.1l0,0l0.1-0.1l0.1-0.1l0.1-0.1l0.1-0.1l0.1-0.1l0.1-0.1l0.1-0.2V12v-0.2v-0.1c0-0.1,0-0.1,0-0.2s0-0.1,0-0.1
	s0-0.2,0-0.3s0-0.2,0-0.3s0-0.1,0-0.2l0,0c0-0.1,0-0.3-0.1-0.4v-0.1c0-0.1-0.1-0.3-0.1-0.4l0,0l0,0c0-0.1-0.1-0.3-0.2-0.4V9.3
	c-0.1-0.1-0.1-0.2-0.2-0.4V8.8l0,0l-0.1-0.1l-0.2-0.3l-0.1-0.2l0,0v0l0,0l-0.2-0.3l-0.1-0.2l-0.1-0.1l0,0l-0.1-0.1l-0.3-0.4l0,0
	C43.1,6.5,43.7,6.1,44.4,5.7L44.4,5.7z"/>
</svg>
