<svg width="223" height="45" viewBox="0 0 223 45" xmlns="http://www.w3.org/2000/svg">
    <g fill="none" fill-rule="evenodd">
        <path d="M0 0h223v45H0z"/>
        <g fill="#0592AF" fill-rule="nonzero">
            <path d="M43.9 42.596s1.422 1.62 4.014 1.62c2.376 0 3.834-1.53 3.834-3.42 0-4.158-6.318-3.294-6.318-6.3 0-1.116 1.044-2.178 2.664-2.178 1.656 0 2.772 1.08 2.772 1.08l.612-1.044s-1.188-1.224-3.384-1.224c-2.34 0-3.942 1.584-3.942 3.402 0 3.924 6.318 3.114 6.318 6.3 0 1.368-1.134 2.196-2.52 2.196-1.998 0-3.312-1.386-3.312-1.386l-.738.954zM57.164 44h1.242V32.462h4.536v-1.116H52.61v1.116h4.554zM64.704 44h7.452v-1.116h-6.21v-4.698h4.806V37.07h-4.806v-4.608h5.886v-1.116h-7.128zM74.386 44h1.242l.702-8.856c.054-.684.036-1.8.036-1.8h.036s.396 1.17.684 1.8l2.97 6.498h1.17l2.97-6.498c.288-.648.666-1.764.666-1.764h.036s-.018 1.08.036 1.764L85.636 44h1.242L85.87 31.346h-1.278L81.28 38.78c-.288.648-.63 1.548-.63 1.548h-.036s-.324-.9-.612-1.548l-3.312-7.434h-1.296L74.386 44zM94.596 44h1.242v-5.328h3.186L101.886 44h1.422l-2.754-5.094c-.198-.342-.324-.504-.324-.504v-.036c1.422-.396 2.394-1.71 2.394-3.42 0-1.53-.72-2.736-1.908-3.258-.504-.216-1.08-.342-2.376-.342h-3.744V44zm1.242-6.444v-5.094h2.556c.972 0 1.422.108 1.8.306.738.396 1.152 1.17 1.152 2.214 0 1.584-.972 2.574-2.502 2.574h-3.006zM104.71 39.482c0 2.79 2.034 4.734 4.734 4.734 2.034 0 3.348-1.26 3.348-1.26l-.558-.936s-1.098 1.098-2.754 1.098c-1.872 0-3.456-1.26-3.51-3.582h6.948s.036-.414.036-.63c0-2.25-1.278-4.176-3.78-4.176-2.448 0-4.464 1.782-4.464 4.752zm1.314-.954c.288-1.818 1.602-2.772 3.114-2.772 1.35 0 2.502.882 2.574 2.772h-5.688zM114.356 42.902s1.152 1.314 3.348 1.314c1.818 0 3.096-1.062 3.096-2.538 0-2.988-4.878-2.448-4.878-4.446 0-1.008.882-1.404 1.8-1.404 1.494 0 2.268.828 2.268.828l.558-.936s-.882-.99-2.79-.99c-1.638 0-3.096.882-3.096 2.502 0 2.952 4.878 2.466 4.878 4.446 0 .954-.846 1.44-1.818 1.44-1.692 0-2.7-1.098-2.7-1.098l-.666.882zM122.202 39.428c0 2.736 2.142 4.788 4.788 4.788 2.646 0 4.788-2.052 4.788-4.788 0-2.682-2.142-4.698-4.788-4.698-2.646 0-4.788 2.016-4.788 4.698zm1.26 0c0-2.052 1.584-3.582 3.528-3.582s3.528 1.53 3.528 3.582c0 2.106-1.584 3.69-3.528 3.69s-3.528-1.584-3.528-3.69zM133.738 40.706c0 2.358.9 3.51 3.024 3.51 1.998 0 3.186-1.404 3.546-2.286h.036s-.036.324-.036.72V44h1.188v-9.054h-1.224v4.338c0 1.962-1.278 3.78-3.348 3.78-1.746 0-1.962-1.26-1.962-2.682v-5.436h-1.224v5.76zM144.248 44h1.224v-3.816c0-.576.072-1.188.252-1.764.396-1.332 1.35-2.34 2.628-2.34.234 0 .45.036.45.036V34.91s-.234-.054-.486-.054c-1.422 0-2.43 1.044-2.862 2.412h-.036s.036-.324.036-.72v-1.602h-1.206V44zM149.718 39.482c0 2.808 2.07 4.734 4.752 4.734 2.304 0 3.528-1.422 3.528-1.422l-.558-.954s-1.062 1.278-2.898 1.278c-1.998 0-3.564-1.512-3.564-3.636 0-2.16 1.548-3.636 3.528-3.636 1.638 0 2.646 1.098 2.646 1.098l.63-.918s-1.098-1.296-3.312-1.296c-2.664 0-4.752 1.962-4.752 4.752zM159.4 39.482c0 2.79 2.034 4.734 4.734 4.734 2.034 0 3.348-1.26 3.348-1.26l-.558-.936s-1.098 1.098-2.754 1.098c-1.872 0-3.456-1.26-3.51-3.582h6.948s.036-.414.036-.63c0-2.25-1.278-4.176-3.78-4.176-2.448 0-4.464 1.782-4.464 4.752zm1.314-.954c.288-1.818 1.602-2.772 3.114-2.772 1.35 0 2.502.882 2.574 2.772h-5.688zM174.786 44h1.242v-5.67h4.644v-1.116h-4.644v-4.752h5.418v-1.116h-6.66zM183.442 32.876h1.278v-1.53h-1.278v1.53zM183.478 44h1.224v-9.054h-1.224V44zM187.454 44h1.224v-4.338c0-.432.036-.846.144-1.224.414-1.494 1.746-2.556 3.294-2.556 1.746 0 1.962 1.26 1.962 2.682V44h1.224v-5.76c0-2.232-.792-3.51-3.024-3.51-2.142 0-3.294 1.458-3.618 2.286h-.036s.036-.324.036-.72v-1.35h-1.206V44zM197.334 39.464c0 2.808 1.512 4.752 3.942 4.752 2.376 0 3.114-1.818 3.114-1.818h.036s-.036.252-.036.648V44h1.188V31.346h-1.224v4.41c0 .378.036.684.036.684h-.036s-.756-1.71-2.952-1.71c-2.376 0-4.068 1.872-4.068 4.734zm1.26 0c0-2.286 1.314-3.636 2.916-3.636 1.944 0 2.88 1.8 2.88 3.636 0 2.574-1.422 3.654-2.934 3.654-1.692 0-2.862-1.422-2.862-3.654zM207.7 39.482c0 2.79 2.034 4.734 4.734 4.734 2.034 0 3.348-1.26 3.348-1.26l-.558-.936s-1.098 1.098-2.754 1.098c-1.872 0-3.456-1.26-3.51-3.582h6.948s.036-.414.036-.63c0-2.25-1.278-4.176-3.78-4.176-2.448 0-4.464 1.782-4.464 4.752zm1.314-.954c.288-1.818 1.602-2.772 3.114-2.772 1.35 0 2.502.882 2.574 2.772h-5.688zM218.084 44h1.224v-3.816c0-.576.072-1.188.252-1.764.396-1.332 1.35-2.34 2.628-2.34.234 0 .45.036.45.036V34.91s-.234-.054-.486-.054c-1.422 0-2.43 1.044-2.862 2.412h-.036s.036-.324.036-.72v-1.602h-1.206V44z"/>
        </g>
        <path d="M34.593 16.303c2.378 1.714 4.646 4.314 4.536 5.697-.056.83-2.987 3.762-6.196 4.924.775 2.876.83 6.306-.11 7.357-.498.553-4.26.94-7.413-.11a8.65 8.65 0 0 0 .332-2.324c.11-3.817 4.923-6.306 4.923-13 0-6.306-6.085-10.897-11.119-10.897-4.978 0-11.119 4.591-11.119 10.897 0 6.694 4.813 9.183 4.924 13 .055 1.05.166 1.936.442 2.6-2.489 1.106-5.476 1.66-6.527.94-.664-.442-1.715-4.536-1.051-7.966C3.449 26.647.462 24.987.019 23.66c-.221-.775 1.494-4.592 4.204-6.804-1.66-2.434-2.932-5.643-2.378-6.915.332-.774 4.038-2.49 7.523-2.49.221-2.931 1.327-6.25 2.544-6.859.72-.387 4.702.72 7.302 3.043 2.047-2.102 4.924-3.928 6.251-3.596.775.166 3.153 3.651 3.707 7.136 2.876-.276 6.25.277 7.08 1.383.498.498.11 4.702-1.66 7.745z" fill="#E75300" fill-rule="nonzero"/>
        <path d="M23.53 23.328c2.378.277 4.812-1.715 7.301-.277.885.554 1.66 2.102 2.102 3.873-1.106.387-2.268.608-3.374.387-2.047-.332-4.426-2.268-6.03-3.983zm-9.515-2.545c-1.383 1.992-.94 5.145-3.43 6.583-.885.553-2.6.443-4.37-.055.221-1.217.664-2.324 1.383-3.209 1.327-1.604 4.148-2.765 6.417-3.319zm.331-3.927c-2.323.608-3.982 3.319-6.748 2.821-1.051-.166-2.268-1.383-3.264-2.932.94-.774 1.936-1.327 3.042-1.549 1.992-.387 4.868.553 6.97 1.66zm2.711-2.877c-2.157-1.05-5.09-.055-6.915-2.268-.664-.83-.83-2.544-.719-4.37 1.162 0 2.323.221 3.32.83 1.77.996 3.374 3.65 4.314 5.808zm3.872-.332c-.995-2.268-3.872-3.43-3.872-6.306 0-1.05.94-2.49 2.213-3.817.885.775 1.66 1.715 2.046 2.821.72 1.937.277 4.979-.387 7.302zm4.204 6.03c1.992-1.383 2.6-4.48 5.422-4.979 1.05-.166 2.6.498 4.038 1.605-.609 1.05-1.383 1.936-2.324 2.544-1.77 1.051-4.812 1.162-7.136.83zm4.094-12.668c.166 1.217.166 2.379-.221 3.485-.664 1.992-2.932 4.038-4.924 5.366.664-2.379-.83-5.144.996-7.357.72-.83 2.323-1.328 4.149-1.494z" fill="#AD441D"/>
        <path d="M15.453 35.94c-.498-.166-.94-.497-1.162-.885-.442-.719-.774-1.715-.83-3.263-.11-3.817-4.923-6.307-4.923-13 0-6.306 6.085-10.898 11.119-10.898 4.979 0 11.119 4.592 11.119 10.898 0 6.693-4.813 9.183-4.923 13-.056 1.604-.388 2.655-.886 3.374-.276.387-.608.608-1.05.83h-.111l-8.353-.056z" fill="#FFD26C"/>
        <path d="M21.814 20.451c.166-.22 1.383.056 2.49-.276.332-.11.608-.277.885-.443-1.77-.221-3.098-.664-3.153-1.05 0-.277 1.106-.83 1.714-1.882.166-.276.277-.608.388-.94-1.494.996-2.766 1.549-3.043 1.272-.221-.22.332-1.383.166-2.544a4.673 4.673 0 0 0-.276-.94c-.498 1.714-1.162 2.987-1.55 2.987-.276 0-.608-1.273-1.493-2.047a7.207 7.207 0 0 0-.83-.553c.72 1.66.996 3.042.664 3.319-.221.166-1.272-.554-2.434-.609-.332 0-.664.055-.996.11 1.55.83 2.656 1.66 2.6 2.103-.055.276-1.327.387-2.212 1.162-.277.22-.498.442-.664.719 1.715-.388 3.098-.498 3.319-.111.11.277-.775 1.162-.996 2.323-.055.332-.055.664-.055.996 1.05-1.438 2.102-2.379 2.434-2.268.276.11.166 1.383.719 2.434.166.332.387.553.608.83-.11-1.77.111-3.209.443-3.32.277-.055.996.941 2.102 1.384.332.11.609.221.94.221-1.217-1.328-1.99-2.545-1.77-2.877z" fill="#FFF" fill-rule="nonzero"/>
        <path d="M24.414 33.728a12.664 12.664 0 0 1-.885-.498c-.498-.332-.996-.72-1.383-1.217-1.327-1.604-1.936-4.647-2.102-7.026 1.66 1.77 4.757 1.826 5.753 4.592.056.11.056.166.056.276l.165.609c-.11.442-.22.885-.22 1.328-.056.94-.167 1.714-.333 2.378-.332-.11-.664-.276-1.05-.442zm-8.131-9.68c.166 2.433 2.489 4.535 1.548 7.301-.276.774-1.106 1.549-2.212 2.213-.332.221-.72.442-1.162.608-.221.11-.387.166-.553.277-.221-.664-.387-1.55-.443-2.6V30.796c0-.221 0-.498.056-.72.276-1.99 1.493-4.37 2.766-6.029zM28.12 12.153c-.996 1.438-2.6 2.821-4.039 3.761.609-2.102-.498-4.536.498-6.582a10.8 10.8 0 0 1 3.54 2.82zm-2.988 7.523c1.826-1.272 2.49-3.983 4.758-4.813.498 1.217.83 2.49.83 3.928v.664c-1.715.442-3.873.442-5.588.221zm-4.204-6.03c-.885-1.991-3.208-3.097-3.761-5.365a9.625 9.625 0 0 1 2.489-.332c.664 0 1.328.055 2.047.22.055 1.716-.277 3.818-.775 5.477zm-3.872.332c-1.88-.94-4.37-.276-6.196-1.604.94-1.217 2.158-2.213 3.43-2.932 1.162 1.273 2.102 3.043 2.766 4.536zm-2.71 2.877c-2.047.553-3.54 2.655-5.754 2.876 0-.276-.055-.608-.055-.885 0-1.272.277-2.544.72-3.65 1.659.165 3.595.884 5.088 1.659zm-.332 3.927c-1.273 1.77-.996 4.536-2.766 6.085-.775-1.217-1.55-2.489-2.102-4.093 1.438-.885 3.319-1.604 4.868-1.992zm9.514 2.545c2.158.221 4.37-1.383 6.583-.609-.553 1.605-1.328 2.932-2.102 4.094-1.604-.774-3.264-2.213-4.48-3.485z" fill="#FFC656"/>
        <path d="M23.75 39.757v.553c.388 0 .72.388.72.83 0 .443-.277.775-.72.775l-2.71.719a.916.916 0 0 1 .276.664c0 .442-.331.83-.719.83h-1.991c-.387 0-.72-.388-.72-.83 0-.332.167-.609.388-.72l-2.821-.663c-.387 0-.72-.388-.72-.83 0-.443.333-.83.72-.83h6.693v-.166l-6.693-.387c-.387 0-.72-.387-.72-.83 0-.442.333-.83.72-.83h6.638v-.165l-6.638-.388c-.387 0-.72-.387-.72-.83 0-.442.333-.83.72-.83h8.297c.388 0 .72.388.72.83 0 .443-.332.83-.72.83h-.055v.553h.055c.388 0 .72.388.72.83 0 .498-.277.885-.72.885z" fill="#00758D" fill-rule="nonzero"/>
        <path d="M157.69 11.214a3.413 3.413 0 0 1 2.654-1.228c1.917 0 2.752 1.13 2.752 3.194V16.67h1.18v1.67h-1.966c-.688 0-1.229-.344-1.229-.983v-3.882c0-1.081-.196-1.67-1.13-1.67-1.327 0-2.26 1.228-2.26 2.702V18.389h-1.966V11.853h-1.032v-1.67h1.77c.785 0 1.228.343 1.228 1.031zm-7.665 7.372c-2.36 0-4.325-1.819-4.325-4.325 0-2.506 1.966-4.275 4.325-4.275 2.358 0 4.324 1.818 4.324 4.275 0 2.506-1.966 4.325-4.324 4.325zm0-6.782c-1.278 0-2.31 1.032-2.31 2.457 0 1.475 1.032 2.506 2.31 2.506 1.277 0 2.31-1.031 2.31-2.506 0-1.425-1.082-2.457-2.31-2.457zm17.74 6.782c-1.868 0-3.096-1.524-3.096-1.524l1.08-1.326s.787 1.13 2.065 1.13c.835 0 1.278-.344 1.278-.737 0-.688-1.229-.983-1.72-1.13-1.082-.394-2.507-.983-2.507-2.605 0-1.77 1.72-2.408 3.047-2.408 1.032 0 2.85.442 2.85 1.818v.836h-1.769v-.394c0-.196-.344-.54-1.08-.54-.689 0-1.082.295-1.082.639 0 .639 1.13.933 1.573 1.08 1.13.394 2.653.935 2.653 2.556 0 1.77-1.523 2.605-3.292 2.605zm8.698 0c-2.359 0-4.325-1.819-4.325-4.325 0-2.506 1.966-4.275 4.325-4.275s4.324 1.818 4.324 4.275c0 2.506-1.916 4.325-4.324 4.325zm0-6.782c-1.278 0-2.31 1.032-2.31 2.457 0 1.475 1.032 2.506 2.31 2.506 1.277 0 2.31-1.031 2.31-2.506.049-1.425-1.033-2.457-2.31-2.457zm8.108-.098c.246-.59 1.229-1.622 2.113-1.622.197 0 .64.05.64.05v2.014s-.492-.098-.689-.098c-1.376 0-2.015 1.425-2.015 2.9v3.44h-1.965V11.852h-1.229v-1.67h1.966c.688 0 1.228.343 1.228.982-.049.099-.049.492-.049.54zm7.47 6.781c-.983 0-3.145-.344-3.145-3.145v-3.489h-1.081v-1.67h1.08V8.068h1.917v2.113h1.818v1.671h-1.818v3.342c0 1.327.836 1.474 1.327 1.474.197 0 .59-.049.59-.049v1.77c.098 0-.344.097-.688.097zm5.061-9.336h-2.014V7.136h2.014V9.15zm.934 9.238h-2.064c-.491 0-.884-.393-.884-1.228v-5.308h-1.229v-1.67h2.015c1.13 0 1.18.835 1.18 1.228v5.307h.982v1.671zm7.076-.983c-.491.59-1.326 1.18-2.604 1.18-1.818 0-2.752-1.081-2.752-3.194v-3.539h-1.032v-1.67h2.015c.59 0 .983.49.983.933v3.932c0 1.031.196 1.67 1.13 1.67 1.278 0 2.162-1.277 2.162-2.752v-3.833h1.966v6.487c0 .05 0 .05.049.05h.934v1.67h-1.72c-.64.05-1.081-.295-1.13-.934zm6.88-6.192c.59-.688 1.425-1.228 2.408-1.228 1.13 0 1.917.442 2.31 1.425.54-.786 1.523-1.425 2.654-1.425 1.867 0 2.702 1.13 2.702 3.194v3.538H223v1.671h-2.949v-4.865c0-1.081-.196-1.67-1.08-1.67-1.18 0-1.966 1.277-1.966 2.751v3.784h-1.966v-4.865c0-1.032-.147-1.67-1.032-1.67-1.18 0-2.015 1.326-2.015 2.8v3.735h-1.965V11.853h-1.229v-1.67h1.966c.737 0 1.18.343 1.228 1.031zm-71.648 7.323c-3.293 0-5.7-2.605-5.7-5.897 0-3.293 2.456-5.75 5.65-5.75 1.327 0 4.276.491 4.276 2.408v1.572h-1.917V9.79c0-.836-1.769-1.033-2.31-1.033-2.112 0-3.636 1.573-3.636 3.833 0 2.408 1.573 4.08 3.735 4.08 2.31 0 3.342-1.573 3.342-1.573l.982 1.376s-1.228 2.064-4.422 2.064zM118.187 12.201c.246-.639 1.278-1.72 2.26-1.72.246 0 .688.098.688.098v2.163s-.491-.148-.737-.148c-1.425 0-2.162 1.524-2.162 3.096v3.637h-2.064v-6.93h-1.18V10.63h1.868c.688 0 1.327.344 1.327 1.08v.492zm-29.633-.54c.54-.64 1.425-1.278 2.801-1.278 2.015 0 2.949 1.228 2.949 3.39V17.51h1.081v1.769h-1.867c-.688 0-1.278-.344-1.278-1.082v-4.078c0-1.13-.197-1.77-1.229-1.77-1.425 0-2.407 1.327-2.407 2.85v4.08H86.49v-6.93H85.41V10.58h1.868c.786-.049 1.228.344 1.277 1.082zm-18.968 7.666c-3.539 0-6.094-2.801-6.094-6.29 0-3.539 2.605-6.143 5.995-6.143 1.425 0 4.57.54 4.57 2.555v1.671h-2.014V9.94c0-.884-1.868-1.08-2.457-1.08-2.26 0-3.883 1.67-3.883 4.127 0 2.556 1.72 4.374 3.98 4.374 2.458 0 3.588-1.67 3.588-1.67l1.032 1.473c-.049-.049-1.327 2.163-4.717 2.163zm10.369.196c-2.556 0-4.62-1.916-4.62-4.62 0-2.653 2.064-4.57 4.62-4.57 2.555 0 4.619 1.917 4.619 4.57 0 2.655-2.064 4.62-4.62 4.62zm0-7.273c-1.376 0-2.507 1.081-2.507 2.654 0 1.572 1.13 2.654 2.507 2.654 1.326 0 2.506-1.082 2.506-2.654 0-1.573-1.13-2.654-2.506-2.654zm20.836 7.273c-2.457 0-4.62-1.72-4.62-4.57 0-2.703 1.966-4.62 4.521-4.62 1.229 0 3.44.492 3.44 2.163v.934h-1.916v-.492c0-.491-1.13-.639-1.474-.639-1.475 0-2.458 1.032-2.458 2.654 0 1.72 1.13 2.654 2.556 2.654 1.18 0 1.818-.54 2.653-1.229l.836 1.671c-.983.885-2.162 1.474-3.538 1.474zm8.747 0c-2.555 0-4.62-1.916-4.62-4.62 0-2.653 2.065-4.57 4.62-4.57s4.62 1.917 4.62 4.57c0 2.655-2.065 4.62-4.62 4.62zm0-7.273c-1.376 0-2.506 1.081-2.506 2.654 0 1.572 1.13 2.654 2.506 2.654 1.327 0 2.506-1.082 2.506-2.654 0-1.573-1.13-2.654-2.506-2.654zm18.428-1.08V9.104h-.983V7.336h3.047V17.51H131.16v1.769h-1.867c-.688 0-1.13-.344-1.229-.836-.639.688-1.523 1.032-2.457 1.032-2.359 0-3.784-1.916-3.784-4.57 0-2.752 1.573-4.57 3.932-4.57.737 0 1.621.295 2.211.835zM126 12.3c-1.08 0-2.064.884-2.064 2.653 0 1.67.885 2.654 2.015 2.654 1.032 0 2.064-.737 2.064-2.654 0-1.474-.737-2.654-2.015-2.654zM48.209 9.597c.491 0 .688.344.688.737v1.228h-1.229v-.835h-1.08v6.29H45.26v-6.241h-1.082v.786H43v-1.18c0-.441.197-.835.688-.835h4.521v.05zm2.85 2.653a2.228 2.228 0 0 1 1.671-.737c1.278 0 1.867.737 1.867 2.113v2.31h.787v1.13H53.32v-3.194c0-.688-.148-1.081-.787-1.081-.835 0-1.474.737-1.474 1.769v2.555h-1.277v-6.339h-.443v-1.18h1.77v2.654h-.05zm7.42 4.914c-1.67 0-2.8-1.228-2.8-2.85 0-1.72 1.13-2.85 2.653-2.85 1.524 0 2.31 1.18 2.31 2.555 0 .148-.05.54-.05.54h-3.587c.148.885.787 1.377 1.524 1.377.639 0 1.08-.295 1.523-.688l.59 1.032s-.148.147-.246.196a3.053 3.053 0 0 1-1.916.688zm-.147-4.57c-.59 0-1.08.344-1.228.983h2.26c-.098-.639-.54-.983-1.032-.983z" fill="#231F20"/>
    </g>
</svg>
