<?xml version="1.0" encoding="UTF-8"?>
<svg id="EXPORT" xmlns="http://www.w3.org/2000/svg" viewBox="0 0 255 45">
  <defs>
    <style>
      .cls-1 {
        fill: #fff;
      }

      .cls-2 {
        fill: #0492af;
      }

      .cls-3 {
        fill: #ad441d;
      }

      .cls-3, .cls-4, .cls-5 {
        fill-rule: evenodd;
      }

      .cls-6 {
        fill: #00758d;
      }

      .cls-7 {
        fill: #e75300;
      }

      .cls-4 {
        fill: #ffd26c;
      }

      .cls-5 {
        fill: #ffc656;
      }
    </style>
  </defs>
  <g>
    <g>
      <path class="cls-7" d="M108.256,31.903c1,.721,1.954,1.814,1.907,2.396-.023.349-1.256,1.582-2.605,2.07.326,1.209.349,2.651-.047,3.093-.209.233-1.791.395-3.117-.047.07-.256.14-.581.14-.977.047-1.605,2.07-2.651,2.07-5.466,0-2.651-2.558-4.582-4.675-4.582-2.093,0-4.675,1.93-4.675,4.582,0,2.814,2.023,3.861,2.07,5.466.023.442.07.814.186,1.093-1.047.465-2.303.698-2.744.395-.279-.186-.721-1.907-.442-3.349-1.163-.326-2.419-1.023-2.605-1.582-.093-.326.628-1.93,1.768-2.861-.698-1.023-1.233-2.372-1-2.907.14-.326,1.698-1.047,3.163-1.047.093-1.233.558-2.628,1.07-2.884.302-.163,1.977.302,3.07,1.279.861-.884,2.07-1.651,2.628-1.512.326.07,1.326,1.535,1.558,3,1.209-.116,2.628.116,2.977.581.209.209.047,1.977-.698,3.256Z"/>
      <path class="cls-3" d="M103.604,34.857c1,.116,2.023-.721,3.07-.116.372.233.698.884.884,1.628-.465.163-.954.256-1.419.163-.861-.14-1.861-.954-2.535-1.675ZM99.604,33.787c-.581.837-.395,2.163-1.442,2.768-.372.233-1.093.186-1.837-.023.093-.512.279-.977.581-1.349.558-.674,1.744-1.163,2.698-1.395ZM99.743,32.136c-.977.256-1.675,1.395-2.837,1.186-.442-.07-.954-.581-1.372-1.233.395-.326.814-.558,1.279-.651.837-.163,2.047.233,2.931.698ZM100.883,30.926c-.907-.442-2.14-.023-2.907-.954-.279-.349-.349-1.07-.302-1.837.488,0,.977.093,1.395.349.744.419,1.419,1.535,1.814,2.442ZM102.511,30.787c-.419-.954-1.628-1.442-1.628-2.651,0-.442.395-1.047.93-1.605.372.326.698.721.861,1.186.302.814.116,2.093-.163,3.07ZM104.279,33.322c.837-.581,1.093-1.884,2.279-2.093.442-.07,1.093.209,1.698.674-.256.442-.581.814-.977,1.07-.744.442-2.023.488-3,.349ZM106,27.996c.07.512.07,1-.093,1.465-.279.837-1.233,1.698-2.07,2.256.279-1-.349-2.163.419-3.093.302-.349.977-.558,1.744-.628Z"/>
      <path class="cls-4" d="M100.208,40.16c-.209-.07-.395-.209-.488-.372-.186-.302-.326-.721-.349-1.372-.047-1.605-2.07-2.651-2.07-5.466,0-2.651,2.558-4.582,4.675-4.582,2.093,0,4.675,1.93,4.675,4.582,0,2.814-2.023,3.861-2.07,5.466-.023.674-.163,1.116-.372,1.419-.116.163-.256.256-.442.349h-.047l-3.512-.023h0Z"/>
      <path class="cls-1" d="M102.883,33.648c.07-.093.581.023,1.047-.116.14-.047.256-.116.372-.186-.744-.093-1.302-.279-1.326-.442,0-.116.465-.349.721-.791.07-.116.116-.256.163-.395-.628.419-1.163.651-1.279.535-.093-.093.14-.581.07-1.07-.023-.14-.07-.279-.116-.395-.209.721-.488,1.256-.651,1.256-.116,0-.256-.535-.628-.861-.116-.093-.233-.163-.349-.233.302.698.419,1.279.279,1.395-.093.07-.535-.233-1.023-.256-.14,0-.279.023-.419.047.651.349,1.116.698,1.093.884-.023.116-.558.163-.93.488-.116.093-.209.186-.279.302.721-.163,1.302-.209,1.395-.047.047.116-.326.488-.419.977-.023.14-.023.279-.023.419.442-.605.884-1,1.023-.954.116.047.07.581.302,1.023.07.14.163.233.256.349-.047-.744.047-1.349.186-1.395.116-.023.419.395.884.581.14.047.256.093.395.093-.512-.558-.837-1.07-.744-1.209Z"/>
      <path class="cls-5" d="M103.976,39.229c-.14-.07-.256-.14-.372-.209-.209-.14-.419-.302-.581-.512-.558-.674-.814-1.954-.884-2.954.698.744,2,.768,2.419,1.93.023.047.023.07.023.116l.07.256c-.047.186-.093.372-.093.558-.023.395-.07.721-.14,1-.14-.047-.279-.116-.442-.186ZM100.557,35.159c.07,1.023,1.047,1.907.651,3.07-.116.326-.465.651-.93.93-.14.093-.302.186-.488.256-.093.047-.163.07-.233.116-.093-.279-.163-.651-.186-1.093v-.442c0-.093,0-.209.023-.302.116-.837.628-1.837,1.163-2.535ZM105.534,30.159c-.419.605-1.093,1.186-1.698,1.582.256-.884-.209-1.907.209-2.768.558.279,1.07.674,1.489,1.186ZM104.279,33.322c.768-.535,1.047-1.675,2-2.023.209.512.349,1.047.349,1.651v.279c-.721.186-1.628.186-2.349.093ZM102.511,30.787c-.372-.837-1.349-1.302-1.582-2.256.349-.093.698-.14,1.047-.14.279,0,.558.023.861.093.023.721-.116,1.605-.326,2.303ZM100.883,30.926c-.791-.395-1.837-.116-2.605-.674.395-.512.907-.93,1.442-1.233.488.535.884,1.279,1.163,1.907ZM99.743,32.136c-.861.233-1.489,1.116-2.419,1.209,0-.116-.023-.256-.023-.372,0-.535.116-1.07.302-1.535.698.07,1.512.372,2.14.698ZM99.604,33.787c-.535.744-.419,1.907-1.163,2.558-.326-.512-.651-1.047-.884-1.721.605-.372,1.395-.674,2.047-.837ZM103.604,34.857c.907.093,1.837-.581,2.768-.256-.233.674-.558,1.233-.884,1.721-.674-.326-1.372-.93-1.884-1.465Z"/>
      <path class="cls-6" d="M103.697,41.765v.233c.163,0,.302.163.302.349s-.116.326-.302.326l-1.14.302c.07.07.116.163.116.279,0,.186-.14.349-.302.349h-.837c-.163,0-.302-.163-.302-.349,0-.14.07-.256.163-.302l-1.186-.279c-.163,0-.302-.163-.302-.349s.14-.349.302-.349h2.814v-.07l-2.814-.163c-.163,0-.302-.163-.302-.349s.14-.349.302-.349h2.791v-.07l-2.791-.163c-.163,0-.302-.163-.302-.349s.14-.349.302-.349h3.489c.163,0,.302.163.302.349s-.14.349-.302.349h-.023v.233h.023c.163,0,.302.163.302.349,0,.209-.116.372-.302.372Z"/>
    </g>
    <g>
      <g>
        <path d="M127.819,35.373c0-1.084.362-1.99,1.088-2.718.725-.729,1.629-1.093,2.713-1.093.267,0,.552.03.854.09s.608.149.918.269c.311.12.565.294.766.522.201.229.301.495.301.797v.834h-1.256v-.422c0-.253-.164-.45-.491-.591s-.681-.211-1.061-.211c-.689,0-1.262.229-1.715.686-.454.458-.682,1.07-.682,1.837,0,.731.236,1.356.708,1.874.471.517,1.048.775,1.73.775.268,0,.526-.033.776-.101.249-.066.461-.149.633-.248.173-.099.327-.196.465-.295.137-.099.237-.18.301-.243l.095-.105.729.992c-.028.035-.07.081-.127.138-.056.056-.183.158-.38.306s-.402.279-.617.396-.494.221-.839.312c-.346.092-.697.138-1.056.138-1.134,0-2.059-.375-2.776-1.124-.718-.75-1.077-1.688-1.077-2.813Z"/>
        <path d="M136.174,38.514c-.566-.531-.85-1.205-.85-2.021s.283-1.49.85-2.021,1.265-.797,2.096-.797,1.53.266,2.101.797c.569.531.854,1.205.854,2.021s-.283,1.49-.85,2.021-1.269.797-2.105.797c-.831,0-1.529-.266-2.096-.797ZM136.675,36.492c0,.492.155.896.465,1.208.31.313.687.47,1.13.47.45,0,.83-.156,1.14-.47.31-.312.465-.716.465-1.208,0-.486-.157-.887-.47-1.204-.313-.316-.691-.475-1.135-.475s-.82.158-1.13.475c-.31.317-.465.718-.465,1.204Z"/>
        <path d="M142.439,39.184v-4.011c0-.155-.077-.232-.232-.232h-.422v-1.141h1.235c.471,0,.707.201.707.602v.159l-.021.231h.021c.147-.295.38-.556.696-.78.317-.226.718-.338,1.204-.338,1.252,0,1.879.683,1.879,2.048v2.101c0,.154.077.231.231.231h.423v1.13h-1.277c-.254,0-.437-.057-.549-.169-.113-.112-.169-.296-.169-.549v-2.47c0-.359-.062-.632-.185-.818-.124-.187-.344-.28-.66-.28-.352,0-.656.101-.913.302-.257.2-.435.466-.533.797-.07.211-.105.45-.105.718v2.47h-1.33Z"/>
        <path d="M148.688,36.492c0-.788.268-1.455.802-2.001.535-.545,1.249-.817,2.144-.817.274,0,.549.033.823.1.274.067.531.197.771.391.239.194.358.435.358.724v.633h-1.182v-.295c0-.134-.081-.238-.243-.312-.162-.074-.338-.111-.527-.111-.465,0-.847.158-1.146.476-.3.316-.449.718-.449,1.203,0,.521.164.927.491,1.219s.724.438,1.188.438c.274,0,.544-.062.808-.185s.463-.245.597-.364l.189-.18.56.929c-.021.028-.053.063-.095.105-.042.043-.136.12-.28.232-.144.113-.297.211-.459.296-.162.084-.373.162-.633.232-.261.07-.528.105-.803.105-.865,0-1.567-.27-2.105-.808s-.808-1.209-.808-2.011Z"/>
        <path d="M155.216,38.514c-.566-.531-.85-1.205-.85-2.021s.283-1.49.85-2.021,1.265-.797,2.096-.797,1.53.266,2.101.797c.569.531.854,1.205.854,2.021s-.283,1.49-.85,2.021-1.269.797-2.105.797c-.831,0-1.529-.266-2.096-.797ZM155.717,36.492c0,.492.155.896.465,1.208.31.313.687.47,1.13.47.45,0,.83-.156,1.14-.47.31-.312.465-.716.465-1.208,0-.486-.157-.887-.47-1.204-.313-.316-.691-.475-1.135-.475s-.82.158-1.13.475c-.31.317-.465.718-.465,1.204Z"/>
        <path d="M161.481,39.184v-4.011c0-.155-.077-.232-.232-.232h-.422v-1.141h1.225c.479,0,.718.219.718.655v.316l-.021.338h.021c.127-.401.343-.732.649-.992.306-.261.659-.391,1.061-.391l.243.021v1.319c-.092-.014-.201-.021-.328-.021-.316,0-.611.095-.886.285-.275.189-.469.472-.581.844-.077.274-.116.567-.116.877v2.132h-1.33Z"/>
        <path d="M165.091,36.492c0-.845.229-1.525.686-2.043.458-.518,1.046-.775,1.764-.775.218,0,.42.022.606.068s.336.101.449.163c.112.063.207.127.284.19.078.063.131.12.159.169l.053.063h.021c-.007-.092-.011-.197-.011-.316v-.95c0-.155-.077-.232-.231-.232h-.423v-1.14h1.277c.479,0,.718.239.718.718v5.415c0,.154.077.231.232.231h.411v1.13h-1.234c-.443,0-.665-.183-.665-.549v-.2h-.021c-.014.021-.033.053-.058.095-.025.042-.085.112-.18.211s-.2.187-.316.264c-.116.078-.274.148-.476.211-.2.063-.417.096-.648.096-.726,0-1.306-.261-1.742-.781s-.654-1.2-.654-2.037ZM167.783,38.181c.38,0,.7-.143.961-.428.26-.284.391-.709.391-1.271,0-.45-.116-.839-.349-1.167-.232-.327-.56-.49-.981-.49-.388,0-.709.149-.966.448-.257.3-.386.706-.386,1.22,0,.507.123.915.37,1.225.246.31.566.464.96.464Z"/>
        <path d="M174.432,35.373c0-1.084.362-1.99,1.088-2.718.725-.729,1.629-1.093,2.713-1.093.267,0,.552.03.854.09s.608.149.918.269c.311.12.565.294.766.522.201.229.301.495.301.797v.834h-1.256v-.422c0-.253-.164-.45-.491-.591s-.681-.211-1.061-.211c-.689,0-1.262.229-1.715.686-.454.458-.682,1.07-.682,1.837,0,.731.236,1.356.708,1.874.471.517,1.048.775,1.73.775.268,0,.526-.033.776-.101.249-.066.461-.149.633-.248.173-.099.327-.196.465-.295.137-.099.237-.18.301-.243l.095-.105.729.992c-.028.035-.07.081-.127.138-.056.056-.183.158-.38.306s-.402.279-.617.396-.494.221-.839.312c-.346.092-.697.138-1.056.138-1.134,0-2.059-.375-2.776-1.124-.718-.75-1.077-1.688-1.077-2.813Z"/>
        <path d="M182.788,38.514c-.566-.531-.85-1.205-.85-2.021s.283-1.49.85-2.021,1.265-.797,2.096-.797,1.53.266,2.101.797c.569.531.854,1.205.854,2.021s-.283,1.49-.85,2.021-1.269.797-2.105.797c-.831,0-1.529-.266-2.096-.797ZM183.289,36.492c0,.492.155.896.465,1.208.31.313.687.47,1.13.47.45,0,.83-.156,1.14-.47.31-.312.465-.716.465-1.208,0-.486-.157-.887-.47-1.204-.313-.316-.691-.475-1.135-.475s-.82.158-1.13.475c-.31.317-.465.718-.465,1.204Z"/>
        <path d="M189.052,39.184v-4.011c0-.155-.077-.232-.232-.232h-.422v-1.141h1.235c.471,0,.707.201.707.602v.159l-.021.231h.021c.147-.295.38-.556.696-.78.317-.226.718-.338,1.204-.338,1.252,0,1.879.683,1.879,2.048v2.101c0,.154.077.231.231.231h.423v1.13h-1.277c-.254,0-.437-.057-.549-.169-.113-.112-.169-.296-.169-.549v-2.47c0-.359-.062-.632-.185-.818-.124-.187-.344-.28-.66-.28-.352,0-.656.101-.913.302-.257.2-.435.466-.533.797-.07.211-.105.45-.105.718v2.47h-1.33Z"/>
        <path d="M195.227,38.35l.634-.876c.049.057.121.128.216.217.096.088.281.205.56.354.278.147.555.222.829.222.218,0,.394-.044.527-.133.134-.088.201-.22.201-.396,0-.134-.098-.259-.291-.375-.193-.115-.429-.227-.707-.332s-.558-.227-.839-.364c-.281-.137-.52-.327-.713-.57-.193-.242-.29-.525-.29-.85,0-.514.198-.904.597-1.172.397-.267.896-.4,1.493-.4.204,0,.406.018.607.053.2.035.4.093.602.174.2.081.364.199.49.354.127.155.19.334.19.538v.56h-1.183v-.264c0-.119-.07-.213-.211-.279-.141-.067-.295-.101-.464-.101-.247,0-.442.042-.586.127-.145.084-.217.204-.217.358,0,.155.099.29.296.406.196.116.436.224.718.322.281.099.561.211.839.338s.516.31.713.549c.196.239.295.524.295.854,0,.5-.195.899-.586,1.198-.39.3-.885.449-1.482.449-.437,0-.841-.081-1.214-.243s-.638-.32-.792-.475l-.232-.243Z"/>
        <path d="M201.091,38.514c-.566-.531-.85-1.205-.85-2.021s.283-1.49.85-2.021,1.265-.797,2.096-.797,1.53.266,2.101.797c.569.531.854,1.205.854,2.021s-.283,1.49-.85,2.021-1.269.797-2.105.797c-.831,0-1.529-.266-2.096-.797ZM201.592,36.492c0,.492.155.896.465,1.208.31.313.687.47,1.13.47.45,0,.83-.156,1.14-.47.31-.312.465-.716.465-1.208,0-.486-.157-.887-.47-1.204-.313-.316-.691-.475-1.135-.475s-.82.158-1.13.475c-.31.317-.465.718-.465,1.204Z"/>
        <path d="M207.356,39.184v-4.011c0-.155-.077-.232-.232-.232h-.422v-1.141h1.225c.479,0,.718.219.718.655v.316l-.021.338h.021c.127-.401.343-.732.649-.992.306-.261.659-.391,1.061-.391l.243.021v1.319c-.092-.014-.201-.021-.328-.021-.316,0-.611.095-.886.285-.275.189-.469.472-.581.844-.077.274-.116.567-.116.877v2.132h-1.33Z"/>
        <path d="M211.726,37.21v-2.344h-.697v-1.066h.729v-1.467h1.31v1.467h1.224v1.066h-1.224v2.175c0,.387.11.652.332.797s.466.216.733.216l.243-.021v1.172c-.112.021-.25.031-.412.031-.183,0-.358-.013-.527-.037s-.362-.079-.581-.163c-.218-.085-.406-.195-.564-.333-.158-.137-.292-.334-.401-.591-.108-.257-.163-.558-.163-.902Z"/>
        <path d="M215.652,38.466v-3.293c0-.155-.077-.232-.231-.232h-.423v-1.141h1.277c.246,0,.426.059.538.175.113.116.169.297.169.543v3.305c0,.154.078.231.232.231h.423v1.13h-1.277c-.247,0-.426-.057-.539-.169-.112-.112-.169-.296-.169-.549ZM215.715,32.924v-1.234h1.161v1.234h-1.161Z"/>
        <path d="M218.746,37.263v-2.09c0-.155-.078-.232-.232-.232h-.423v-1.141h1.277c.246,0,.426.057.539.169.112.113.168.292.168.539v2.48c0,.358.062.632.186.817.123.187.339.28.648.28.465,0,.832-.176,1.104-.528.271-.352.406-.78.406-1.287v-2.471h1.341v4.022c0,.154.077.231.232.231h.422v1.13h-1.235c-.471,0-.707-.2-.707-.602v-.147l.011-.243h-.021c-.141.31-.376.573-.707.792-.331.218-.714.327-1.15.327-1.238,0-1.857-.683-1.857-2.048Z"/>
        <path d="M225.501,39.184v-4.011c0-.155-.077-.232-.232-.232h-.422v-1.141h1.235c.471,0,.707.201.707.602v.159l-.011.231h.021c.141-.295.367-.556.681-.78.312-.226.667-.338,1.061-.338.816,0,1.341.369,1.573,1.108h.021c.155-.31.397-.572.729-.787.331-.214.7-.321,1.108-.321,1.176,0,1.763.683,1.763,2.048v2.101c0,.154.077.231.232.231h.412v1.13h-1.267c-.254,0-.437-.057-.55-.169-.112-.112-.168-.296-.168-.549v-2.491c0-.352-.052-.619-.153-.802-.103-.184-.298-.275-.586-.275-.316,0-.591.118-.823.354-.232.235-.388.529-.465.881-.057.19-.084.419-.084.687v2.364h-1.341v-3.209c0-.345-.048-.61-.143-.797s-.29-.28-.586-.28c-.323,0-.598.116-.823.349s-.384.531-.475.897c-.057.226-.085.45-.085.676v2.364h-1.33Z"/>
      </g>
      <g>
        <path d="M114.518,38.531v-4.426h-.806c-.108,0-.162.054-.162.162v.318h-.851v-.828c0-.172.035-.294.104-.365.069-.071.192-.107.37-.107h3.657c.178,0,.301.036.369.107.069.071.104.193.104.365v.828h-.85v-.318c0-.108-.054-.162-.162-.162h-.806v4.426h-.968Z"/>
        <path d="M117.999,38.531v-4.286c0-.107-.055-.162-.163-.162h-.295v-.798h.894c.335,0,.503.165.503.495v1.322l-.015.318h.015c.099-.202.262-.377.491-.525.229-.147.496-.222.802-.222.877,0,1.315.479,1.315,1.434v1.471c0,.108.054.162.162.162h.296v.791h-.895c-.172,0-.298-.039-.377-.118-.078-.079-.118-.207-.118-.385v-1.729c0-.251-.044-.442-.133-.572-.089-.131-.244-.196-.466-.196-.241,0-.453.073-.635.218-.183.146-.311.334-.385.565-.039.133-.059.296-.059.487v1.729h-.938Z"/>
        <path d="M122.38,36.648c0-.582.178-1.056.532-1.423s.815-.551,1.382-.551c.521,0,.931.169,1.227.507.295.337.443.765.443,1.281l-.022.348h-2.601c.034.32.157.569.369.746.212.178.466.267.761.267.178,0,.355-.036.532-.107.178-.071.308-.142.392-.211l.133-.104.392.65c-.015.015-.036.036-.066.062-.029.027-.095.073-.195.137-.102.064-.206.121-.314.171-.108.049-.247.095-.417.136-.17.042-.344.063-.521.063-.605,0-1.095-.191-1.467-.573-.372-.381-.558-.848-.558-1.399ZM123.37,36.159h1.633c-.005-.222-.075-.403-.21-.547-.136-.143-.302-.214-.499-.214-.241,0-.442.067-.603.203s-.268.321-.321.558Z"/>
      </g>
    </g>
    <g>
      <path d="M43.264,35.413h.25v-.116c0-.865-.474-1.16-1.116-1.16-.74,0-1.267.429-1.267.429l-.285-.464s.589-.509,1.597-.509c1.08,0,1.677.597,1.677,1.722v2.873h-.58v-.491c0-.222.017-.375.017-.375h-.017s-.375.974-1.498.974c-.75,0-1.526-.437-1.526-1.33,0-1.517,1.972-1.554,2.748-1.554ZM42.139,37.779c.857,0,1.375-.894,1.375-1.67v-.196h-.259c-.705,0-2.116.028-2.116,1.017,0,.42.331.849,1,.849Z"/>
      <path d="M47.926,33.7h.58v.437c0,.196-.017.349-.017.349h.017s.366-.892,1.554-.892c1.205,0,1.953.964,1.953,2.356,0,1.418-.847,2.347-2.007,2.347-1.08,0-1.472-.857-1.472-.857h-.019s.019.161.019.392v2.142h-.607v-6.274ZM49.943,37.76c.793,0,1.446-.669,1.446-1.811,0-1.099-.581-1.804-1.42-1.804-.75,0-1.455.536-1.455,1.812,0,.901.5,1.802,1.429,1.802Z"/>
      <path d="M53.185,33.7h.597v.795c0,.196-.017.356-.017.356h.017c.214-.677.714-1.195,1.418-1.195.125,0,.241.026.241.026v.597s-.108-.017-.222-.017c-.634,0-1.107.5-1.304,1.16-.089.286-.125.59-.125.875v1.892h-.606v-4.489Z"/>
      <path d="M58.355,33.594c1.311,0,2.373.998,2.373,2.328,0,1.357-1.062,2.375-2.373,2.375s-2.375-1.017-2.375-2.375c0-1.33,1.062-2.328,2.375-2.328ZM58.355,37.752c.964,0,1.748-.785,1.748-1.83,0-1.017-.785-1.776-1.748-1.776s-1.75.759-1.75,1.776c0,1.045.786,1.83,1.75,1.83Z"/>
      <path d="M63.587,33.594c1.089,0,1.463.847,1.463.847h.017s-.017-.151-.017-.339v-2.187h.606v6.274h-.589v-.472c0-.198.017-.323.017-.323h-.017s-.366.902-1.543.902c-1.205,0-1.955-.964-1.955-2.356,0-1.42.839-2.347,2.017-2.347ZM63.613,37.752c.75,0,1.455-.535,1.455-1.811,0-.911-.464-1.804-1.427-1.804-.795,0-1.446.67-1.446,1.804,0,1.106.58,1.811,1.418,1.811Z"/>
      <path d="M67.061,33.7h.606v2.696c0,.705.108,1.33.972,1.33,1.027,0,1.661-.902,1.661-1.875v-2.151h.606v4.489h-.589v-.67c0-.196.017-.356.017-.356h-.017c-.179.437-.767,1.134-1.758,1.134-1.052,0-1.498-.571-1.498-1.741v-2.856Z"/>
      <path d="M74.418,33.594c1.097,0,1.642.642,1.642.642l-.312.455s-.5-.545-1.312-.545c-.981,0-1.75.732-1.75,1.804,0,1.052.778,1.802,1.767,1.802.911,0,1.437-.634,1.437-.634l.276.474s-.606.705-1.748.705c-1.33,0-2.356-.955-2.356-2.347,0-1.384,1.035-2.356,2.356-2.356Z"/>
      <path d="M77.445,34.262h-.589v-.509h.597v-1.293h.599v1.293h1.123v.509h-1.123v2.231c0,1.054.669,1.187,1.009,1.187.125,0,.205-.017.205-.017v.544s-.099.019-.259.019c-.517,0-1.562-.17-1.562-1.67v-2.293Z"/>
      <path d="M84.713,33.594c1.311,0,2.373.998,2.373,2.328,0,1.357-1.062,2.375-2.373,2.375s-2.375-1.017-2.375-2.375c0-1.33,1.062-2.328,2.375-2.328ZM84.713,37.752c.964,0,1.748-.785,1.748-1.83,0-1.017-.785-1.776-1.748-1.776s-1.75.759-1.75,1.776c0,1.045.786,1.83,1.75,1.83Z"/>
      <path d="M88.402,34.262h-.562v-.509h.562v-.214c0-1.482,1.043-1.67,1.552-1.67.17,0,.278.019.278.019v.544s-.09-.017-.215-.017c-.347,0-1.009.125-1.009,1.125v.214h1.151v.509h-1.151v3.927h-.606v-3.927Z"/>
    </g>
  </g>
  <g>
    <path class="cls-2" d="M20.072,5.937c0-.341-.194-.535-.534-.535h-.923V1.879h3.887c1.238,0,1.773.535,1.773,1.773v11.539c0,.34.194.534.534.534h.923v3.522h-3.887c-1.238,0-1.773-.534-1.773-1.773V5.937Z"/>
    <path class="cls-2" d="M33.335,6.446c3.692,0,5.781,2.575,5.781,6.049,0,.413-.098,1.263-.098,1.263h-7.895c.315,1.579,1.579,2.284,2.915,2.284,1.798,0,3.328-1.312,3.328-1.312l1.676,2.818s-2.016,1.992-5.344,1.992c-4.47,0-6.875-3.231-6.875-6.56,0-3.668,2.478-6.534,6.511-6.534ZM34.816,11.207c0-.777-.607-1.603-1.481-1.603-1.215,0-1.822.68-2.09,1.603h3.571Z"/>
    <path class="cls-2" d="M47.859,11.378h.17v-.146c0-1.19-.559-1.627-1.604-1.627-.534,0-1.093.121-1.093.607v.559h-3.887v-1.385c0-2.794,3.547-2.939,4.979-2.939,4.372,0,5.806,2.234,5.806,5.102v3.644c0,.34.194.534.534.534h.924v3.522h-3.645c-1.214,0-1.651-.753-1.651-1.312v-.219h-.049s-.874,1.822-3.498,1.822c-2.332,0-4.251-1.555-4.251-4.033,0-3.717,5.32-4.129,7.264-4.129ZM46.012,16.333c1.094,0,2.065-1.19,2.065-2.211v-.194h-.389c-1.336,0-2.867.364-2.867,1.36,0,.583.365,1.045,1.19,1.045Z"/>
    <path class="cls-2" d="M56.019,10.794c0-.34-.194-.534-.534-.534h-.923v-3.522h3.716c1.143,0,1.773.462,1.773,1.604v.656c0,.389-.048.631-.048.631h.048c.535-1.7,2.113-3.109,3.984-3.109.243,0,.485.049.485.049v4.13s-.34-.073-.85-.073c-.996,0-2.624.316-3.231,2.187-.146.462-.219,1.021-.219,1.7v4.737h-4.202v-8.454Z"/>
    <path class="cls-2" d="M67.094,10.794c0-.34-.194-.534-.534-.534h-.923v-3.522h3.74c1.143,0,1.749.559,1.749,1.409v.17c0,.122-.024.292-.024.292h.049c.583-.972,1.749-2.162,3.96-2.162,2.526,0,4.494,1.166,4.494,4.688v4.057c0,.34.194.534.534.534h.923v3.522h-3.887c-1.238,0-1.773-.534-1.773-1.773v-5.562c0-1.166-.461-1.652-1.384-1.652-1.312,0-2.114.729-2.479,1.798-.17.486-.242,1.045-.242,1.652v5.538h-4.203v-8.454Z"/>
    <path class="cls-2" d="M83.247,15.265h3.838v3.983h-3.838v-3.983Z"/>
    <path class="cls-2" d="M96.217,6.446c1.748,0,4.615.68,4.615,2.939v1.725h-3.645v-.656c0-.389-.461-.534-.971-.534-1.773,0-2.843,1.336-2.843,3.013,0,2.137,1.604,2.987,3.158,2.987,1.798,0,3.449-1.628,3.449-1.628l1.677,2.818s-1.968,2.43-5.539,2.43c-4.47,0-6.972-3.109-6.972-6.56,0-3.304,2.332-6.534,7.069-6.534Z"/>
    <path class="cls-2" d="M109.455,6.446c3.959,0,7.093,2.647,7.093,6.583,0,3.911-3.134,6.511-7.068,6.511s-7.069-2.6-7.069-6.511c0-3.936,3.134-6.583,7.045-6.583ZM109.479,16.042c1.53,0,2.842-1.143,2.842-3.013,0-1.895-1.312-3.085-2.842-3.085s-2.843,1.19-2.843,3.085c0,1.87,1.312,3.013,2.843,3.013Z"/>
    <path class="cls-2" d="M119.072,10.794c0-.34-.194-.534-.534-.534h-.923v-3.522h3.74c1.142,0,1.749.559,1.749,1.409v.17c0,.122-.023.292-.023.292h.048c.583-.972,1.749-2.162,3.96-2.162,2.526,0,4.494,1.166,4.494,4.688v4.057c0,.34.194.534.534.534h.923v3.522h-3.887c-1.238,0-1.773-.534-1.773-1.773v-5.562c0-1.166-.461-1.652-1.385-1.652-1.312,0-2.113.729-2.478,1.798-.17.486-.243,1.045-.243,1.652v5.538h-4.202v-8.454Z"/>
    <path class="cls-2" d="M141.128,6.446c1.748,0,4.615.68,4.615,2.939v1.725h-3.645v-.656c0-.389-.461-.534-.971-.534-1.773,0-2.843,1.336-2.843,3.013,0,2.137,1.604,2.987,3.158,2.987,1.798,0,3.449-1.628,3.449-1.628l1.677,2.818s-1.968,2.43-5.539,2.43c-4.47,0-6.972-3.109-6.972-6.56,0-3.304,2.332-6.534,7.069-6.534Z"/>
    <path class="cls-2" d="M154.364,6.446c3.959,0,7.093,2.647,7.093,6.583,0,3.911-3.134,6.511-7.069,6.511s-7.068-2.6-7.068-6.511c0-3.936,3.134-6.583,7.045-6.583ZM154.387,16.042c1.531,0,2.843-1.143,2.843-3.013,0-1.895-1.312-3.085-2.843-3.085s-2.842,1.19-2.842,3.085c0,1.87,1.312,3.013,2.842,3.013Z"/>
    <path class="cls-2" d="M163.981,10.794c0-.34-.194-.534-.534-.534h-.923v-3.522h3.717c1.142,0,1.772.462,1.772,1.604v.656c0,.389-.048.631-.048.631h.048c.535-1.7,2.114-3.109,3.984-3.109.243,0,.485.049.485.049v4.13s-.34-.073-.85-.073c-.996,0-2.624.316-3.231,2.187-.146.462-.218,1.021-.218,1.7v4.737h-4.203v-8.454Z"/>
    <path class="cls-2" d="M178.895,6.446c2.525,0,3.279.874,3.279.874h.048s-.024-.242-.024-.559v-.825c0-.341-.193-.535-.534-.535h-.923V1.879h3.887c1.239,0,1.773.535,1.773,1.773v11.539c0,.34.194.534.534.534h.923v3.522h-3.74c-1.19,0-1.628-.607-1.628-1.19v-.219h-.049s-1.044,1.701-3.619,1.701c-3.401,0-5.636-2.673-5.636-6.56,0-3.959,2.381-6.534,5.709-6.534ZM182.32,12.981c0-1.506-.802-2.987-2.454-2.987-1.312,0-2.453,1.068-2.453,2.987,0,1.871.996,3.085,2.453,3.085,1.264,0,2.454-.923,2.454-3.085Z"/>
    <path class="cls-2" d="M190.116,15.265h3.838v3.983h-3.838v-3.983Z"/>
    <path class="cls-2" d="M203.063,6.446c3.959,0,7.093,2.647,7.093,6.583,0,3.911-3.134,6.511-7.069,6.511s-7.068-2.6-7.068-6.511c0-3.936,3.134-6.583,7.045-6.583ZM203.087,16.042c1.531,0,2.843-1.143,2.843-3.013,0-1.895-1.312-3.085-2.843-3.085s-2.842,1.19-2.842,3.085c0,1.87,1.312,3.013,2.842,3.013Z"/>
    <path class="cls-2" d="M212.679,10.794c0-.34-.194-.534-.534-.534h-.923v-3.522h3.716c1.143,0,1.773.462,1.773,1.604v.656c0,.389-.048.631-.048.631h.048c.535-1.7,2.113-3.109,3.984-3.109.243,0,.485.049.485.049v4.13s-.34-.073-.85-.073c-.996,0-2.624.316-3.231,2.187-.146.462-.219,1.021-.219,1.7v4.737h-4.202v-8.454Z"/>
    <path class="cls-2" d="M227.497,6.446c2.551,0,3.619,1.457,3.619,1.457h.049v-.17c0-.34.389-.996,1.336-.996h3.79v3.522h-.875c-.315,0-.534.17-.534.462v7.385c0,4.566-3.644,6.243-7.069,6.243-1.676,0-3.522-.486-4.736-1.118l1.214-3.279s1.531.802,3.498.802c1.507,0,2.892-.559,2.892-2.404v-.194c0-.146.024-.462.024-.462h-.049c-.729.802-1.677,1.19-3.134,1.19-3.766,0-5.636-3.085-5.636-6.292,0-3.182,1.822-6.146,5.611-6.146ZM230.776,12.641c0-2.211-1.166-2.696-2.429-2.696-1.482,0-2.235,1.068-2.235,2.502,0,1.555.729,2.939,2.405,2.939,1.093,0,2.259-.559,2.259-2.745Z"/>
  </g>
</svg>